<svg width="30" height="30" viewBox="0 0 30 30" fill="none" xmlns="http://www.w3.org/2000/svg">
<ellipse cx="15" cy="15.3191" rx="15" ry="14.5745" fill="url(#paint0_linear)"/>
<path d="M15.0781 16.3508C12.7124 16.3508 10.7957 14.1182 10.7957 11.3661C10.7957 8.6144 12.7124 6.57471 15.0781 6.57471C17.4442 6.57471 19.3625 8.6144 19.3625 11.3661C19.3625 14.1182 17.4441 16.3508 15.0781 16.3508ZM8.41659 23.0893C8.41659 23.0893 7.50822 23.1476 7.10812 22.6119C6.89193 22.3225 7.04253 21.7361 7.19037 21.4089L7.55244 20.6071C7.55244 20.6071 8.55377 18.4312 9.69364 17.1702C10.3938 16.397 11.2266 16.5731 11.7653 16.8246C12.097 16.9793 12.4721 17.4301 12.7463 17.669C13.124 17.9982 13.7909 18.3723 14.8811 18.3934H15.55C16.6396 18.3723 17.3065 17.9982 17.684 17.669C17.9578 17.4302 18.3225 16.9654 18.6513 16.8055C19.1457 16.5651 19.8981 16.4171 20.58 17.1703C21.7202 18.4313 22.6232 20.6467 22.6232 20.6467L22.9943 21.4329C23.1479 21.7579 23.3051 22.3414 23.0949 22.6346C22.7199 23.1589 21.8778 23.0894 21.8778 23.0894L8.41659 23.0893Z" fill="white"/>
<defs>
<linearGradient id="paint0_linear" x1="30" y1="4.49234" x2="0.182901" y2="2.15706" gradientUnits="userSpaceOnUse">
<stop stop-color="#EDB72A"/>
<stop offset="1" stop-color="#FDD55D"/>
</linearGradient>
</defs>
</svg>
