<?xml version="1.0" encoding="utf-8"?>
<!-- Generator: Adobe Illustrator 23.0.1, SVG Export Plug-In . SVG Version: 6.00 Build 0)  -->
<svg version="1.1" id="Layer_1" xmlns="http://www.w3.org/2000/svg" xmlns:xlink="http://www.w3.org/1999/xlink" x="0px" y="0px"
	 viewBox="0 0 1000 595.2" style="enable-background:new 0 0 1000 595.2;" xml:space="preserve">
<style type="text/css">
	.st0{fill:#FFFFFF;}
	.st1{fill:#D10000;}
</style>
<path class="st0" d="M836.4,526.8H163.4c-56.4,0-102.6-46.2-102.6-102.6V171c0-56.4,46.2-102.6,102.6-102.6h672.9
	C892.8,68.4,939,114.6,939,171v253.2C939,480.6,892.8,526.8,836.4,526.8z"/>
<g>
	<path class="st1" d="M661.5,261.4c-3.8,16.5-9.9,28.1-18.4,34.6c-8.4,6.5-18.8,9.8-31.1,9.8h-2.3l20.2-87.4h2.3
		c12.5,0,21.4,3.1,26.9,9.2C664.4,233.8,665.3,245,661.5,261.4z"/>
	<path class="st1" d="M511,229.3c3.4,7.6,3.6,18.3,0.4,32c-3.2,13.9-8.4,24.8-15.5,32.8c-7.2,8-15.3,12-24.3,12s-15.3-4-18.7-12
		c-3.4-8-3.6-19-0.4-32.8c3.2-13.7,8.2-24.4,15.2-32s15.1-11.5,24.3-11.5C501.2,217.9,507.5,221.8,511,229.3z"/>
	<path class="st1" d="M817.5,89.3H182.3c-53.1,0-96.6,43.5-96.6,96.6v223.5c0,8.6,1.1,16.9,3.3,24.9c0,0,0,0,0,0.1
		c0.9,1.8,29,60.8,139,60.8c100,0,378.3-99.1,552.6-210.2l-76.5-31.2c-0.4,2.5-0.9,5.1-1.6,7.7c-6,25.9-17.2,45.1-33.8,57.7
		C652.2,331.8,632.3,338,609,338h-47l35-151.9h44.9c24.3,0,42,6.1,53.1,18.2c9.4,10.3,12.6,25.6,9.7,45.8l80.9-47.3l7.2-97.8
		l73.3,65.2l44.3-10.9C898.9,119.1,861.5,89.3,817.5,89.3z M327.3,186.1l0.6,66.4c0.1,8.1,0.1,16.3-0.1,24.5
		c0.1,2.9,0.1,6.4,0.1,10.3c-0.1,3.9,0,8.3,0.1,13.3h0.9c2.7-5.5,5-10.4,7.1-14.9s3.8-8.3,5.4-11.6c3-7.2,6.4-14.4,9.9-21.7
		l30.7-66.3h41.1l-80,151.9h-48.6l-9.7-151.9H327.3z M170.7,310c0.9-18,5.1-35.4,13.1-51.1c-1.4,17.4-1.9,34.4-0.2,50.7
		c1.6,16.3,5.8,32,14.4,44.3c8.6,12.2,21.7,22.6,37.2,27c15.4,4.8,32.5,4.4,49.9,5.7c-16.6,5.5-34.5,7.8-52.7,5.1
		c-18-2.3-36.8-12.2-47.9-28.4c-5.5-8-9.2-16.9-11.4-26C171.1,328.3,170.4,319,170.7,310z M371,416.8c-17,7.4-34.2,14.5-52.2,20.2
		c-17.9,5.7-36.5,9.9-55.4,12.5c-18.9,2.5-38,3.4-56.9,2.6c-9.6-0.2-20-1.2-30.1-3.6c-10.2-2.3-20.4-6.6-29.1-13.2
		c-8.8-6.6-15.9-15.2-21.2-24.5c-5.2-9.3-8.4-19.3-10-29.2c-0.8-5-1.2-9.9-1.3-14.8c-0.1-4.9,0.2-9.7,0.7-14.5
		c1.1-9.5,3-18.9,6.4-27.6c0.7,18.6,4.1,36.7,10.7,52.3c6.6,15.7,17.3,27.9,30.5,34.8c6.5,3.6,13.5,6.6,21,9.1
		c7.6,2.4,15.5,4,24.2,4.6c17.7,1.8,35.4,2.1,53.2,1.4c35.4-1.4,70.7-9.8,105.4-21.2c17.4-5.6,34.7-11.8,51.9-18.1l51.9-18.8v0.1
		C437.6,385.1,404.9,401.9,371,416.8z M552.6,261.4c-3.8,16.4-10,30.5-18.6,42.5s-19,21.2-31.1,27.5s-25.2,9.5-39.2,9.5
		s-25.7-3.2-34.9-9.5c-9.2-6.3-15.4-15.5-18.4-27.5c-3.1-12-2.7-26.2,1.1-42.5c3.8-16.4,10-30.4,18.5-42.2
		c8.6-11.8,18.9-20.7,31-26.8s25.1-9.1,39.2-9.1c14.1,0,25.7,3.1,34.9,9.2c9.3,6.1,15.5,15.1,18.6,26.8
		C556.7,231,556.3,245,552.6,261.4z"/>
	<path class="st1" d="M914.1,314.3v95.1c0,53.1-43.5,96.6-96.6,96.6H429.7c55.6-24.2,120.8-57.3,198.4-101
		c76.6-43.2,130.9-80.2,165.7-106.1l18.9,86.5l63.3-74.9L914.1,314.3z"/>
</g>
</svg>
