<svg width="25" height="18" viewBox="0 0 25 18" fill="none" xmlns="http://www.w3.org/2000/svg">
<path d="M16.8449 17.7293C16.4924 18.0902 15.9376 18.0902 15.5851 17.7293C15.2446 17.3805 15.2446 16.8001 15.5851 16.4521L21.9727 9.91012L0.894592 9.91012C0.403241 9.91012 -4.39974e-07 9.51014 -4.39974e-07 9.00691C-4.39974e-07 8.50368 0.403241 8.09069 0.894592 8.09069L21.9727 8.09069L15.5851 1.5609C15.2446 1.19995 15.2446 0.618671 15.5851 0.270719C15.9376 -0.0902401 16.4924 -0.0902401 16.8449 0.270719L24.7446 8.36141C25.0851 8.71018 25.0851 9.29064 24.7446 9.63859L16.8449 17.7293Z" fill="white"/>
</svg>
