<svg width="44" height="45" viewBox="0 0 44 45" fill="none" xmlns="http://www.w3.org/2000/svg">
<path d="M39.7076 44.1958C39.5869 44.1958 39.4663 44.1958 39.3457 44.1555L31.1829 41.9037C28.2072 43.3513 25.0306 44.0752 21.7333 44.0752C9.79061 44.0752 0.0595703 34.3441 0.0595703 22.4014C0.0595703 10.4588 9.79061 0.727783 21.7333 0.727783C33.6759 0.727783 43.407 10.4588 43.407 22.4014C43.407 26.8648 42.0398 31.1674 39.4663 34.8266L41.115 42.5069C41.2356 42.9894 41.0747 43.472 40.7128 43.8339C40.3911 44.0752 40.0695 44.1958 39.7076 44.1958ZM21.7333 3.54247C11.3186 3.54247 2.87432 11.9868 2.87432 22.4014C2.87432 32.816 11.3186 41.2603 21.7333 41.2603C24.7491 41.2603 27.6845 40.5366 30.3786 39.1292C30.7003 38.9683 31.0622 38.9281 31.3839 39.0085L37.8579 40.8181L36.5711 34.7864C36.4907 34.3843 36.5711 33.9822 36.8124 33.6605C39.2652 30.3633 40.5922 26.4627 40.5922 22.4014C40.5922 11.9868 32.1077 3.54247 21.7333 3.54247Z" fill="#2A2A2A"/>
</svg>
