<svg width="57" height="46" viewBox="0 0 57 46" fill="none" xmlns="http://www.w3.org/2000/svg">
<path d="M56.1427 2.62352C56.1829 2.46267 56.1829 2.34198 56.1829 2.18113C56.1829 2.14092 56.2231 2.06059 56.1829 2.02038C56.1427 1.85953 56.022 1.65838 55.9416 1.53774C55.9416 1.53774 55.9416 1.49758 55.9014 1.45737C55.8612 1.41715 55.821 1.41711 55.821 1.41711C55.6199 1.21606 55.3787 1.05531 55.1374 1.0151H55.0972C55.0167 1.0151 54.9363 0.974854 54.8559 0.974854L1.69706 1.29649C1.1341 1.29649 0.611394 1.61826 0.410339 2.141C0.209285 2.66375 0.329886 3.26681 0.691784 3.66892L18.1434 21.4422L20.0332 44.6037C20.0734 45.1667 20.4756 45.6492 21.0385 45.81C21.1591 45.8502 21.32 45.8904 21.4406 45.8904C21.8427 45.8904 22.2851 45.6894 22.5264 45.3678L55.9014 3.22666C55.9416 3.18644 55.9416 3.10599 55.9416 3.06578C56.0623 2.90493 56.1025 2.78436 56.1427 2.62352ZM49.0655 3.78967L23.411 17.2201L19.792 19.11L4.99438 4.07105L49.0655 3.78967ZM20.9581 21.6432L35.3938 14.0837L49.6285 6.64461L22.5264 40.8239L20.9581 21.6432Z" fill="#2A2A2A"/>
</svg>
