<svg width="14" height="24" viewBox="0 0 14 24" fill="none" xmlns="http://www.w3.org/2000/svg">
<path d="M13.5279 8.23122C13.4624 8.09041 13.3216 8.00003 13.1664 8.00003H8.43853L13.1045 0.614017C13.1823 0.490829 13.1871 0.334829 13.1169 0.207235C13.0467 0.0792189 12.9126 0 12.7674 0H6.38378C6.23258 0 6.09451 0.0855939 6.02671 0.221204L0.0420706 12.2212C-0.0197863 12.3448 -0.0130068 12.492 0.0596037 12.61C0.132635 12.728 0.260697 12.8 0.399139 12.8H4.5018L0.03127 23.4448C-0.0449407 23.6268 0.022901 23.838 0.190845 23.9412C0.255461 23.9808 0.327276 24 0.398718 24C0.513221 24 0.626134 23.9508 0.704356 23.858L13.4716 8.65797C13.5717 8.53881 13.5933 8.37241 13.5279 8.23122Z" fill="#828282"/>
</svg>
