<svg width="31" height="24" viewBox="0 0 31 24" fill="none" xmlns="http://www.w3.org/2000/svg">
<path d="M30.1306 0.734271C29.6347 0.244739 29.0389 0 28.3423 0H3.02114C2.32482 0 1.72889 0.244684 1.23273 0.734271C0.736844 1.22391 0.489014 1.81228 0.489014 2.49982V21.4995C0.489014 22.1872 0.736844 22.7757 1.23273 23.2652C1.72889 23.7548 2.32482 23.9996 3.02114 23.9996H28.3427C29.0389 23.9996 29.6349 23.7548 30.1308 23.2652C30.6266 22.7757 30.8748 22.1873 30.8748 21.4995V2.49982C30.8748 1.81228 30.6266 1.22391 30.1306 0.734271ZM28.8486 21.4995C28.8486 21.6352 28.7988 21.752 28.6986 21.8513C28.5982 21.9498 28.4795 21.9992 28.3423 21.9992H3.02114C2.88406 21.9992 2.76533 21.9498 2.66511 21.8513C2.56495 21.752 2.51478 21.6352 2.51478 21.4995V2.4996C2.51478 2.3642 2.56478 2.24725 2.66511 2.14809C2.76538 2.04941 2.88412 1.99989 3.02114 1.99989H28.3427C28.4797 1.99989 28.5984 2.04941 28.6986 2.14809C28.7984 2.24725 28.8486 2.3642 28.8486 2.4996V21.4995Z" fill="#828282"/>
<path d="M7.57939 9.99977C8.42355 9.99977 9.14093 9.70824 9.73182 9.12485C10.3225 8.54146 10.618 7.83324 10.618 7.00002C10.618 6.16653 10.3224 5.45831 9.73182 4.87486C9.14093 4.29169 8.42349 4 7.57939 4C6.73535 4 6.01802 4.29169 5.42713 4.87486C4.83646 5.45825 4.54102 6.16648 4.54102 7.00002C4.54102 7.83324 4.83629 8.54163 5.42713 9.12485C6.01802 9.70808 6.73535 9.99977 7.57939 9.99977Z" fill="#828282"/>
<path d="M12.1373 14.4994L9.60516 11.9996L4.54102 16.9994V19.9996H26.8238V12.9996L20.2403 6.49951L12.1373 14.4994Z" fill="#828282"/>
</svg>
