<svg width="26" height="25" viewBox="0 0 26 25" fill="none" xmlns="http://www.w3.org/2000/svg">
<mask id="mask0" mask-type="alpha" maskUnits="userSpaceOnUse" x="0" y="0" width="26" height="24">
<path fill-rule="evenodd" clip-rule="evenodd" d="M12.6175 0L16.8285 7.47099L25.2351 9.16718L19.431 15.4807L20.4156 24L12.6175 20.431L4.81947 24L5.80407 15.4807L0 9.16718L8.40659 7.47099L12.6175 0ZM9.67352 11.7268H8.53186C8.37491 11.7268 8.24644 11.8546 8.24644 12.0122V17.1497C8.24644 17.3072 8.37435 17.4351 8.53186 17.4351H9.67352C9.83104 17.4351 9.95895 17.3072 9.95895 17.1497V12.0122C9.95895 11.8546 9.83046 11.7268 9.67352 11.7268ZM14.078 11.7268C14.078 11.7268 16.2302 11.719 16.2762 11.7268C17.037 11.8555 17.2547 12.8876 16.6036 13.3046C16.8246 13.6955 16.6955 14.2046 16.3181 14.4463C16.5391 14.8372 16.4101 15.3463 16.0327 15.588C16.3493 16.1479 15.9286 16.8647 15.2868 16.8643H10.5298V12.2976C10.5298 12.2976 11.9064 11.0508 12.3495 10.6186C12.6037 10.3708 12.7678 10.0405 12.8336 9.69317C12.8413 9.65305 12.846 9.6123 12.8507 9.57164C12.8621 9.47352 12.8735 9.37588 12.925 9.28857C12.9884 9.18118 13.0948 9.10103 13.2159 9.07057C13.427 9.01743 13.6888 9.06772 13.8762 9.16785C14.4517 9.47533 14.586 10.3402 14.3786 10.9067L14.078 11.7268Z" fill="#F2F2F2"/>
</mask>
<g mask="url(#mask0)">
<rect x="0.0244141" y="-0.673584" width="25.2616" height="24.7564" fill="#E0E0E0"/>
<rect width="25" height="24" fill="#828282"/>
</g>
</svg>
