<svg width="145" height="145" viewBox="0 0 145 145" fill="none" xmlns="http://www.w3.org/2000/svg">
<path d="M28.6941 30.7342C23.9673 30.7342 20.1223 34.574 20.1223 39.3216C20.1223 44.0588 23.9621 47.909 28.6941 47.909C33.4417 47.909 37.2815 44.0588 37.2815 39.3216C37.2815 34.574 33.4417 30.7342 28.6941 30.7342Z" fill="#BDBDBD"/>
<path d="M91.665 44.8622C93.5379 45.6709 95.8022 46.1508 98.2803 46.1508C104.609 46.1508 109.732 43.0623 109.732 39.2433C109.732 35.4296 104.609 32.3358 98.2803 32.3358C95.9065 32.3358 93.6944 32.7689 91.8789 33.5201C91.1224 32.7897 90.105 32.3358 88.9938 32.3358H87.3243C85.2062 32.3358 83.521 33.9479 83.281 35.9983C78.1474 36.5356 74.3545 38.3877 74.3545 40.6102C74.3545 43.2553 79.6916 45.3891 86.3174 45.3891C88.2425 45.3839 90.0477 45.1857 91.665 44.8622Z" fill="#BDBDBD"/>
<path d="M126.537 62.3553V15.4688C126.537 14.0707 125.404 12.9229 123.98 12.9229H2.5877C1.15299 12.9229 0 14.0707 0 15.4688V120.537C0 121.945 1.15299 123.098 2.5877 123.098H83.2186C89.7609 128.691 98.2388 132.082 107.52 132.082C128.216 132.082 145 115.309 145 94.6077C145 80.8553 137.571 68.8715 126.537 62.3553ZM57.3259 53.7105C43.4588 39.8642 30.0507 93.439 30.0507 93.439H11.7177V24.5362H116.958V58.3798C113.942 57.592 110.791 57.1277 107.52 57.1277C91.6756 57.1277 78.1423 66.9933 72.68 80.9022C69.7688 72.3513 64.8699 61.2753 57.3259 53.7105ZM107.52 123.771C91.4095 123.771 78.3562 110.708 78.3562 94.6024C78.3562 78.4971 91.4095 65.4386 107.52 65.4386C123.631 65.4386 136.694 78.4919 136.694 94.6024C136.694 110.713 123.631 123.771 107.52 123.771Z" fill="#BDBDBD"/>
<path d="M112.606 74.2034H100.153V88.3993H85.665V100.853H100.153V115.466H112.606V100.853H126.933V88.3993H112.606V74.2034Z" fill="#BDBDBD"/>
</svg>
