<svg width="111" height="38" viewBox="0 0 111 38" fill="none" xmlns="http://www.w3.org/2000/svg">
<rect x="0.5" y="0.5" width="38" height="37" rx="4.5" fill="white" stroke="#E0E0E0"/>
<rect x="72.5" y="0.5" width="38" height="37" rx="4.5" fill="white" stroke="#E0E0E0"/>
<path d="M22.3927 25.1133L22.6973 26.9766C22.1036 27.1016 21.5723 27.1641 21.1036 27.1641C20.338 27.1641 19.7442 27.043 19.3223 26.8008C18.9005 26.5586 18.6036 26.2422 18.4317 25.8516C18.2598 25.4531 18.1739 24.6211 18.1739 23.3555V16.1953H16.627V14.5547H18.1739V11.4727L20.2716 10.207V14.5547H22.3927V16.1953H20.2716V23.4727C20.2716 24.0742 20.3067 24.4609 20.377 24.6328C20.4552 24.8047 20.5763 24.9414 20.7403 25.043C20.9122 25.1445 21.1544 25.1953 21.4669 25.1953C21.7013 25.1953 22.0098 25.168 22.3927 25.1133Z" fill="#828282"/>
<path d="M46.3333 18H60.667V20.0001C60.667 20.0904 60.6998 20.1684 60.7658 20.2345C60.8318 20.3005 60.91 20.3334 61.0002 20.3334C61.0975 20.3334 61.1774 20.3022 61.2397 20.2397L64.5732 16.9063C64.6355 16.8438 64.6667 16.7639 64.6667 16.6668C64.6667 16.5695 64.6355 16.4896 64.5729 16.4272L61.2502 13.1042C61.1668 13.0347 61.0834 13 61 13C60.9029 13 60.8229 13.0312 60.7605 13.0937C60.6981 13.1563 60.6669 13.236 60.6669 13.3333V15.3333H46.3333C46.243 15.3333 46.1649 15.3663 46.0989 15.4323C46.033 15.4983 46 15.5764 46 15.6666V17.6667C46 17.757 46.0329 17.8351 46.0989 17.901C46.165 17.967 46.243 18 46.3333 18Z" fill="#EB5757"/>
<path d="M64.3335 22.0003H50V20.0002C50 19.9099 49.9669 19.8318 49.901 19.7658C49.835 19.6998 49.7569 19.6669 49.6666 19.6669C49.5693 19.6669 49.4895 19.6981 49.427 19.7606L46.0937 23.0938C46.0313 23.1565 46 23.2361 46 23.3336C46 23.4237 46.0312 23.5002 46.0937 23.5625L49.4167 26.896C49.5 26.9654 49.5834 27 49.6667 27C49.757 27 49.8351 26.9671 49.9011 26.9012C49.967 26.8351 50 26.7572 50 26.6668V24.6668H64.3335C64.4239 24.6668 64.5018 24.634 64.568 24.5679C64.6339 24.5018 64.6668 24.4238 64.6668 24.3334V22.3334C64.6668 22.2431 64.6338 22.1651 64.568 22.0992C64.5018 22.0333 64.4239 22.0003 64.3335 22.0003Z" fill="#EB5757"/>
<path d="M100.971 12.1101C100.653 11.7968 100.272 11.6401 99.8262 11.6401H83.6206C83.1749 11.6401 82.7935 11.7967 82.476 12.1101C82.1586 12.4234 82 12.8 82 13.24V25.3999C82 25.8401 82.1586 26.2167 82.476 26.53C82.7935 26.8433 83.1749 27 83.6206 27H99.8265C100.272 27 100.653 26.8433 100.971 26.53C101.288 26.2167 101.447 25.8401 101.447 25.3999V13.24C101.447 12.8 101.288 12.4234 100.971 12.1101ZM100.15 25.3999C100.15 25.4867 100.118 25.5615 100.054 25.625C99.99 25.6881 99.914 25.7197 99.8262 25.7197H83.6206C83.5328 25.7197 83.4569 25.6881 83.3927 25.625C83.3286 25.5615 83.2965 25.4867 83.2965 25.3999V13.2399C83.2965 13.1532 83.3285 13.0784 83.3927 13.0149C83.4569 12.9518 83.5329 12.9201 83.6206 12.9201H99.8265C99.9141 12.9201 99.9901 12.9518 100.054 13.0149C100.118 13.0784 100.15 13.1532 100.15 13.2399V25.3999Z" fill="#828282"/>
<path d="M86.5378 18.04C87.0781 18.04 87.5372 17.8534 87.9154 17.4801C88.2935 17.1067 88.4826 16.6534 88.4826 16.1202C88.4826 15.5867 88.2934 15.1335 87.9154 14.7601C87.5372 14.3868 87.0781 14.2001 86.5378 14.2001C85.9976 14.2001 85.5386 14.3868 85.1604 14.7601C84.7823 15.1334 84.5933 15.5867 84.5933 16.1202C84.5933 16.6534 84.7822 17.1068 85.1604 17.4801C85.5386 17.8533 85.9976 18.04 86.5378 18.04Z" fill="#828282"/>
<path d="M89.4549 20.9198L87.8343 19.32L84.5933 22.5199V24.44H98.8543V19.9599L94.6408 15.7999L89.4549 20.9198Z" fill="#828282"/>
</svg>
