<svg width="43" height="27" viewBox="0 0 43 27" fill="none" xmlns="http://www.w3.org/2000/svg">
<path d="M29.6415 1.73427C29.1457 1.24474 28.5499 1 27.8533 1H2.53213C1.83581 1 1.23987 1.24468 0.743713 1.73427C0.24783 2.22391 0 2.81228 0 3.49982V22.4995C0 23.1872 0.24783 23.7757 0.743713 24.2652C1.23987 24.7548 1.83581 24.9996 2.53213 24.9996H27.8537C28.5499 24.9996 29.1459 24.7548 29.6418 24.2652C30.1376 23.7757 30.3858 23.1873 30.3858 22.4995V3.49982C30.3858 2.81228 30.1376 2.22391 29.6415 1.73427ZM28.3596 22.4995C28.3596 22.6352 28.3098 22.752 28.2095 22.8513C28.1092 22.9498 27.9905 22.9992 27.8533 22.9992H2.53213C2.39505 22.9992 2.27632 22.9498 2.1761 22.8513C2.07593 22.752 2.02577 22.6352 2.02577 22.4995V3.4996C2.02577 3.3642 2.07577 3.24725 2.1761 3.14809C2.27637 3.04941 2.3951 2.99989 2.53213 2.99989H27.8537C27.9907 2.99989 28.1094 3.04941 28.2095 3.14809C28.3094 3.24725 28.3596 3.3642 28.3596 3.4996V22.4995Z" fill="#828282"/>
<path d="M7.09038 10.9998C7.93453 10.9998 8.65191 10.7082 9.24281 10.1249C9.83353 9.54146 10.129 8.83324 10.129 8.00002C10.129 7.16653 9.83336 6.45831 9.24281 5.87486C8.65191 5.29169 7.93448 5 7.09038 5C6.24634 5 5.52901 5.29169 4.93812 5.87486C4.34745 6.45825 4.052 7.16648 4.052 8.00002C4.052 8.83324 4.34728 9.54163 4.93812 10.1249C5.52901 10.7081 6.24634 10.9998 7.09038 10.9998Z" fill="#828282"/>
<path d="M11.6483 15.4994L9.11615 12.9996L4.052 17.9994V20.9996H26.3347V13.9996L19.7512 7.49951L11.6483 15.4994Z" fill="#828282"/>
<path d="M42.3643 21.6416L42.7452 23.9707C42.003 24.127 41.339 24.2051 40.753 24.2051C39.796 24.2051 39.0538 24.0537 38.5265 23.751C37.9991 23.4482 37.628 23.0527 37.4132 22.5645C37.1983 22.0664 37.0909 21.0264 37.0909 19.4443V10.4941H35.1573V8.44336H37.0909V4.59082L39.713 3.00879V8.44336H42.3643V10.4941H39.713V19.5908C39.713 20.3428 39.7569 20.8262 39.8448 21.041C39.9425 21.2559 40.0938 21.4268 40.2989 21.5537C40.5138 21.6807 40.8165 21.7441 41.2071 21.7441C41.5001 21.7441 41.8858 21.71 42.3643 21.6416Z" fill="#828282"/>
</svg>
