<svg width="31" height="26" viewBox="0 0 31 26" fill="none" xmlns="http://www.w3.org/2000/svg">
<path d="M26.2952 22.1313H21.0256H10.0934C9.63761 22.1313 9.26807 22.5008 9.26807 22.9567V23.4646C9.26807 23.9204 9.63757 24.2901 10.0934 24.2901H21.0257H26.2953H29.0252V22.1315L26.2952 22.1313Z" fill="#BDBDBD"/>
<path d="M8.37789 9.1386C10.9014 9.1386 12.9472 7.09285 12.9472 4.5693C12.9472 2.04574 10.9014 0 8.37789 0C5.85434 0 3.80859 2.04574 3.80859 4.5693C3.80859 7.09285 5.85434 9.1386 8.37789 9.1386Z" fill="#BDBDBD"/>
<path d="M19.5257 15.7779L9.0547 15.7721L8.80678 15.7713V14.5563L8.79817 13.5392C8.79817 11.1097 6.82864 9.14014 4.39908 9.14014C4.31677 9.14014 4.23502 9.14291 4.15378 9.14736L4.14759 9.14014C1.85695 9.14022 0 10.9971 0 13.2878V25.0017H8.80678V20.0116L8.69027 20.0024C8.68198 20.0017 8.67992 20.0025 8.67476 20.0025C8.07892 20.0025 7.50787 19.7517 7.10544 19.3123L3.53092 15.4105C3.41696 15.2862 3.42541 15.0931 3.5498 14.9792C3.67408 14.8652 3.86726 14.8737 3.98115 14.9981L7.55562 18.8998C7.84607 19.2169 8.25568 19.4108 8.68698 19.4171C8.71566 19.4175 9.10722 19.4231 9.10722 19.4231H19.5257C20.5322 19.4231 21.3483 18.6071 21.3483 17.6005C21.3483 16.5939 20.5322 15.7779 19.5257 15.7779Z" fill="#BDBDBD"/>
<path d="M30.3549 9.30937C29.9288 9.16336 29.4648 9.39065 29.3187 9.81688L25.8594 19.9158H13.4806C13.0302 19.9158 12.6648 20.281 12.6648 20.7315C12.6648 21.1821 13.0302 21.5473 13.4806 21.5473H26.4323C26.7098 21.5473 26.9547 21.4084 27.1019 21.1966C27.1528 21.1295 27.1943 21.0536 27.2232 20.9694L30.8628 10.3453C31.0084 9.91926 30.7814 9.45531 30.3549 9.30937Z" fill="#BDBDBD"/>
</svg>
