<svg width="30" height="30" viewBox="0 0 30 30" fill="none" xmlns="http://www.w3.org/2000/svg">
<path d="M3.74985 4.68746V0.937479C3.74985 0.419247 4.1691 0 4.68746 0C5.20557 0 5.62481 0.419247 5.62481 0.937479V4.68746C5.62481 5.20557 5.20557 5.62481 4.68746 5.62481C4.1691 5.62488 3.74985 5.20557 3.74985 4.68746ZM19.6871 5.62488C20.205 5.62488 20.6245 5.20563 20.6245 4.68752V0.937479C20.6245 0.419247 20.205 0 19.6871 0C19.1688 0 18.7493 0.419247 18.7493 0.937479V4.68746C18.7493 5.20557 19.1688 5.62488 19.6871 5.62488ZM29.999 22.4991C29.999 26.6413 26.6411 29.9991 22.4993 29.9991C18.3577 29.9991 14.9995 26.6413 14.9995 22.4991C14.9995 18.3576 18.3577 14.9995 22.4993 14.9995C26.6411 14.9995 29.999 18.3575 29.999 22.4991ZM28.1243 22.4991C28.1243 19.3978 25.6012 16.8744 22.4993 16.8744C19.3977 16.8744 16.8746 19.3978 16.8746 22.4991C16.8746 25.601 19.3977 28.1241 22.4993 28.1241C25.6012 28.1241 28.1243 25.601 28.1243 22.4991ZM7.49983 11.2497H3.74985V14.9995H7.49983V11.2497ZM3.74985 20.6244H7.49983V16.8744H3.74985V20.6244ZM9.37467 14.9995H13.1247V11.2497H9.37467V14.9995ZM9.37467 20.6244H13.1247V16.8744H9.37467V20.6244ZM1.87502 22.3127V9.37467H22.4993V13.1246H24.3743V5.81172C24.3743 4.6728 23.466 3.74986 22.3438 3.74986H21.5618V4.68752C21.5618 5.72009 20.7212 6.56242 19.6871 6.56242C18.6527 6.56242 17.8122 5.72009 17.8122 4.68752V3.74986H6.56223V4.68752C6.56223 5.72009 5.72182 6.56242 4.68752 6.56242C3.65297 6.56242 2.8125 5.72009 2.8125 4.68752V3.74986H2.0315C0.909224 3.74986 0 4.6728 0 5.81172V22.3128C0 23.4479 0.909224 24.3745 2.0315 24.3745H13.1247V22.4992H2.0315C1.94655 22.4991 1.87502 22.4114 1.87502 22.3127ZM18.7493 14.9995V11.2497H14.9996V14.9995H18.7493ZM25.3118 22.4991H22.4993V19.6866C22.4993 19.1687 22.08 18.7495 21.5618 18.7495C21.0435 18.7495 20.6245 19.1687 20.6245 19.6866V23.4369C20.6245 23.9549 21.0435 24.3744 21.5618 24.3744H25.3118C25.83 24.3744 26.2492 23.9549 26.2492 23.4369C26.2492 22.9187 25.83 22.4991 25.3118 22.4991Z" fill="#BDBDBD"/>
</svg>
