<svg width="9" height="22" viewBox="0 0 9 22" fill="none" xmlns="http://www.w3.org/2000/svg">
<path d="M8.11092 18.6416L8.49178 20.9707C7.74959 21.127 7.08553 21.2051 6.49959 21.2051C5.54256 21.2051 4.80038 21.0537 4.27303 20.751C3.74569 20.4482 3.37459 20.0527 3.15975 19.5645C2.94491 19.0664 2.83749 18.0264 2.83749 16.4443V7.49414H0.903892V5.44336H2.83749V1.59082L5.45956 0.00878906V5.44336H8.11092V7.49414H5.45956V16.5908C5.45956 17.3428 5.5035 17.8262 5.59139 18.041C5.68905 18.2559 5.84042 18.4268 6.04549 18.5537C6.26034 18.6807 6.56307 18.7441 6.9537 18.7441C7.24667 18.7441 7.63241 18.71 8.11092 18.6416Z" fill="#828282"/>
</svg>
