<svg width="21" height="24" viewBox="0 0 21 24" fill="none" xmlns="http://www.w3.org/2000/svg">
<path d="M20.5049 1.64834V0.0154331C20.3676 0.00514427 20.22 0 20.0618 0L19.3971 0.0154331L19.2864 0.140541C19.2124 0.223946 19.1016 0.307241 18.954 0.390372C18.8065 0.473613 18.6587 0.510226 18.5109 0.499718L17.9727 0.468633H13.3357L9.93306 0.452871L8.11291 0.468633L7.81225 0.515425H5.75492C3.7396 0.515425 2.62654 0.48932 2.41562 0.437329L1.56093 0.0153784L0.279297 0.0320156V1.37558V6.01627C0.405847 6.19337 0.70124 6.42251 1.16542 6.70381C1.23926 6.70381 1.34746 6.636 1.48981 6.50044C1.63227 6.36499 1.73498 6.19835 1.79834 6.0004C1.91441 5.65671 2.04113 5.21932 2.17826 4.68786C2.31535 4.15684 2.43147 3.76597 2.52632 3.51609C2.62105 3.26615 2.73707 3.0943 2.87443 3.00061C3.04299 2.8859 3.42813 2.75833 4.02956 2.61779C4.63099 2.47692 5.15853 2.40681 5.61207 2.40681C6.77269 2.40681 7.55339 2.43806 7.95432 2.50034C8.0388 2.51074 8.11258 2.54221 8.17599 2.5942C8.21829 2.63579 8.24983 2.71405 8.27095 2.82849C8.2919 2.9432 8.3026 3.24015 8.3026 3.7194C8.3026 4.19838 8.29988 4.73252 8.29462 5.3209C8.28941 5.90955 8.29185 6.52666 8.3026 7.17239L8.38159 13.8599C8.40265 16.3703 8.37117 18.6256 8.28669 20.6255C8.25498 20.9899 8.19174 21.2815 8.09673 21.5005C7.88576 21.6252 7.04702 21.8859 5.58042 22.2815C4.96835 22.4481 4.55167 22.7032 4.33006 23.0471V23.1876L4.34596 23.5936C4.34596 23.6356 4.35666 23.7707 4.37767 24C4.60976 24 4.9791 23.9794 5.48547 23.9374C7.01537 23.7915 8.2444 23.7185 9.17282 23.7185C10.9242 23.7185 12.1798 23.7601 12.9395 23.8434C13.7518 23.9475 14.7385 23.9995 15.899 23.9995C16.11 23.9995 16.2894 23.9944 16.437 23.9839C16.4689 23.7861 16.4848 23.6352 16.4848 23.531C16.4848 23.479 16.4582 23.2187 16.4054 22.7497C16.1945 22.6456 15.931 22.552 15.6144 22.4684C15.4562 22.4268 15.2294 22.3643 14.934 22.2807C14.6387 22.1972 14.4064 22.1294 14.2376 22.0773C14.0688 22.0254 13.9738 21.9994 13.9528 21.9994C13.5309 21.9264 13.0614 21.7598 12.5443 21.4993C12.4177 21.0933 12.3597 20.6505 12.3703 20.1713L12.3862 17.8742L12.3386 12.2645V7.07793L12.3226 4.70297C12.3017 4.29678 12.3439 3.58855 12.4494 2.57784C12.7974 2.52585 13.151 2.49974 13.5098 2.49974C13.9635 2.49974 14.5489 2.49482 15.2666 2.4842C15.9839 2.47369 16.5299 2.46844 16.9048 2.46844C17.2792 2.46844 17.5033 2.479 17.5774 2.49969C17.725 2.54155 17.8673 2.64056 18.0044 2.79664C18.0255 2.81754 18.057 2.96848 18.0993 3.24978C18.1416 3.53108 18.2023 3.87215 18.2816 4.27314C18.3607 4.67429 18.4424 4.99981 18.527 5.24992C18.8328 6.1353 19.1178 6.80194 19.3814 7.24994C19.6873 7.21863 20.0461 7.12472 20.4578 6.96858C20.4999 6.77063 20.5207 6.50504 20.5207 6.17169L20.5365 5.26529L20.5207 3.70315C20.5102 2.33315 20.5049 1.64834 20.5049 1.64834Z" fill="#828282"/>
</svg>
