<svg width="32" height="22" viewBox="0 0 32 22" fill="none" xmlns="http://www.w3.org/2000/svg">
<path d="M31.117 8.2032C31.106 7.60059 31.0576 6.83867 30.9731 5.91813C30.8881 4.99707 30.7665 4.17393 30.6084 3.44865C30.4275 2.63401 30.0347 1.94756 29.43 1.38951C28.8254 0.83135 28.1216 0.507793 27.3187 0.418372C24.809 0.139555 21.0165 0 15.9411 0C10.8657 0 7.07309 0.139555 4.56354 0.418372C3.76082 0.507734 3.05983 0.83135 2.46088 1.38951C1.86169 1.94738 1.47167 2.63384 1.29076 3.44865C1.12138 4.17416 0.994049 4.99724 0.909299 5.91813C0.824667 6.83867 0.776561 7.6003 0.765336 8.2032C0.753874 8.80587 0.748291 9.64285 0.748291 10.7144C0.748291 11.7858 0.753874 12.623 0.765395 13.2255C0.77662 13.8286 0.824727 14.5901 0.909358 15.5106C0.994109 16.4316 1.11568 17.2547 1.27396 17.9801C1.45486 18.795 1.84761 19.4813 2.45238 20.0391C3.05728 20.5972 3.76111 20.9208 4.5636 21.0101C7.07315 21.2892 10.8655 21.4287 15.9412 21.4287C21.017 21.4287 24.8091 21.2892 27.3188 21.0101C28.1216 20.9208 28.8223 20.5972 29.4215 20.0391C30.0207 19.4812 30.4105 18.7945 30.5914 17.9801C30.7609 17.2547 30.8881 16.4316 30.9731 15.5106C31.0576 14.5901 31.1056 13.8282 31.117 13.2255C31.1283 12.623 31.134 11.7858 31.134 10.7144C31.134 9.64285 31.1284 8.80587 31.117 8.2032ZM21.9438 11.6184L13.2622 16.9754C13.1039 17.087 12.9115 17.1428 12.6856 17.1428C12.5161 17.1428 12.3409 17.098 12.1601 17.0087C11.7871 16.8081 11.6007 16.4954 11.6007 16.0714V5.35739C11.6007 4.93351 11.7872 4.62086 12.1601 4.42003C12.5445 4.21884 12.9118 4.2301 13.2622 4.45351L21.9438 9.81055C22.2828 9.99994 22.4523 10.3015 22.4523 10.7144C22.4523 11.1272 22.2828 11.4289 21.9438 11.6184Z" fill="#828282"/>
</svg>
