<svg width="24" height="24" viewBox="0 0 24 24" fill="none" xmlns="http://www.w3.org/2000/svg">
<path d="M21.1882 0H2.95679C1.52432 0 0.352295 1.02857 0.352295 2.28571V18.2857C0.352295 19.5429 1.52432 20.5714 2.95679 20.5714H8.16577L12.0725 24L15.9793 20.5714H21.1882C22.6207 20.5714 23.7927 19.5429 23.7927 18.2857V2.28571C23.7927 1.02857 22.6207 0 21.1882 0ZM13.3748 18.2857H10.7703V16H13.3748V18.2857ZM16.1095 9.48571L14.9375 10.5143C13.8957 11.3143 13.3748 12 13.3748 13.7143H10.7703V13.1429C10.7703 11.8857 11.2912 10.7429 12.333 9.94286L13.8957 8.45714C14.4166 8.11429 14.6771 7.54286 14.6771 6.85714C14.6771 5.6 13.505 4.57143 12.0726 4.57143C10.6401 4.57143 9.46807 5.6 9.46807 6.85714H6.86358C6.86358 4.34286 9.20762 2.28571 12.0726 2.28571C14.9375 2.28571 17.2816 4.34286 17.2816 6.85714C17.2815 7.88571 16.7606 8.8 16.1095 9.48571Z" fill="#828282"/>
</svg>
