<svg width="51" height="46" viewBox="0 0 51 46" fill="none" xmlns="http://www.w3.org/2000/svg">
<path d="M25.4446 45.5592C24.6002 45.5592 23.8764 45.2375 23.2733 44.6343L6.70632 28.2686C6.58569 28.1881 6.30427 27.9066 5.94237 27.5447C5.62068 27.1828 5.09794 26.5796 4.37414 25.6547C3.65035 24.7299 3.00693 23.8051 2.44397 22.8401C1.88102 21.8348 1.35832 20.6284 0.916 19.2612C0.47368 17.8538 0.232422 16.4465 0.232422 15.0794C0.232422 10.7366 1.51912 7.23818 4.0122 4.70489C6.50528 2.1716 10.0037 0.925049 14.3062 0.925049C15.5528 0.925049 16.8395 1.12612 18.1263 1.56844C19.3728 2.01076 20.5791 2.57368 21.6246 3.29748C22.6299 3.98107 23.5145 4.62448 24.2785 5.22765C24.6807 5.54934 25.0425 5.87098 25.4044 6.19267C25.7663 5.87098 26.1684 5.50912 26.5303 5.22765C27.2541 4.62448 28.1388 3.98107 29.1843 3.29748C30.27 2.57368 31.4361 1.97055 32.6826 1.56844C33.9694 1.12612 35.2561 0.925049 36.5026 0.925049C40.8454 0.925049 44.3036 2.21181 46.7966 4.70489C49.2897 7.19796 50.5765 10.6964 50.5765 15.0794C50.5765 19.4624 48.4051 23.9257 44.1025 28.3087L27.5356 44.6746C27.0531 45.2375 26.2891 45.5592 25.4446 45.5592Z" fill="#FF0B0B"/>
</svg>
