<svg width="20" height="27" viewBox="0 0 20 27" fill="none" xmlns="http://www.w3.org/2000/svg">
<path d="M10.3277 0C4.9943 0 0.655273 4.32144 0.655273 9.63318C0.655273 16.2252 9.31116 25.9027 9.67969 26.3115C10.0258 26.6954 10.6302 26.6948 10.9757 26.3115C11.3443 25.9027 20.0001 16.2252 20.0001 9.63318C20 4.32144 15.6611 0 10.3277 0ZM10.3277 14.4799C7.64434 14.4799 5.46132 12.3057 5.46132 9.63318C5.46132 6.96069 7.64439 4.78651 10.3277 4.78651C13.011 4.78651 15.1941 6.96074 15.1941 9.63323C15.1941 12.3057 13.011 14.4799 10.3277 14.4799Z" fill="url(#paint0_linear)"/>
<defs>
<linearGradient id="paint0_linear" x1="19.8047" y1="24.6992" x2="-0.796767" y2="23.1858" gradientUnits="userSpaceOnUse">
<stop stop-color="#D3A01D"/>
<stop offset="1" stop-color="#F2C94C"/>
</linearGradient>
</defs>
</svg>
