<svg width="27" height="19" viewBox="0 0 27 19" fill="none" xmlns="http://www.w3.org/2000/svg">
<path d="M13.1213 12.9121L9.92642 10.1157L0.791992 17.946C1.12402 18.2541 1.57226 18.4459 2.06661 18.4459H24.1759C24.6684 18.4459 25.1148 18.2541 25.445 17.946L16.3161 10.1157L13.1213 12.9121Z" fill="url(#paint0_linear)"/>
<path d="M25.4507 0.499885C25.1187 0.189993 24.6723 0 24.1761 0H2.06682C1.57432 0 1.12793 0.191838 0.795898 0.503574L13.1215 11.0676L25.4507 0.499885Z" fill="url(#paint1_linear)"/>
<path d="M0.208984 1.61938V16.9443L9.12391 9.36852L0.208984 1.61938Z" fill="url(#paint2_linear)"/>
<path d="M17.1182 9.36868L26.0331 16.9444V1.61401L17.1182 9.36868Z" fill="url(#paint3_linear)"/>
<defs>
<linearGradient id="paint0_linear" x1="25.196" y1="17.8509" x2="0.965179" y2="10.6074" gradientUnits="userSpaceOnUse">
<stop stop-color="#D3A01D"/>
<stop offset="1" stop-color="#F2C94C"/>
</linearGradient>
<linearGradient id="paint1_linear" x1="25.2017" y1="10.277" x2="0.0757807" y2="4.62326" gradientUnits="userSpaceOnUse">
<stop stop-color="#D3A01D"/>
<stop offset="1" stop-color="#F2C94C"/>
</linearGradient>
<linearGradient id="paint2_linear" x1="9.03386" y1="15.8496" x2="-0.478568" y2="15.2907" gradientUnits="userSpaceOnUse">
<stop stop-color="#D3A01D"/>
<stop offset="1" stop-color="#F2C94C"/>
</linearGradient>
<linearGradient id="paint3_linear" x1="25.943" y1="15.8494" x2="16.4306" y2="15.2906" gradientUnits="userSpaceOnUse">
<stop stop-color="#D3A01D"/>
<stop offset="1" stop-color="#F2C94C"/>
</linearGradient>
</defs>
</svg>
