<svg width="27" height="26" viewBox="0 0 27 26" fill="none" xmlns="http://www.w3.org/2000/svg">
<path d="M0.942268 20.0377C0.888468 20.4502 1.01408 20.8088 1.31857 21.1136L4.89345 24.6638C5.05472 24.8431 5.26523 24.9956 5.52506 25.121C5.78489 25.2466 6.04019 25.3273 6.29097 25.3631C6.30889 25.3631 6.36278 25.3677 6.45242 25.3767C6.54188 25.3856 6.65836 25.3901 6.80171 25.3901C7.14226 25.3901 7.69332 25.3319 8.45489 25.2153C9.21645 25.0987 10.1482 24.8117 11.2501 24.3546C12.3524 23.8974 13.6022 23.2114 14.9998 22.297C16.3975 21.3827 17.8848 20.1274 19.4617 18.5315C20.716 17.2943 21.7554 16.1109 22.5796 14.9813C23.4039 13.8516 24.0669 12.8071 24.5687 11.8478C25.0704 10.8885 25.4468 10.0189 25.6976 9.23888C25.9485 8.45888 26.1187 7.78648 26.2083 7.22165C26.2979 6.65683 26.3338 6.21304 26.3158 5.89029C26.2979 5.56753 26.289 5.38822 26.289 5.35236C26.2531 5.10133 26.1725 4.84582 26.047 4.58582C25.9216 4.32582 25.7693 4.11513 25.5901 3.95376L22.0152 0.376548C21.7644 0.125516 21.4777 0 21.1551 0C20.9222 0 20.7161 0.0672407 20.5369 0.201722C20.3577 0.336204 20.2054 0.502064 20.08 0.699304L17.2039 6.15925C17.0427 6.44614 16.9979 6.75993 17.0695 7.10062C17.1412 7.44131 17.2935 7.7282 17.5265 7.9613L18.8435 9.27922C18.8794 9.31508 18.9107 9.37336 18.9376 9.45405C18.9645 9.53474 18.9779 9.60198 18.9779 9.65577C18.9063 10.0323 18.745 10.4627 18.4941 10.9468C18.2791 11.3771 17.9476 11.9016 17.4996 12.5202C17.0516 13.1388 16.4155 13.8515 15.5912 14.6584C14.7848 15.4833 14.0681 16.1243 13.4409 16.5816C12.8139 17.0387 12.2895 17.375 11.8684 17.5902C11.4473 17.8053 11.1248 17.9353 10.9009 17.98L10.565 18.0473C10.5291 18.0473 10.4708 18.0338 10.3902 18.007C10.3096 17.98 10.2513 17.9487 10.2154 17.9128L8.6834 16.3528C8.36068 16.066 7.98455 15.9225 7.55445 15.9225C7.24973 15.9225 7.00796 15.9763 6.82877 16.0839H6.80193L1.61437 19.1501C1.23794 19.3834 1.01399 19.6791 0.942268 20.0377Z" fill="url(#paint0_linear)"/>
<defs>
<linearGradient id="paint0_linear" x1="1.18663" y1="23.5766" x2="28.0975" y2="20.8583" gradientUnits="userSpaceOnUse">
<stop stop-color="#D3A01D"/>
<stop offset="1" stop-color="#F2C94C"/>
</linearGradient>
</defs>
</svg>
