<svg width="15" height="15" viewBox="0 0 15 15" fill="none" xmlns="http://www.w3.org/2000/svg">
<path fill-rule="evenodd" clip-rule="evenodd" d="M7.2115 0C6.73356 0 6.34611 0.387446 6.34611 0.865385V6.34607H0.865385C0.387446 6.34607 2.08929e-08 6.73351 0 7.21145C-2.08893e-08 7.68939 0.387447 8.07684 0.865386 8.07684H6.34611V14.1346C6.34611 14.6126 6.73356 15 7.2115 15C7.68944 15 8.07688 14.6126 8.07688 14.1346V8.07684H13.5577C14.0356 8.07684 14.4231 7.68939 14.4231 7.21145C14.4231 6.73352 14.0356 6.34607 13.5577 6.34607H8.07688V0.865385C8.07688 0.387446 7.68944 0 7.2115 0Z" fill="white"/>
</svg>
