<svg width="25" height="19" viewBox="0 0 25 19" fill="none" xmlns="http://www.w3.org/2000/svg">
<path d="M20.0778 0H5.31095C2.59714 0 0.388672 2.20843 0.388672 4.92228V13.1261C0.388672 15.8398 2.59714 18.0484 5.31095 18.0484H20.0778C22.7916 18.0484 25.0001 15.8398 25.0001 13.1261V4.92228C25.0001 2.20843 22.7916 0 20.0778 0ZM23.9062 13.1261C23.9062 15.2372 22.1889 16.9545 20.0778 16.9545H5.31095C3.19984 16.9545 1.48251 15.2372 1.48251 13.1261V4.92228C1.48251 2.81117 3.19984 1.09384 5.31095 1.09384H20.0778C22.1889 1.09384 23.9062 2.81117 23.9062 4.92228V13.1261ZM9.1394 13.6516L17.1545 9.0247L9.1394 4.39667V13.6516ZM10.2332 6.29123L14.9668 9.02474L10.2332 11.7571V6.29123Z"/>
</svg>
