<svg width="41" height="30" viewBox="0 0 41 30" fill="none" xmlns="http://www.w3.org/2000/svg">
<path d="M39.1992 24.8984C38.8008 27 37.1016 28.6016 35 28.8984C31.6992 29.3984 26.1992 30 20 30C13.8984 30 8.39844 29.3984 5 28.8984C2.89844 28.6016 1.19922 27 0.800781 24.8984C0.398438 22.6016 0 19.1992 0 15C0 10.8008 0.398438 7.39844 0.800781 5.10156C1.19922 3 2.89844 1.39844 5 1.10156C8.30078 0.601563 13.8008 0 20 0C26.1992 0 31.6016 0.601563 35 1.10156C37.1016 1.39844 38.8008 3 39.1992 5.10156C39.6016 7.39844 40.1016 10.8008 40.1016 15C40 19.1992 39.6016 22.6016 39.1992 24.8984Z" fill="#FF3D00"/>
<path d="M14 22V8L26 15L14 22Z" fill="white"/>
</svg>
