<svg width="35" height="36" viewBox="0 0 35 36" fill="none" xmlns="http://www.w3.org/2000/svg">
<path d="M17.5 35.5C27.165 35.5 35 27.665 35 18C35 8.33502 27.165 0.5 17.5 0.5C7.83502 0.5 0 8.33502 0 18C0 27.665 7.83502 35.5 17.5 35.5Z" fill="#29B6F6"/>
<path d="M26.7063 10.125L23.4285 26.8603C23.4285 26.8603 23.2876 27.625 22.3391 27.625C21.8351 27.625 21.5753 27.3853 21.5753 27.3853L14.4755 21.4939L11.0018 19.743L6.54362 18.5574C6.54362 18.5574 5.75 18.3281 5.75 17.6719C5.75 17.125 6.56637 16.8643 6.56637 16.8643L25.2179 9.45475C25.217 9.45388 25.7875 9.24913 26.2031 9.25C26.4586 9.25 26.75 9.35938 26.75 9.6875C26.75 9.90625 26.7063 10.125 26.7063 10.125Z" fill="white"/>
<path d="M17.1247 23.6919L14.127 26.6442C14.127 26.6442 13.9966 26.7448 13.8225 26.7492C13.7621 26.7509 13.6974 26.7413 13.6309 26.7116L14.4744 21.4922L17.1247 23.6919Z" fill="#B0BEC5"/>
<path d="M23.1599 12.9214C23.012 12.7289 22.739 12.6939 22.5465 12.84L11 19.7499C11 19.7499 12.8428 24.9054 13.1236 25.7979C13.4054 26.6913 13.6311 26.7123 13.6311 26.7123L14.4746 21.4929L23.0776 13.5339C23.2701 13.3878 23.306 13.1139 23.1599 12.9214Z" fill="#CFD8DC"/>
</svg>
