<svg viewBox="0 0 19 19" fill="none" xmlns="http://www.w3.org/2000/svg">
<path d="M2.6438 18.0484H8.53067V11.6327H6.41563V9.51769H8.53067V6.87389C8.53067 5.41608 9.71666 4.23008 11.1745 4.23008H13.8183V6.34513H11.7032C11.1201 6.34513 10.6457 6.8195 10.6457 7.40265V9.51769H13.7228L13.3703 11.6327H10.6457V18.0484H15.4046C16.8624 18.0484 18.0484 16.8624 18.0484 15.4046V2.6438C18.0484 1.18599 16.8624 0 15.4046 0H2.6438C1.18599 0 0 1.18599 0 2.6438V15.4046C0 16.8624 1.18599 18.0484 2.6438 18.0484ZM1.05752 2.6438C1.05752 1.76914 1.76914 1.05752 2.6438 1.05752H15.4046C16.2792 1.05752 16.9908 1.76914 16.9908 2.6438V15.4046C16.9908 16.2792 16.2792 16.9908 15.4046 16.9908H11.7032V12.6903H14.2662L14.9712 8.46017H11.7032V7.40265H14.8758V3.17256H11.1745C9.13351 3.17256 7.47315 4.83293 7.47315 6.87389V8.46017H5.35811V12.6903H7.47315V16.9908H2.6438C1.76914 16.9908 1.05752 16.2792 1.05752 15.4046V2.6438Z"/>
</svg>
