<svg width="19" height="19" viewBox="0 0 19 19" fill="none" xmlns="http://www.w3.org/2000/svg">
<path d="M2.64283 18.0484H15.4036C16.8614 18.0484 18.0474 16.8624 18.0474 15.4046V2.6438C18.0474 1.18599 16.8614 0 15.4036 0H2.64283C1.18502 0 -0.000976562 1.18599 -0.000976562 2.6438V15.4046C-0.000976562 16.8624 1.18502 18.0484 2.64283 18.0484ZM1.05654 2.6438C1.05654 1.76914 1.76817 1.05752 2.64283 1.05752H15.4036C16.2782 1.05752 16.9899 1.76914 16.9899 2.6438V15.4046C16.9899 16.2792 16.2782 16.9908 15.4036 16.9908H2.64283C1.76817 16.9908 1.05654 16.2792 1.05654 15.4046V2.6438Z" />
<path d="M9.02325 13.783C11.6472 13.783 13.7821 11.6481 13.7821 9.02416C13.7821 6.40019 11.6472 4.26532 9.02325 4.26532C6.39927 4.26532 4.2644 6.40019 4.2644 9.02416C4.2644 11.6481 6.39927 13.783 9.02325 13.783ZM9.02325 5.32284C11.0642 5.32284 12.7246 6.9832 12.7246 9.02416C12.7246 11.0651 11.0642 12.7255 9.02325 12.7255C6.98229 12.7255 5.32193 11.0651 5.32193 9.02416C5.32193 6.9832 6.98229 5.32284 9.02325 5.32284Z" />
<path d="M14.3109 5.32286C15.1855 5.32286 15.8972 4.61124 15.8972 3.73658C15.8972 2.86192 15.1855 2.1503 14.3109 2.1503C13.4362 2.1503 12.7246 2.86192 12.7246 3.73658C12.7246 4.61124 13.4362 5.32286 14.3109 5.32286ZM14.3109 3.20782C14.6024 3.20782 14.8397 3.44507 14.8397 3.73658C14.8397 4.02809 14.6024 4.26534 14.3109 4.26534C14.0194 4.26534 13.7821 4.02809 13.7821 3.73658C13.7821 3.44507 14.0194 3.20782 14.3109 3.20782Z" />
</svg>
