<svg width="12" height="20" viewBox="0 0 12 20" fill="none" xmlns="http://www.w3.org/2000/svg">
<path d="M11.3022 6.85935C11.2475 6.74201 11.1298 6.66669 11.0002 6.66669H7.05016L10.9485 0.511681C11.0135 0.409024 11.0175 0.279024 10.9588 0.172696C10.9002 0.0660158 10.7881 0 10.6668 0H5.33348C5.20715 0 5.0918 0.0713283 5.03516 0.184336L0.0351488 10.1844C-0.0165309 10.2874 -0.0108669 10.41 0.0497973 10.5083C0.110813 10.6067 0.217805 10.6667 0.33347 10.6667H3.76113L0.0261253 19.5373C-0.0375467 19.689 0.0191332 19.865 0.159446 19.951C0.21343 19.984 0.27343 20 0.333118 20C0.428782 20 0.523119 19.959 0.58847 19.8817L11.2552 7.21498C11.3388 7.11568 11.3568 6.97701 11.3022 6.85935Z" fill="#F2C94C"/>
</svg>
