<svg width="14" height="19" viewBox="0 0 14 19" fill="#828282" xmlns="http://www.w3.org/2000/svg">
<path d="M1.61612 17.5821C1.63697 18.0801 2.0467 18.473 2.54497 18.473H11.2238C11.7221 18.473 12.1318 18.0801 12.1527 17.5821L12.7725 4.49829H0.996338L1.61612 17.5821ZM8.84767 7.74809C8.84767 7.53961 9.01671 7.37052 9.22528 7.37052H9.82924C10.0377 7.37052 10.2069 7.53957 10.2069 7.74809V15.2232C10.2069 15.4317 10.0378 15.6008 9.82924 15.6008H9.22528C9.0168 15.6008 8.84767 15.4318 8.84767 15.2232V7.74809ZM6.20485 7.74809C6.20485 7.53961 6.3739 7.37052 6.58242 7.37052H7.18638C7.39482 7.37052 7.56395 7.53957 7.56395 7.74809V15.2232C7.56395 15.4317 7.39495 15.6008 7.18638 15.6008H6.58242C6.37394 15.6008 6.20485 15.4318 6.20485 15.2232V7.74809ZM3.56195 7.74809C3.56195 7.53961 3.731 7.37052 3.93952 7.37052H4.54353C4.75201 7.37052 4.9211 7.53957 4.9211 7.74809V15.2232C4.9211 15.4317 4.75205 15.6008 4.54353 15.6008H3.93952C3.73104 15.6008 3.56195 15.4318 3.56195 15.2232V7.74809Z"/>
<path d="M13.1849 0.951636H9.18108V0.194687C9.18108 0.0871907 9.09393 0 8.98639 0H4.78192C4.67443 0 4.58728 0.0871907 4.58728 0.194687V0.951591H0.583382C0.261165 0.951591 0 1.2128 0 1.53502V3.36779H13.7683V1.53506C13.7683 1.21285 13.5071 0.951636 13.1849 0.951636Z"/>
</svg>
