<svg width="44" height="49" viewBox="0 0 44 49" fill="none" xmlns="http://www.w3.org/2000/svg">
<path d="M41.8171 24.2759C41.4202 23.5302 41.0353 22.6041 41.1315 21.9546C41.2759 20.9803 43.1522 20.5233 43.2965 18.0215C43.4769 14.8703 41.0594 13.1143 41.0594 13.1143C41.0594 13.1143 42.7312 10.6967 39.8326 6.51107C36.9339 2.33747 32.6641 0.196543 24.822 0.232626C16.98 0.268709 4.50731 3.49214 1.8973 6.78772C-0.724728 10.0833 -0.893095 21.0164 3.19631 23.2536C4.39908 23.9151 5.40937 24.5526 6.28739 25.2021C6.28739 25.2021 8.38022 26.2003 10.6294 30.3379C12.8665 34.4634 12.5057 44.0494 12.5057 44.0494C12.5057 44.0494 12.2411 48.4154 16.8838 48.7161C21.5264 49.0168 22.2241 38.4084 22.212 34.5235C22.2 32.9599 22.1519 31.6489 22.0918 30.6145C22.1278 30.6265 22.1639 30.6265 22.2 30.6386C22.2 30.6386 38.726 32.7795 40.8429 31.1317C41.6126 30.5303 42.0577 29.7605 42.3223 28.9787C42.8275 27.4151 42.5749 25.7193 41.8171 24.2759Z" fill="#FED428"/>
<path d="M1.88529 6.78793C-0.736736 10.0835 -0.90514 21.0167 3.18427 23.2538C4.38703 23.9153 5.39736 24.5528 6.27538 25.2023C6.27538 25.2023 8.36818 26.2006 10.6174 30.3381C11.8201 32.5512 12.2652 36.3158 12.4335 39.3468C12.7463 38.2042 12.9026 36.845 12.8425 35.1973C12.4456 23.9755 5.22897 22.3637 3.22035 16.3499C1.69283 11.7553 6.23927 5.76557 8.46439 3.19165C5.36125 4.26211 2.89562 5.513 1.88529 6.78793Z" fill="#FFB71D"/>
<path d="M42.3103 28.9667C42.8274 27.4151 42.5749 25.7192 41.8171 24.2879C41.4202 23.5422 41.0353 22.6161 41.1315 21.9666C41.2759 20.9924 43.1522 20.5353 43.2965 18.0336C43.4769 14.8823 41.0594 13.1263 41.0594 13.1263C41.0594 13.1263 42.7312 10.7087 39.8326 6.5231C37.7397 3.51618 34.9493 1.57973 30.6314 0.737793C34.4321 2.27733 36.9098 4.74299 36.9098 4.74299C41.324 6.75161 39.3154 12.7655 39.3154 12.7655C41.324 18.3824 39.3154 21.9907 39.3154 21.9907C40.5181 30.41 34.9012 31.6128 34.9012 31.6128L34.9373 31.7451C37.7518 31.8293 40.1092 31.697 40.8308 31.1437C41.5886 30.5183 42.0456 29.7485 42.3103 28.9667Z" fill="#FFB71D"/>
<path d="M28.9596 31.3481L28.8753 31.1798L18.4474 29.1711C18.4474 29.1711 21.1175 36.9049 20.035 46.515C21.8512 43.2556 22.2 37.2297 22.188 34.5114C22.1759 32.9599 22.1279 31.6368 22.0677 30.6024C22.1038 30.6145 22.1399 30.6145 22.176 30.6265C22.188 30.6265 25.2791 31.0234 28.9596 31.3481Z" fill="#FFB71D"/>
</svg>
