<svg width="43" height="52" viewBox="0 0 43 52" fill="none" xmlns="http://www.w3.org/2000/svg">
<path d="M19.742 1.8013C19.3812 2.41471 19.1286 3.10028 18.9602 3.72572C18.2145 6.63641 17.3245 9.35466 15.7729 11.9767C12.5856 17.3651 5.99441 21.9597 2.60261 25.147C-0.789189 28.3343 -0.584703 37.7159 1.60433 41.3122C3.80539 44.9084 14.5822 49.8879 22.364 50.8862C30.1459 51.8845 35.0292 49.936 38.421 46.1473C41.8128 42.3586 38.9502 39.8448 38.9502 39.8448C38.9502 39.8448 41.5602 38.3895 41.7767 35.2382C41.9451 32.7365 40.1289 32.0509 40.1049 31.0766C40.0928 30.4151 40.586 29.5371 41.0671 28.8515C42.0052 27.5165 42.4623 25.8566 42.1375 24.269C41.9691 23.4631 41.6203 22.6332 40.9348 21.9476C39.0464 20.0593 22.3761 20.1555 22.3761 20.1555C22.3761 20.1555 26.3693 13.3719 25.9723 8.18799C25.804 6.07112 25.6235 2.16213 23.7111 0.730842C21.919 -0.604228 20.584 0.382039 19.742 1.8013Z" fill="#FED428"/>
<path d="M27.4397 51.1027C21.2094 50.5614 13.9807 48.4806 8.19544 43.7778C3.40843 39.8929 1.82079 35.3224 0.124888 31.6299C-0.235942 35.2502 0.353401 39.2313 1.61631 41.3001C3.81737 44.8964 14.5942 49.8758 22.3761 50.8741C24.2163 51.1267 25.9002 51.1869 27.4397 51.1027Z" fill="#FFB71D"/>
<path d="M22.364 20.1554C22.364 20.1554 26.3572 13.3718 25.9603 8.18783C25.7919 6.07097 25.6115 2.16198 23.6991 0.730687C23.3624 0.478106 23.0376 0.33377 22.7369 0.237549C24.2764 2.79944 26.0325 8.83733 19.9224 19.9389L22.364 20.1554Z" fill="#FFB71D"/>
<path d="M38.3007 29.7053C38.3007 29.7053 40.2612 32.4477 38.6976 35.9597C37.134 39.4838 37.134 39.4838 37.134 39.4838C37.134 39.4838 39.4794 40.2656 37.9158 43.7897C37.1821 45.4495 36.5807 47.2657 35.4742 48.697C36.5687 47.9874 37.555 47.1334 38.421 46.1471C41.8128 42.3584 38.9502 39.8446 38.9502 39.8446C38.9502 39.8446 41.5602 38.3893 41.7767 35.2381C41.9451 32.7363 40.1289 32.0507 40.1048 31.0765C40.0928 30.4149 40.586 29.537 41.0671 28.8514C42.0052 27.5163 42.4623 25.8565 42.1375 24.2688C41.9691 23.463 41.6203 22.6331 40.9347 21.9475C39.0464 20.0591 22.3761 20.1554 22.3761 20.1554L36.7491 21.1056C36.7371 21.1056 41.4279 25.0145 38.3007 29.7053Z" fill="#FFB71D"/>
</svg>
