<svg width="73" height="74" viewBox="0 0 73 74" fill="none" xmlns="http://www.w3.org/2000/svg">
<path d="M54.4985 55.0819C64.5314 45.049 64.5314 28.7825 54.4985 18.7496C44.4656 8.7167 28.1991 8.71672 18.1662 18.7496C8.13326 28.7825 8.13325 45.049 18.1662 55.0819C28.199 65.1148 44.4656 65.1148 54.4985 55.0819Z" fill="#FFB71D"/>
<path d="M62.0301 36.9183C62.0301 23.9646 52.432 13.272 39.9594 11.5039C27.6671 13.272 19.0673 23.9525 19.0673 36.9183C19.0673 49.8842 27.6671 60.5647 39.9594 62.3328C52.432 60.5647 62.0301 49.8842 62.0301 36.9183Z" fill="#FED428"/>
<path d="M22.2306 31.9992C22.2306 31.9992 31.4678 30.9167 33.9095 30.9167C33.9095 30.9167 33.3682 26.5747 27.1138 25.7568L30.0967 28.4751C30.1087 28.4631 24.131 28.7397 22.2306 31.9992Z" fill="#821E1E"/>
<path d="M55.0901 31.9992C55.0901 31.9992 45.8529 30.9167 43.4113 30.9167C43.4113 30.9167 43.9525 26.5747 50.2069 25.7568L47.2241 28.4751C47.212 28.4631 53.1898 28.7397 55.0901 31.9992Z" fill="#821E1E"/>
<path d="M20.8715 39.8769C20.8715 39.8769 39.6106 36.6174 55.3668 39.8769C55.3668 39.8769 54.5489 55.585 38.2514 55.8977C24.1309 56.1743 20.8715 39.8769 20.8715 39.8769Z" fill="#821E1E"/>
<path d="M23.3492 40.2501C23.5296 40.8635 24.8045 44.2192 31.4678 44.2192C38.8047 44.2192 46.1295 44.4958 49.9303 44.2192C52.2035 44.0508 53.2138 42.0542 53.6589 40.4666C42.0281 38.3016 29.0743 39.5164 23.3492 40.2501Z" fill="#C7A7A7"/>
<path d="M28.6173 40.9837C28.7375 41.3085 29.5675 43.0525 33.9094 43.0525C38.6844 43.0525 43.4714 43.1968 45.9491 43.0525C47.4285 42.9683 48.0901 41.9219 48.3787 41.092C40.8013 39.9734 32.3579 40.6109 28.6173 40.9837Z" fill="white"/>
<path d="M43.0745 54.4424C42.9302 50.762 38.8528 47.8152 33.8252 47.8152C31.0469 47.8152 28.5571 48.7293 26.8492 50.1606C29.4833 52.939 33.2239 55.128 38.4679 55.0198C40.1759 54.9837 41.6913 54.7792 43.0745 54.4424Z" fill="#F74B4B"/>
</svg>
