<svg width="62" height="62" viewBox="0 0 62 62" fill="none" xmlns="http://www.w3.org/2000/svg">
<path d="M55.8807 36.7998C59.1115 22.9842 50.5307 9.1653 36.7151 5.93451C22.8995 2.70373 9.08064 11.2845 5.84986 25.1001C2.61907 38.9157 11.1998 52.7345 25.0154 55.9653C38.831 59.1961 52.6499 50.6154 55.8807 36.7998Z" fill="#FFB71D"/>
<path d="M56.5687 30.9186C56.5687 17.9648 46.9706 7.27222 34.4979 5.50415C22.2056 7.27222 13.6059 17.9528 13.6059 30.9186C13.6059 43.8844 22.2056 54.565 34.4979 56.333C46.9586 54.565 56.5687 43.8844 56.5687 30.9186Z" fill="#FED428"/>
<path d="M23.7331 37.5701C19.4393 37.3657 24.7314 31.6525 25.8861 30.4858C28.9892 27.3466 33.1869 25.1215 37.6973 26.1559C40.8605 26.8775 43.6389 28.7538 45.7799 31.1474C46.6098 32.0735 47.8847 33.5649 47.8967 34.888C47.8967 35.5976 47.0668 37.0409 46.297 37.2574C44.7695 37.6784 44.6011 36.211 44.0238 35.0563C42.5324 32.1216 40.5478 29.3312 37.168 28.4893C33.3312 27.6112 30.1799 30.0529 28.1232 33.0477C27.3294 34.2024 26.9325 36.1509 25.7057 37.0529C25.2366 37.4258 24.4668 37.6062 23.7331 37.5701Z" fill="#821E1E"/>
<path d="M28.2916 22.4632C28.2916 24.1711 26.5476 25.5543 24.3947 25.5543C22.2417 25.5543 20.4977 24.1711 20.4977 22.4632C20.4977 20.7552 22.2417 19.3721 24.3947 19.3721C26.5476 19.3721 28.2916 20.7552 28.2916 22.4632Z" fill="#821E1E"/>
<path d="M28.2916 22.4631C28.2916 22.4631 29.0855 19.5645 25.5012 17.171C21.9049 14.7775 17.5149 14.3805 18.3207 15.5713C19.1145 16.774 22.9153 17.7724 23.3122 19.5645" fill="#821E1E"/>
<path d="M37.3725 22.4632C37.3725 24.1711 39.1165 25.5543 41.2695 25.5543C43.4224 25.5543 45.1664 24.1711 45.1664 22.4632C45.1664 20.7552 43.4224 19.3721 41.2695 19.3721C39.1045 19.3721 37.3725 20.7552 37.3725 22.4632Z" fill="#821E1E"/>
<path d="M37.3725 22.4631C37.3725 22.4631 36.5787 19.5645 40.1629 17.171C43.7592 14.7775 48.1493 14.3805 47.3434 15.5713C46.5496 16.774 42.7489 17.7724 42.3519 19.5645" fill="#821E1E"/>
</svg>
