<svg width="62" height="63" viewBox="0 0 62 63" fill="none" xmlns="http://www.w3.org/2000/svg">
<path d="M55.9706 37.9542C59.2965 24.1613 50.8112 10.2838 37.0183 6.9579C23.2253 3.63204 9.34784 12.1173 6.02199 25.9102C2.69614 39.7031 11.1814 53.5807 24.9743 56.9065C38.7672 60.2324 52.6447 51.7471 55.9706 37.9542Z" fill="#FFB71D"/>
<path d="M56.7041 31.9186C56.7041 18.9648 47.106 8.27222 34.6333 6.50415C22.341 8.27222 13.7413 18.9528 13.7413 31.9186C13.7413 44.8844 22.341 55.565 34.6333 57.333C47.106 55.565 56.7041 44.8844 56.7041 31.9186Z" fill="#FED428"/>
<path d="M28.7999 35.5149C28.7999 38.1129 27.0198 40.2297 24.8188 40.2297C22.6177 40.2297 20.8256 38.1249 20.8256 35.5149C20.8256 32.9169 22.6057 30.8 24.8188 30.8C27.0318 30.8 28.7999 32.9049 28.7999 35.5149Z" fill="#821E1E"/>
<path d="M48.7418 36.5974C48.7418 39.1954 46.9617 41.3123 44.7486 41.3123C42.5475 41.3123 40.7674 39.2074 40.7674 36.5974C40.7674 33.9995 42.5475 31.8826 44.7486 31.8826C46.9496 31.8826 48.7418 33.9995 48.7418 36.5974Z" fill="#821E1E"/>
<path d="M41.4891 52.3053C40.8877 52.3053 40.3585 51.8482 40.2984 51.2348C40.2863 51.1747 39.8172 48.8293 34.7656 47.9392C29.3652 46.9891 25.4442 51.8122 25.3961 51.8603C24.9871 52.3775 24.2174 52.4617 23.7002 52.0527C23.183 51.6438 23.0988 50.886 23.5077 50.3568C23.7002 50.1163 28.3789 41.9735 35.1625 43.1643C42.1266 44.3911 42.6558 50.8018 42.6678 50.9702C42.74 51.6317 42.2709 52.2211 41.6094 52.2933C41.5733 52.2933 41.5252 52.3053 41.4891 52.3053Z" fill="#821E1E"/>
<path d="M13.9337 28.3827C13.3323 28.3827 12.8031 27.9256 12.743 27.3122C12.6708 26.6507 13.1519 26.0613 13.8134 25.9892C13.8856 25.9771 20.4647 25.2555 24.8548 22.2125C25.3961 21.8396 26.1538 21.9719 26.5267 22.5132C26.8995 23.0544 26.7672 23.8122 26.226 24.185C21.3187 27.5768 14.3667 28.3466 14.066 28.3827C14.0299 28.3706 13.9818 28.3827 13.9337 28.3827Z" fill="#821E1E"/>
<path d="M52.3621 30.1865C52.3019 30.1865 52.2538 30.1865 52.1937 30.1745C46.6369 29.3807 43.1609 24.0644 43.0166 23.8359C42.6557 23.2826 42.8241 22.5369 43.3774 22.1761C43.9307 21.8153 44.6764 21.9716 45.0372 22.5369C45.0733 22.585 48.0802 27.1676 52.5304 27.793C53.192 27.8892 53.649 28.4906 53.5528 29.1521C53.4686 29.7535 52.9514 30.1865 52.3621 30.1865Z" fill="#821E1E"/>
<path d="M49.271 52.7986C49.271 55.0598 47.5751 56.888 45.4823 56.888C43.3895 56.888 41.6935 55.0598 41.6935 52.7986C41.6935 50.5374 45.4823 45.3174 45.4823 45.3174C45.4823 45.3174 49.271 50.5374 49.271 52.7986Z" fill="#65C2EC"/>
</svg>
