<svg width="68" height="68" viewBox="0 0 68 68" fill="none" xmlns="http://www.w3.org/2000/svg">
<path d="M43.4 57.6588C56.509 52.2288 62.734 37.1998 57.304 24.0908C51.8739 10.9818 36.845 4.75677 23.736 10.1868C10.627 15.6169 4.40192 30.6457 9.83197 43.7548C15.262 56.8638 30.2909 63.0889 43.4 57.6588Z" fill="#FFB71D"/>
<path d="M59.2535 33.9188C59.2535 20.965 49.6554 10.2725 37.1827 8.50439C24.8904 10.2725 16.2906 20.953 16.2906 33.9188C16.2906 46.8847 24.8904 57.5652 37.1827 59.3333C49.6554 57.5652 59.2535 46.8847 59.2535 33.9188Z" fill="#FED428"/>
<path d="M31.4094 12.5336C30.0022 8.44417 25.5399 6.27919 22.2564 7.4098C19.9711 8.20362 18.5398 10.5009 18.3714 13.2071C16.5673 11.1865 14.0294 10.2483 11.7322 11.0422C8.4486 12.1728 6.28363 16.635 7.69086 20.7244C9.14621 24.9341 12.8507 26.0647 16.1824 27.4359C18.6721 28.4582 21.8234 29.252 24.3131 30.2744C26.0812 27.1712 28.4987 23.8276 30.2548 20.7244C31.662 18.2588 32.516 15.7209 31.4094 12.5336Z" fill="#F74B4B"/>
<path d="M20.1515 12.1369C20.2718 10.2245 21.0296 8.51652 22.2804 7.39795H22.2684C20.6447 7.95122 19.478 9.28628 18.8526 10.9581C19.3096 11.3069 19.7546 11.6918 20.1515 12.1369Z" fill="#F4362C"/>
<path d="M17.9625 26.3655C14.6308 24.9944 10.9263 23.8638 9.47098 19.6541C8.3524 16.4187 9.49503 12.9427 11.648 11.0784C8.42457 12.2571 6.29567 16.6712 7.69088 20.7125C9.14623 24.9222 12.8508 26.0528 16.1824 27.424C18.6721 28.4463 21.8234 29.2402 24.3131 30.2625C24.3251 30.2264 24.3492 30.2023 24.3733 30.1663C22.2444 29.0116 20.0433 27.2195 17.9625 26.3655Z" fill="#D3362C"/>
<path d="M58.7363 23.8998C60.4683 20.4719 59.0971 16.2983 56.3428 14.9031C54.4304 13.9288 52.085 14.446 50.2447 16.0096C50.4131 13.6041 49.4389 11.4151 47.5265 10.4408C44.7842 9.05765 40.5986 10.4168 38.8666 13.8447C37.0865 17.3688 38.6501 20.4358 39.8288 23.3946C40.7188 25.6077 42.1501 28.1095 43.0402 30.3346C46.1072 29.5408 49.7275 29.0236 52.7946 28.2177C55.2482 27.5923 57.3892 26.5699 58.7363 23.8998Z" fill="#F74B4B"/>
<path d="M52.0248 16.4787C53.3238 15.3721 54.8754 14.8068 56.3548 14.903C56.3548 14.903 56.3427 14.903 56.3427 14.891C54.9836 14.2054 53.42 14.2776 51.9647 14.9151C52.0368 15.4323 52.0729 15.9495 52.0248 16.4787Z" fill="#F4362C"/>
<path d="M41.6089 23.8759C40.4181 20.9051 38.8545 17.85 40.6467 14.3259C42.0178 11.6077 44.9285 10.1884 47.4543 10.4169C44.712 9.09389 40.5865 10.465 38.8666 13.8568C37.0865 17.3809 38.6501 20.448 39.8288 23.4068C40.7188 25.6199 42.1501 28.1216 43.0402 30.3468C43.0762 30.3347 43.1003 30.3347 43.1364 30.3227C42.5711 28.2419 42.3546 25.7281 41.6089 23.8759Z" fill="#D3362C"/>
<path d="M21.9196 33.3293C21.9196 33.3293 32.6723 32.9324 44.2309 38.1043C44.2309 38.1043 42.6432 50.4567 30.2908 47.6663C17.9264 44.8759 21.9196 33.3293 21.9196 33.3293Z" fill="#821E1E"/>
<path d="M34.4765 45.8743C34.1637 46.8846 31.9386 47.1011 29.497 46.3554C27.0554 45.6097 25.3354 44.1784 25.6482 43.168C25.9609 42.1577 28.186 41.9412 30.6276 42.6869C33.0572 43.4327 34.7771 44.8639 34.4765 45.8743Z" fill="#F74B4B"/>
</svg>
