<svg width="73" height="74" viewBox="0 0 73 74" fill="none" xmlns="http://www.w3.org/2000/svg">
<path d="M54.4985 55.0846C64.5314 45.0517 64.5314 28.7852 54.4985 18.7523C44.4656 8.71938 28.1991 8.71939 18.1662 18.7523C8.13327 28.7852 8.13326 45.0517 18.1662 55.0846C28.1991 65.1175 44.4656 65.1175 54.4985 55.0846Z" fill="#FFB71D"/>
<path d="M62.0297 36.9186C62.0297 23.9648 52.4316 13.2722 39.9589 11.5042C27.6667 13.2722 19.0669 23.9528 19.0669 36.9186C19.0669 49.8844 27.6667 60.565 39.9589 62.333C52.4316 60.565 62.0297 49.8844 62.0297 36.9186Z" fill="#FED428"/>
<path d="M46.8387 43.8704C46.4178 50.3413 42.4967 55.3569 38.0706 55.0682C33.6444 54.7795 30.3849 49.307 30.8059 42.8361C31.2268 36.3652 35.1478 31.3497 39.574 31.6383C44.0002 31.915 47.2477 37.3996 46.8387 43.8704Z" fill="#821E1E"/>
<path d="M53.8388 28.511C53.8388 31.4939 51.8302 33.9114 49.3525 33.9114C46.8748 33.9114 44.8662 31.4939 44.8662 28.511C44.8662 25.5282 46.8748 23.1106 49.3525 23.1106C51.8302 23.1106 53.8388 25.5282 53.8388 28.511Z" fill="#821E1E"/>
<path d="M33.897 27.4287C33.897 30.4116 31.8884 32.8292 29.4107 32.8292C26.933 32.8292 24.9243 30.4116 24.9243 27.4287C24.9243 24.4459 26.933 22.0283 29.4107 22.0283C31.9004 22.0283 33.897 24.4459 33.897 27.4287Z" fill="#821E1E"/>
<path d="M38.251 53.5527C40.8549 53.5527 42.9658 51.851 42.9658 49.7519C42.9658 47.6528 40.8549 45.9512 38.251 45.9512C35.647 45.9512 33.5361 47.6528 33.5361 49.7519C33.5361 51.851 35.647 53.5527 38.251 53.5527Z" fill="#F74B4B"/>
</svg>
