<svg width="126" height="91" viewBox="0 0 126 91" fill="none" xmlns="http://www.w3.org/2000/svg">
<path d="M14.5651 90.8541C36.4903 88.9496 73.8075 55.5405 89.7254 39.0741V37.2886C47.2035 72.5228 21.9011 82.9185 14.5651 83.712C5.2632 85.1404 1.00011 78.3555 0.0313036 74.7844C-0.633097 88.5925 9.44365 91.2509 14.5651 90.8541Z" fill="url(#paint0_linear)"/>
<path d="M105.937 18.1374L103.531 28.5946L110.988 36.3102L100.299 37.2535L95.2658 46.7301L91.0656 36.8559L80.4974 34.9971L88.5904 27.9512L87.0924 17.3259L96.2944 22.8455L105.937 18.1374Z" fill="url(#paint1_linear)"/>
<path d="M108.305 14.3944L105.27 27.525L105.208 27.7897L105.397 27.985L114.742 37.6603L101.327 38.8619L101.057 38.8861L100.93 39.1252L94.599 51.0311L89.3455 38.6427L89.2393 38.3922L88.9713 38.3454L75.7158 36.029L85.8818 27.1699L86.086 26.992L86.0485 26.7238L84.1858 13.3844L95.7234 20.2997L95.9564 20.4393L96.2003 20.3199L108.305 14.3944Z" stroke="url(#paint2_linear)"/>
<path d="M18.8994 74.5067C37.8781 71.6615 54.9787 56.4939 61.1567 49.2657L60.6294 49.3849C40.4574 66.9765 23.3355 70.6884 17.6489 70.5672C8.36705 71.2191 2.59278 60.5017 0.86588 55.0615C2.3592 72.578 13.5104 75.3235 18.8994 74.5067Z" fill="url(#paint3_linear)"/>
<path d="M20.5754 56.04C30.1479 54.605 38.7731 46.9547 41.8891 43.309L41.6232 43.3691C31.4488 52.2419 22.8129 54.1142 19.9447 54.0531C15.2631 54.3818 12.3507 48.9762 11.4797 46.2323C12.2329 55.0672 17.8573 56.452 20.5754 56.04Z" fill="url(#paint4_linear)"/>
<defs>
<linearGradient id="paint0_linear" x1="88.8191" y1="87.062" x2="-4.58035" y2="71.2699" gradientUnits="userSpaceOnUse">
<stop stop-color="#D3A01D"/>
<stop offset="1" stop-color="#F2C94C"/>
</linearGradient>
<linearGradient id="paint1_linear" x1="99.7103" y1="51.2472" x2="75.217" y2="27.4005" gradientUnits="userSpaceOnUse">
<stop stop-color="#D3A01D"/>
<stop offset="1" stop-color="#F2C94C"/>
</linearGradient>
<linearGradient id="paint2_linear" x1="100.551" y1="58.2964" x2="67.452" y2="26.0883" gradientUnits="userSpaceOnUse">
<stop stop-color="#D3A01D"/>
<stop offset="1" stop-color="#F2C94C"/>
</linearGradient>
<linearGradient id="paint3_linear" x1="64.7442" y1="62.5745" x2="1.23427" y2="65.4542" gradientUnits="userSpaceOnUse">
<stop stop-color="#D3A01D"/>
<stop offset="1" stop-color="#F2C94C"/>
</linearGradient>
<linearGradient id="paint4_linear" x1="43.6986" y1="50.0217" x2="11.6655" y2="51.4741" gradientUnits="userSpaceOnUse">
<stop stop-color="#D3A01D"/>
<stop offset="1" stop-color="#F2C94C"/>
</linearGradient>
</defs>
</svg>
