<svg width="124" height="131" viewBox="0 0 124 131" fill="none" xmlns="http://www.w3.org/2000/svg">
<path d="M83.0672 61.3243L7.21484 52.0698L1.28192 101.196L77.1343 110.45L83.0672 61.3243Z" fill="#F9A825"/>
<path d="M5.01442 70.2146L2.38086 91.997L30.1362 54.8723L17.6231 53.3491L5.01442 70.2146Z" fill="#F57F17"/>
<path d="M45.9996 56.8096L11.8516 102.489L24.3573 104.019L58.5128 58.3401L45.9996 56.8096Z" fill="#F57F17"/>
<path d="M83.0606 61.3338L74.3728 60.269L40.2246 105.948L52.7378 107.479L82.2514 68.0031L83.0606 61.3338Z" fill="#F57F17"/>
<path d="M68.5977 109.417L77.1236 110.459L78.9185 95.6196L68.5977 109.417Z" fill="#F57F17"/>
<path opacity="0.16" d="M83.0682 61.3301L7.21582 52.0757L6.20794 60.4212L82.0603 69.6756L83.0682 61.3301Z" fill="black"/>
<path d="M92.4262 36.3969L4.06445 25.6162L0.961038 51.3132L89.3228 62.0938L92.4262 36.3969Z" fill="#F9A825"/>
<path d="M53.1832 31.6117L43.3027 30.4062L34.2673 105.222L44.1477 106.427L53.1832 31.6117Z" fill="#FF1744"/>
<path d="M48.2646 30.7388C48.2646 30.7388 50.3612 50.5914 62.992 65.3717L65.8683 54.5027C65.8683 54.5027 71.312 57.4677 79.9998 58.5324C79.9998 58.5324 61.9768 46.0219 58.7401 32.883L48.2646 30.7388Z" fill="#FF1744"/>
<path d="M48.2646 30.7388C48.2646 30.7388 49.4637 42.0514 55.4811 53.9556C51.9796 42.8278 54.6572 32.0475 54.6572 32.0475L48.2646 30.7388Z" fill="#E00E40"/>
<path d="M48.2646 30.738C48.2646 30.738 72.5111 43.4555 86.4807 20.0243L79.5878 7.43994L74.1 19.1223C74.1 19.1223 72.9892 30.7676 52.5975 28.2759L48.2646 30.738Z" fill="#FF1744"/>
<path d="M70.6873 33.1268C76.2487 31.4853 81.9204 27.6923 86.4887 20.0248L79.5958 7.44043L74.108 19.1228C74.108 19.1228 72.9972 30.7681 52.6055 28.2764C52.6055 28.2764 61.102 32.7497 70.6873 33.1268Z" fill="#E00E40"/>
<path d="M48.2646 30.7391C48.2646 30.7391 55.8858 3.84745 79.5878 7.44088C79.5878 7.44088 85.0315 12.1064 86.4807 20.0253C86.4807 20.0253 65.3828 14.6499 52.0752 28.8167C52.0752 28.8167 50.7879 29.9405 48.2646 30.7391Z" fill="#FF1744"/>
<path d="M48.2635 30.7381C48.2635 30.7381 41.5031 49.5038 25.7164 60.8165L25.5104 49.5704C25.5104 49.5704 19.5223 51.1453 10.8271 50.0805C10.8271 50.0805 31.2998 42.2726 37.5748 30.2871L48.2635 30.7381Z" fill="#FF1744"/>
<path d="M48.2638 30.7379C48.2638 30.7379 44.409 41.4369 35.7285 51.5444C41.7828 41.5848 41.746 30.4644 41.746 30.4644L48.2638 30.7379Z" fill="#E00E40"/>
<path d="M48.2636 30.7382C48.2636 30.7382 21.6925 37.2522 13.7109 11.1444L23.3992 0.585938L25.9445 13.2443C25.9445 13.2443 24.2452 24.8157 44.6443 27.3074L48.2636 30.7382Z" fill="#FF1744"/>
<path d="M25.9366 27.6624C20.927 24.7344 16.3293 19.6844 13.7178 11.1444L23.4061 0.585938L25.9513 13.2443C25.9513 13.2443 24.252 24.8158 44.6511 27.3075C44.6438 27.3001 35.3307 29.607 25.9366 27.6624Z" fill="#E00E40"/>
<path d="M48.2636 30.7383C48.2636 30.7383 47.2631 2.79671 23.3992 0.585938C23.3992 0.585938 17.0066 3.80228 13.7109 11.1444C13.7109 11.1444 35.4709 11.004 45.0194 27.9582C45.0268 27.9582 46.0125 29.3556 48.2636 30.7383Z" fill="#FF1744"/>
<path d="M44.6445 27.2998C44.6445 27.2998 48.1903 28.1205 52.5968 28.2684L48.2639 30.7306L44.6445 27.2998Z" fill="#FF1744"/>
<path d="M70.7906 94.6076L14.7822 84.3364L8.32253 119.921L64.3309 130.193L70.7906 94.6076Z" fill="#FF1744"/>
<path d="M57.5391 128.921L66.4845 118.333L66.8817 116.167L56.2959 128.692L57.5391 128.921Z" fill="#FAFAFA"/>
<path d="M49.94 127.531L68.8898 105.106L69.6696 100.78L47.4609 127.073L49.94 127.531Z" fill="#FAFAFA"/>
<path d="M39.6924 125.654L66.5871 93.8156L65.3439 93.5938L38.4492 125.424L39.6924 125.654Z" fill="#FAFAFA"/>
<path d="M32.0933 124.256L58.9882 92.4257L56.5091 91.9673L29.6143 123.805L32.0933 124.256Z" fill="#FAFAFA"/>
<path d="M21.8448 122.378L48.7395 90.5476L47.4963 90.3184L20.6016 122.149L21.8448 122.378Z" fill="#FAFAFA"/>
<path d="M14.2462 120.988L41.141 89.1497L38.6619 88.6987L11.7598 120.529L14.2462 120.988Z" fill="#FAFAFA"/>
<path d="M9.70801 112.351L30.8942 87.2707L29.651 87.0415L10.0979 110.184L9.70801 112.351Z" fill="#FAFAFA"/>
<path d="M12.1064 99.1242L23.2954 85.8818L20.8163 85.4233L12.8936 94.7988L12.1064 99.1242Z" fill="#FAFAFA"/>
<path opacity="0.16" d="M70.7876 94.6076L14.7793 84.3364L13.682 90.3812L69.6903 100.652L70.7876 94.6076Z" fill="black"/>
<path d="M76.669 82.2988L13.5898 70.731L11.2381 83.6861L74.3172 95.254L76.669 82.2988Z" fill="#FF1744"/>
<path d="M48.8911 74.8838L42.1895 73.6548L32.9713 124.435L39.6729 125.664L48.8911 74.8838Z" fill="#F5F5F5"/>
<path d="M45.584 74.0742C45.584 74.0742 46.2093 87.7308 54.2498 98.3559L56.6553 91.0433C56.6553 91.0433 60.2525 93.2984 66.1523 94.3779C66.1523 94.3779 54.338 85.0912 52.6608 75.9671L45.584 74.0742Z" fill="#FAFAFA"/>
<path d="M45.584 74.0742C45.584 74.0742 45.9444 81.86 49.5784 90.2447C47.6364 82.4959 49.9021 75.2277 49.9021 75.2277L45.584 74.0742Z" fill="#E0E0E0"/>
<path d="M45.584 74.0735C45.584 74.0735 61.6428 83.7595 72.1403 68.3137L67.9398 59.4263L63.7173 67.1898C63.7173 67.1898 62.4888 75.1013 48.6442 72.5652L45.584 74.0735Z" fill="#FAFAFA"/>
<path d="M60.8119 76.6249C64.6813 75.7302 68.7126 73.3716 72.1406 68.3216L67.9402 59.4341L63.7176 67.1977C63.7176 67.1977 62.4891 75.1092 48.6445 72.573C48.6519 72.5657 54.2795 75.9816 60.8119 76.6249Z" fill="#E0E0E0"/>
<path d="M45.585 74.0742C45.585 74.0742 51.8893 56.0035 67.9409 59.4342C67.9409 59.4342 71.4719 62.8429 72.1414 68.3218C72.1414 68.3218 57.9363 63.7819 48.2627 72.9208C48.27 72.9208 47.3431 73.6306 45.585 74.0742Z" fill="#FAFAFA"/>
<path d="M45.5873 74.0739C45.5873 74.0739 40.2025 86.6288 28.9546 93.7121L29.271 86.0151C29.271 86.0151 25.1146 86.8432 19.2148 85.7637C19.2148 85.7637 33.5303 81.2608 38.3045 73.3271L45.5873 74.0739Z" fill="#FAFAFA"/>
<path d="M45.588 74.0726C45.588 74.0726 42.5204 81.2299 36.1719 87.781C40.7181 81.2152 41.1374 73.6216 41.1374 73.6216L45.588 74.0726Z" fill="#E0E0E0"/>
<path d="M45.5874 74.074C45.5874 74.074 27.1598 77.4383 22.7607 59.264L29.8154 52.4395L31.0439 61.2012C31.0439 61.2012 29.4182 69.0388 43.2554 71.5823L45.5874 74.074Z" fill="#FAFAFA"/>
<path d="M30.4481 71.0573C27.1451 68.8465 24.2026 65.2087 22.7607 59.264L29.8155 52.4395L31.044 61.2012C31.044 61.2012 29.4182 69.0388 43.2555 71.5823C43.2555 71.5749 36.7893 72.7727 30.4481 71.0573Z" fill="#E0E0E0"/>
<path d="M45.5875 74.074C45.5875 74.074 46.0362 54.9312 29.8155 52.4395C29.8155 52.4395 25.3134 54.3767 22.7607 59.264C22.7607 59.264 37.6426 60.0626 43.4836 72.0407C43.4836 72.0407 44.1015 73.0389 45.5875 74.074Z" fill="#FAFAFA"/>
<path d="M43.2549 71.5752C43.2549 71.5752 45.6457 72.2774 48.6544 72.5657L45.5942 74.0735L43.2549 71.5752Z" fill="#FAFAFA"/>
<path d="M119.895 93.304L66.1367 96.1934L67.9539 130.35L121.712 127.46L119.895 93.304Z" fill="#930066"/>
<path d="M115.206 127.792L121.128 116.08L121.018 114.002L114.015 127.858L115.206 127.792Z" fill="#CE29A3"/>
<path d="M107.916 128.183L120.451 103.384L120.231 99.2358L105.525 128.316L107.916 128.183Z" fill="#CE29A3"/>
<path d="M98.0745 128.715L115.877 93.5054L114.678 93.5719L96.8828 128.782L98.0745 128.715Z" fill="#CE29A3"/>
<path d="M90.7844 129.107L108.579 93.897L106.196 94.0227L88.3936 129.232L90.7844 129.107Z" fill="#CE29A3"/>
<path d="M80.9427 129.638L98.745 94.4287L97.5533 94.4879L79.751 129.698L80.9427 129.638Z" fill="#CE29A3"/>
<path d="M73.651 130.032L91.4532 94.8218L89.0624 94.9475L71.2676 130.157L73.651 130.032Z" fill="#CE29A3"/>
<path d="M67.5928 123.08L81.6139 95.3457L80.4222 95.4122L67.4824 121.003L67.5928 123.08Z" fill="#CE29A3"/>
<path d="M66.9121 110.393L74.32 95.7388L71.9365 95.8719L66.6914 106.238L66.9121 110.393Z" fill="#CE29A3"/>
<path opacity="0.16" d="M119.899 93.3055L66.1406 96.1948L66.4494 101.998L120.208 99.1089L119.899 93.3055Z" fill="black"/>
<path d="M122.631 80.6843L62.0781 83.939L62.7396 96.3729L123.293 93.1183L122.631 80.6843Z" fill="#BF007B"/>
<path d="M95.4645 79.9827L89.0293 80.3286L91.6228 129.075L98.0579 128.729L95.4645 79.9827Z" fill="#FF1744"/>
<path d="M92.248 79.9668C92.248 79.9668 95.8011 92.3885 105.511 100.396L106.129 93.1353C106.129 93.1353 109.933 94.4145 115.59 94.1113C115.59 94.1113 102.694 88.1666 99.163 80.1516L92.248 79.9668Z" fill="#FF1744"/>
<path d="M92.248 79.9668C92.248 79.9668 94.2784 87.0501 99.4498 93.9634C95.9703 87.2572 96.4779 80.0777 96.4779 80.0777L92.248 79.9668Z" fill="#E00E40"/>
<path d="M92.2471 79.9678C92.2471 79.9678 109.137 85.3431 115.427 68.8178L109.623 61.5718L107.431 69.6385C107.431 69.6385 108.026 77.1877 94.7335 77.9049L92.2471 79.9678Z" fill="#FF1744"/>
<path d="M106.813 78.9627C110.175 77.2917 113.368 74.2306 115.428 68.8256L109.624 61.5796L107.431 69.6464C107.431 69.6464 108.027 77.1956 94.7344 77.9128C94.7344 77.9128 100.656 79.8056 106.813 78.9627Z" fill="#E00E40"/>
<path d="M92.2471 79.9677C92.2471 79.9677 94.1082 61.9563 109.623 61.5718C109.623 61.5718 113.617 63.9304 115.427 68.8178C115.427 68.8178 101.369 67.7752 94.4613 78.3115C94.4613 78.3115 93.7625 79.1766 92.2471 79.9677Z" fill="#FF1744"/>
<path d="M92.2461 79.9678C92.2461 79.9678 90.0319 92.7001 81.2264 101.698L79.836 94.5486C79.836 94.5486 76.1873 96.227 70.5303 96.5301C70.5303 96.5301 82.7197 89.2397 85.3827 80.8846L92.2461 79.9678Z" fill="#FF1744"/>
<path d="M92.2449 79.9673C92.2449 79.9673 90.9797 87.2281 86.5732 94.6516C89.3245 87.6126 88.0592 80.5292 88.0592 80.5292L92.2449 79.9673Z" fill="#E00E40"/>
<path d="M92.2455 79.9673C92.2455 79.9673 76.0247 87.1245 68.0137 71.3682L73.016 63.5381L76.0542 71.3238C76.0542 71.3238 76.2675 78.8951 89.5531 78.1779L92.2455 79.9673Z" fill="#FF1744"/>
<path d="M77.6588 80.5306C74.1351 79.2293 70.6409 76.5305 68.0146 71.377L73.017 63.5469L76.0551 71.3326C76.0551 71.3326 76.2685 78.904 89.554 78.1868C89.554 78.1868 83.8675 80.7081 77.6588 80.5306Z" fill="#E00E40"/>
<path d="M92.2473 79.9671C92.2473 79.9671 88.4882 62.2586 73.0179 63.5378C73.0179 63.5378 69.303 66.3105 68.0156 71.3679C68.0156 71.3679 81.8823 68.817 89.8639 78.5548C89.8712 78.5622 90.6584 79.346 92.2473 79.9671Z" fill="#FF1744"/>
<path d="M89.5537 78.1852C89.5537 78.1852 91.9078 78.3034 94.7326 77.9043L92.2461 79.9665L89.5537 78.1852Z" fill="#FF1744"/>
</svg>
