<svg width="732" height="635" viewBox="0 0 732 635" fill="none" xmlns="http://www.w3.org/2000/svg" xmlns:xlink="http://www.w3.org/1999/xlink">
<g>
  <path d="M88.0672 547.324L12.2148 538.07L6.28192 587.196L82.1343 596.45L88.0672 547.324Z" fill="#F9A825"/>
  <path d="M10.0144 556.215L7.38086 577.997L35.1362 540.872L22.6231 539.349L10.0144 556.215Z" fill="#F57F17"/>
  <path d="M50.9996 542.81L16.8516 588.489L29.3573 590.019L63.5128 544.34L50.9996 542.81Z" fill="#F57F17"/>
  <path d="M88.0606 547.334L79.3728 546.269L45.2246 591.948L57.7378 593.479L87.2514 554.003L88.0606 547.334Z" fill="#F57F17"/>
  <path d="M73.5977 595.417L82.1236 596.459L83.9185 581.62L73.5977 595.417Z" fill="#F57F17"/>
  <path opacity="0.16" d="M88.0682 547.33L12.2158 538.076L11.2079 546.421L87.0603 555.676L88.0682 547.33Z" fill="black"/>
  <path d="M97.4262 522.397L9.06445 511.616L5.96104 537.313L94.3228 548.094L97.4262 522.397Z" fill="#F9A825"/>
  <path d="M58.1832 517.612L48.3027 516.406L39.2673 591.222L49.1477 592.427L58.1832 517.612Z" fill="#FF1744"/>
  <path d="M53.2646 516.739C53.2646 516.739 55.3612 536.591 67.992 551.372L70.8683 540.503C70.8683 540.503 76.312 543.468 84.9998 544.532C84.9998 544.532 66.9768 532.022 63.7401 518.883L53.2646 516.739Z" fill="#FF1744"/>
  <path d="M53.2646 516.739C53.2646 516.739 54.4637 528.051 60.4811 539.956C56.9796 528.828 59.6572 518.048 59.6572 518.048L53.2646 516.739Z" fill="#E00E40"/>
  <path d="M53.2646 516.738C53.2646 516.738 77.5111 529.456 91.4807 506.024L84.5878 493.44L79.1 505.122C79.1 505.122 77.9892 516.768 57.5975 514.276L53.2646 516.738Z" fill="#FF1744"/>
  <path d="M75.6873 519.127C81.2487 517.485 86.9204 513.692 91.4887 506.025L84.5958 493.44L79.108 505.123C79.108 505.123 77.9972 516.768 57.6055 514.276C57.6055 514.276 66.102 518.75 75.6873 519.127Z" fill="#E00E40"/>
  <path d="M53.2646 516.739C53.2646 516.739 60.8858 489.847 84.5878 493.441C84.5878 493.441 90.0315 498.106 91.4807 506.025C91.4807 506.025 70.3828 500.65 57.0752 514.817C57.0752 514.817 55.7879 515.941 53.2646 516.739Z" fill="#FF1744"/>
  <path d="M53.2635 516.738C53.2635 516.738 46.5031 535.504 30.7164 546.816L30.5104 535.57C30.5104 535.57 24.5223 537.145 15.8271 536.081C15.8271 536.081 36.2998 528.273 42.5748 516.287L53.2635 516.738Z" fill="#FF1744"/>
  <path d="M53.2638 516.738C53.2638 516.738 49.409 527.437 40.7285 537.544C46.7828 527.585 46.746 516.464 46.746 516.464L53.2638 516.738Z" fill="#E00E40"/>
  <path d="M53.2636 516.738C53.2636 516.738 26.6925 523.252 18.7109 497.144L28.3992 486.586L30.9445 499.244C30.9445 499.244 29.2452 510.816 49.6443 513.307L53.2636 516.738Z" fill="#FF1744"/>
  <path d="M30.9366 513.662C25.927 510.734 21.3293 505.684 18.7178 497.144L28.4061 486.586L30.9513 499.244C30.9513 499.244 29.252 510.816 49.6511 513.308C49.6438 513.3 40.3307 515.607 30.9366 513.662Z" fill="#E00E40"/>
  <path d="M53.2636 516.738C53.2636 516.738 52.2631 488.797 28.3992 486.586C28.3992 486.586 22.0066 489.802 18.7109 497.144C18.7109 497.144 40.4709 497.004 50.0194 513.958C50.0268 513.958 51.0125 515.356 53.2636 516.738Z" fill="#FF1744"/>
  <path d="M49.6445 513.3C49.6445 513.3 53.1903 514.121 57.5968 514.268L53.2639 516.731L49.6445 513.3Z" fill="#FF1744"/>
  <path d="M75.7906 580.608L19.7822 570.336L13.3225 605.921L69.3309 616.193L75.7906 580.608Z" fill="#FF1744"/>
  <path d="M62.5391 614.921L71.4845 604.333L71.8817 602.167L61.2959 614.692L62.5391 614.921Z" fill="#FAFAFA"/>
  <path d="M54.94 613.531L73.8898 591.106L74.6696 586.78L52.4609 613.073L54.94 613.531Z" fill="#FAFAFA"/>
  <path d="M44.6924 611.654L71.5871 579.816L70.3439 579.594L43.4492 611.424L44.6924 611.654Z" fill="#FAFAFA"/>
  <path d="M37.0933 610.256L63.9882 578.426L61.5091 577.967L34.6143 609.805L37.0933 610.256Z" fill="#FAFAFA"/>
  <path d="M26.8448 608.378L53.7395 576.548L52.4963 576.318L25.6016 608.149L26.8448 608.378Z" fill="#FAFAFA"/>
  <path d="M19.2462 606.988L46.141 575.15L43.6619 574.699L16.7598 606.529L19.2462 606.988Z" fill="#FAFAFA"/>
  <path d="M14.708 598.351L35.8942 573.271L34.651 573.042L15.0979 596.184L14.708 598.351Z" fill="#FAFAFA"/>
  <path d="M17.1064 585.124L28.2954 571.882L25.8163 571.423L17.8936 580.799L17.1064 585.124Z" fill="#FAFAFA"/>
  <path opacity="0.16" d="M75.7876 580.608L19.7793 570.336L18.682 576.381L74.6903 586.652L75.7876 580.608Z" fill="black"/>
  <path d="M81.669 568.299L18.5898 556.731L16.2381 569.686L79.3172 581.254L81.669 568.299Z" fill="#FF1744"/>
  <path d="M53.8911 560.884L47.1895 559.655L37.9713 610.435L44.6729 611.664L53.8911 560.884Z" fill="#F5F5F5"/>
  <path d="M50.584 560.074C50.584 560.074 51.2093 573.731 59.2498 584.356L61.6553 577.043C61.6553 577.043 65.2525 579.298 71.1523 580.378C71.1523 580.378 59.338 571.091 57.6608 561.967L50.584 560.074Z" fill="#FAFAFA"/>
  <path d="M50.584 560.074C50.584 560.074 50.9444 567.86 54.5784 576.245C52.6364 568.496 54.9021 561.228 54.9021 561.228L50.584 560.074Z" fill="#E0E0E0"/>
  <path d="M50.584 560.074C50.584 560.074 66.6428 569.759 77.1403 554.314L72.9398 545.426L68.7173 553.19C68.7173 553.19 67.4888 561.101 53.6442 558.565L50.584 560.074Z" fill="#FAFAFA"/>
  <path d="M65.8119 562.625C69.6813 561.73 73.7126 559.372 77.1406 554.322L72.9402 545.434L68.7176 553.198C68.7176 553.198 67.4891 561.109 53.6445 558.573C53.6519 558.566 59.2795 561.982 65.8119 562.625Z" fill="#E0E0E0"/>
  <path d="M50.585 560.074C50.585 560.074 56.8893 542.003 72.9409 545.434C72.9409 545.434 76.4719 548.843 77.1414 554.322C77.1414 554.322 62.9363 549.782 53.2627 558.921C53.27 558.921 52.3431 559.631 50.585 560.074Z" fill="#FAFAFA"/>
  <path d="M50.5873 560.074C50.5873 560.074 45.2025 572.629 33.9546 579.712L34.271 572.015C34.271 572.015 30.1146 572.843 24.2148 571.764C24.2148 571.764 38.5303 567.261 43.3045 559.327L50.5873 560.074Z" fill="#FAFAFA"/>
  <path d="M50.588 560.073C50.588 560.073 47.5204 567.23 41.1719 573.781C45.7181 567.215 46.1374 559.622 46.1374 559.622L50.588 560.073Z" fill="#E0E0E0"/>
  <path d="M50.5874 560.074C50.5874 560.074 32.1598 563.438 27.7607 545.264L34.8154 538.439L36.0439 547.201C36.0439 547.201 34.4182 555.039 48.2554 557.582L50.5874 560.074Z" fill="#FAFAFA"/>
  <path d="M35.4481 557.057C32.1451 554.846 29.2026 551.209 27.7607 545.264L34.8155 538.439L36.044 547.201C36.044 547.201 34.4182 555.039 48.2555 557.582C48.2555 557.575 41.7893 558.773 35.4481 557.057Z" fill="#E0E0E0"/>
  <path d="M50.5875 560.074C50.5875 560.074 51.0362 540.931 34.8155 538.439C34.8155 538.439 30.3134 540.377 27.7607 545.264C27.7607 545.264 42.6426 546.063 48.4836 558.041C48.4836 558.041 49.1015 559.039 50.5875 560.074Z" fill="#FAFAFA"/>
  <path d="M48.2549 557.575C48.2549 557.575 50.6457 558.277 53.6544 558.566L50.5942 560.074L48.2549 557.575Z" fill="#FAFAFA"/>
  <path d="M124.895 579.304L71.1367 582.193L72.9539 616.35L126.712 613.46L124.895 579.304Z" fill="#930066"/>
  <path d="M120.206 613.792L126.128 602.08L126.018 600.002L119.015 613.858L120.206 613.792Z" fill="#CE29A3"/>
  <path d="M112.916 614.183L125.451 589.384L125.231 585.236L110.525 614.316L112.916 614.183Z" fill="#CE29A3"/>
  <path d="M103.075 614.715L120.877 579.505L119.678 579.572L101.883 614.782L103.075 614.715Z" fill="#CE29A3"/>
  <path d="M95.7844 615.107L113.579 579.897L111.196 580.023L93.3936 615.232L95.7844 615.107Z" fill="#CE29A3"/>
  <path d="M85.9427 615.638L103.745 580.429L102.553 580.488L84.751 615.698L85.9427 615.638Z" fill="#CE29A3"/>
  <path d="M78.651 616.032L96.4532 580.822L94.0624 580.947L76.2676 616.157L78.651 616.032Z" fill="#CE29A3"/>
  <path d="M72.5928 609.08L86.6139 581.346L85.4222 581.412L72.4824 607.003L72.5928 609.08Z" fill="#CE29A3"/>
  <path d="M71.9121 596.393L79.32 581.739L76.9365 581.872L71.6914 592.238L71.9121 596.393Z" fill="#CE29A3"/>
  <path opacity="0.16" d="M124.899 579.305L71.1406 582.195L71.4494 587.998L125.208 585.109L124.899 579.305Z" fill="black"/>
  <path d="M127.631 566.684L67.0781 569.939L67.7396 582.373L128.293 579.118L127.631 566.684Z" fill="#BF007B"/>
  <path d="M100.464 565.983L94.0293 566.329L96.6228 615.075L103.058 614.729L100.464 565.983Z" fill="#FF1744"/>
  <path d="M97.248 565.967C97.248 565.967 100.801 578.389 110.511 586.396L111.129 579.135C111.129 579.135 114.933 580.414 120.59 580.111C120.59 580.111 107.694 574.167 104.163 566.152L97.248 565.967Z" fill="#FF1744"/>
  <path d="M97.248 565.967C97.248 565.967 99.2784 573.05 104.45 579.963C100.97 573.257 101.478 566.078 101.478 566.078L97.248 565.967Z" fill="#E00E40"/>
  <path d="M97.2471 565.968C97.2471 565.968 114.137 571.343 120.427 554.818L114.623 547.572L112.431 555.639C112.431 555.639 113.026 563.188 99.7335 563.905L97.2471 565.968Z" fill="#FF1744"/>
  <path d="M111.813 564.963C115.175 563.292 118.368 560.231 120.428 554.826L114.624 547.58L112.431 555.646C112.431 555.646 113.027 563.196 99.7344 563.913C99.7344 563.913 105.656 565.806 111.813 564.963Z" fill="#E00E40"/>
  <path d="M97.2471 565.968C97.2471 565.968 99.1082 547.956 114.623 547.572C114.623 547.572 118.617 549.93 120.427 554.818C120.427 554.818 106.369 553.775 99.4613 564.311C99.4613 564.311 98.7625 565.177 97.2471 565.968Z" fill="#FF1744"/>
  <path d="M97.2461 565.968C97.2461 565.968 95.0319 578.7 86.2264 587.698L84.836 580.549C84.836 580.549 81.1873 582.227 75.5303 582.53C75.5303 582.53 87.7197 575.24 90.3827 566.885L97.2461 565.968Z" fill="#FF1744"/>
  <path d="M97.2449 565.967C97.2449 565.967 95.9797 573.228 91.5732 580.652C94.3245 573.613 93.0592 566.529 93.0592 566.529L97.2449 565.967Z" fill="#E00E40"/>
  <path d="M97.2455 565.967C97.2455 565.967 81.0247 573.125 73.0137 557.368L78.016 549.538L81.0542 557.324C81.0542 557.324 81.2675 564.895 94.5531 564.178L97.2455 565.967Z" fill="#FF1744"/>
  <path d="M82.6588 566.531C79.1351 565.229 75.6409 562.531 73.0146 557.377L78.017 549.547L81.0551 557.333C81.0551 557.333 81.2685 564.904 94.554 564.187C94.554 564.187 88.8675 566.708 82.6588 566.531Z" fill="#E00E40"/>
  <path d="M97.2473 565.967C97.2473 565.967 93.4882 548.259 78.0179 549.538C78.0179 549.538 74.303 552.311 73.0156 557.368C73.0156 557.368 86.8823 554.817 94.8639 564.555C94.8712 564.562 95.6584 565.346 97.2473 565.967Z" fill="#FF1744"/>
  <path d="M94.5537 564.185C94.5537 564.185 96.9078 564.303 99.7326 563.904L97.2461 565.967L94.5537 564.185Z" fill="#FF1744"/>
</g>

</svg>
