<svg width="99" height="113" viewBox="0 0 99 113" fill="none" xmlns="http://www.w3.org/2000/svg">
<path d="M25.0488 24.8944C24.3623 24.1191 23.6079 23.4205 22.8112 22.756C22.0144 22.0915 21.1753 21.4696 20.2853 20.8988C18.5138 19.7572 16.5559 18.8116 14.4284 18.1897C13.3689 17.883 12.267 17.6444 11.1397 17.5081C10.0124 17.3888 8.85116 17.3292 7.68994 17.4059C5.36751 17.5337 3.03659 18.1045 0.841297 18.9819L4.1046 24.9796C5.45229 23.9402 6.94404 23.0797 8.57991 22.5089C9.40209 22.2193 10.2582 22.0148 11.1397 21.8615C12.0212 21.7167 12.9366 21.6655 13.8605 21.6741C15.7082 21.6911 17.6153 22.0233 19.4801 22.6027C21.3448 23.1905 23.1926 23.9913 24.8878 25.0733L25.0488 24.8944Z" fill="url(#paint0_radial)"/>
<path d="M25.0488 24.8944C24.3623 24.1191 23.6079 23.4205 22.8112 22.756C22.0144 22.0915 21.1753 21.4696 20.2853 20.8988C18.5138 19.7572 16.5559 18.8116 14.4284 18.1897C13.3689 17.883 12.267 17.6444 11.1397 17.5081C10.0124 17.3888 8.85116 17.3292 7.68994 17.4059C5.36751 17.5337 3.03659 18.1045 0.841297 18.9819L4.1046 24.9796C5.45229 23.9402 6.94404 23.0797 8.57991 22.5089C9.40209 22.2193 10.2582 22.0148 11.1397 21.8615C12.0212 21.7167 12.9366 21.6655 13.8605 21.6741C15.7082 21.6911 17.6153 22.0233 19.4801 22.6027C21.3448 23.1905 23.1926 23.9913 24.8878 25.0733L25.0488 24.8944Z" fill="url(#paint1_linear)"/>
<path d="M25.0732 24.9369C24.5731 22.986 24.3697 20.9669 24.3866 19.0075C24.412 17.048 24.6748 15.1227 25.2257 13.3421C25.5054 12.4561 25.836 11.6042 26.2344 10.7949C26.6497 9.99405 27.0989 9.23584 27.6244 8.54577C28.667 7.14861 29.9384 5.98998 31.3369 5.01878L26.6582 0.0605469C25.1579 1.8922 23.9035 3.94535 23.0728 6.13481C22.649 7.22528 22.3439 8.34983 22.115 9.46586C21.8947 10.5904 21.7845 11.715 21.7506 12.8225C21.6912 15.046 21.9964 17.2099 22.5304 19.2545C22.8016 20.2769 23.1321 21.2736 23.522 22.2448C23.9119 23.2075 24.3442 24.1446 24.8697 25.0391L25.0732 24.9369Z" fill="#4E0073"/>
<path d="M26.9716 27.5434L27.0054 27.586C27.0139 27.5945 27.0309 27.6286 27.0139 27.5945C27.0139 27.5775 27.0054 27.5945 27.0054 27.5434C27.0054 27.5093 27.0309 27.4667 27.0817 27.4412C27.1326 27.4241 27.1411 27.4411 27.1411 27.4326C27.1496 27.4326 27.1411 27.4326 27.1411 27.4241L27.1072 27.3986C27.0563 27.356 26.997 27.3048 26.9461 27.2537C26.8359 27.1515 26.7343 27.0407 26.6241 26.93C26.4206 26.7085 26.2172 26.4785 26.0222 26.2399C25.6323 25.7714 25.2679 25.2858 24.9204 24.7831C24.2169 23.7864 23.5896 22.747 23.0048 21.6906C21.8351 19.5693 20.8773 17.3458 20.0636 15.0882C18.4531 10.5644 17.4784 5.86178 16.9444 1.14209L10.3246 2.6926C12.0198 7.5912 14.1812 12.3194 16.919 16.6557C18.2921 18.8196 19.8008 20.8813 21.4875 22.7811C22.3267 23.7267 23.2082 24.6383 24.149 25.4902C24.6152 25.9162 25.0984 26.3251 25.5984 26.7085C25.8442 26.9044 26.0985 27.0833 26.3613 27.2622C26.4884 27.3474 26.624 27.4326 26.7597 27.5178C26.8275 27.5604 26.8953 27.5945 26.9716 27.6371C26.9885 27.6456 27.014 27.6541 27.0394 27.6627C27.0563 27.6712 27.0648 27.6712 27.0902 27.6797C27.0987 27.6797 27.1156 27.6967 27.175 27.6797C27.2343 27.6541 27.2598 27.6115 27.2598 27.5689C27.2598 27.5093 27.2513 27.5263 27.2513 27.5093C27.2174 27.4412 27.2089 27.4497 27.1919 27.4241L27.1411 27.3815L26.9716 27.5434Z" fill="url(#paint2_radial)"/>
<path d="M26.9716 27.5434L27.0054 27.586C27.0139 27.5945 27.0309 27.6286 27.0139 27.5945C27.0139 27.5775 27.0054 27.5945 27.0054 27.5434C27.0054 27.5093 27.0309 27.4667 27.0817 27.4412C27.1326 27.4241 27.1411 27.4411 27.1411 27.4326C27.1496 27.4326 27.1411 27.4326 27.1411 27.4241L27.1072 27.3986C27.0563 27.356 26.997 27.3048 26.9461 27.2537C26.8359 27.1515 26.7343 27.0407 26.6241 26.93C26.4206 26.7085 26.2172 26.4785 26.0222 26.2399C25.6323 25.7714 25.2679 25.2858 24.9204 24.7831C24.2169 23.7864 23.5896 22.747 23.0048 21.6906C21.8351 19.5693 20.8773 17.3458 20.0636 15.0882C18.4531 10.5644 17.4784 5.86178 16.9444 1.14209L10.3246 2.6926C12.0198 7.5912 14.1812 12.3194 16.919 16.6557C18.2921 18.8196 19.8008 20.8813 21.4875 22.7811C22.3267 23.7267 23.2082 24.6383 24.149 25.4902C24.6152 25.9162 25.0984 26.3251 25.5984 26.7085C25.8442 26.9044 26.0985 27.0833 26.3613 27.2622C26.4884 27.3474 26.624 27.4326 26.7597 27.5178C26.8275 27.5604 26.8953 27.5945 26.9716 27.6371C26.9885 27.6456 27.014 27.6541 27.0394 27.6627C27.0563 27.6712 27.0648 27.6712 27.0902 27.6797C27.0987 27.6797 27.1156 27.6967 27.175 27.6797C27.2343 27.6541 27.2598 27.6115 27.2598 27.5689C27.2598 27.5093 27.2513 27.5263 27.2513 27.5093C27.2174 27.4412 27.2089 27.4497 27.1919 27.4241L27.1411 27.3815L26.9716 27.5434Z" fill="#F7487A"/>
<path d="M23.9808 25.3458C23.8367 24.8176 24.4301 24.4002 24.8709 24.7154L98.9258 76.7428C89.4835 91.7112 64.8098 109.142 47.6035 113.001L23.9808 25.3458Z" fill="url(#paint3_linear)"/>
<path d="M45.5507 105.41L42.8215 95.2974C52.5859 98.5688 63.0283 99.6592 73.5471 98.3728C75.0727 98.1854 76.573 97.9469 78.0732 97.6657C72.7842 101.559 67.1307 105.052 61.6128 107.778C56.2051 107.548 50.8398 106.756 45.5507 105.41Z" fill="#4E0073"/>
<path d="M40.2549 85.7312L37.5087 75.5421C47.4934 79.0265 58.2071 80.2022 69.0055 78.8902C77.1679 77.8935 84.9404 75.5251 92.0857 71.9385L98.9258 76.7434C98.3748 77.6208 97.7646 78.5069 97.1119 79.3929C88.6698 83.8059 79.592 86.6257 70.0819 87.7844C60.0294 89.0111 49.9938 88.3211 40.2549 85.7312Z" fill="#F7487A"/>
<path d="M35.2201 66.1276C35.1269 66.1021 35.0421 66.0765 34.9489 66.051L32.1857 55.8022C42.3908 59.4996 53.3842 60.769 64.4624 59.4144C67.1069 59.0907 69.709 58.6221 72.2687 58.0173L81.6602 64.6112C76.4559 66.3917 71.0736 67.6356 65.5388 68.3086C55.3167 69.5524 45.1116 68.8197 35.2201 66.1276Z" fill="#4E0073"/>
<path d="M30.6677 46.645C30.3202 46.5513 29.9811 46.4491 29.6336 46.3468L26.8535 36.0215C33.3292 38.458 40.1354 39.9063 47.0857 40.3237L59.4268 48.9963C49.7302 49.9931 40.0676 49.2008 30.6677 46.645Z" fill="#F7487A"/>
<defs>
<radialGradient id="paint0_radial" cx="0" cy="0" r="1" gradientUnits="userSpaceOnUse" gradientTransform="translate(14.1518 21.6148) rotate(143.758) scale(9.9989 10.0144)">
<stop stop-color="white"/>
<stop offset="1" stop-color="#B8B8BE"/>
</radialGradient>
<linearGradient id="paint1_linear" x1="25.0468" y1="21.2145" x2="0.842994" y2="21.2145" gradientUnits="userSpaceOnUse">
<stop stop-color="#FF9000"/>
<stop offset="0.1652" stop-color="#FFA41C"/>
<stop offset="0.3968" stop-color="#FFBC3D"/>
<stop offset="0.6188" stop-color="#FFCD55"/>
<stop offset="0.825" stop-color="#FFD763"/>
<stop offset="1" stop-color="#FFDB68"/>
</linearGradient>
<radialGradient id="paint2_radial" cx="0" cy="0" r="1" gradientUnits="userSpaceOnUse" gradientTransform="translate(20.5872 15.9896) rotate(143.758) scale(12.4725 12.4917)">
<stop stop-color="white"/>
<stop offset="1" stop-color="#B8B8BE"/>
</radialGradient>
<linearGradient id="paint3_linear" x1="67.1585" y1="49.9198" x2="30.9131" y2="75.2623" gradientUnits="userSpaceOnUse">
<stop stop-color="white"/>
<stop offset="0.2488" stop-color="white"/>
<stop offset="0.3372" stop-color="#E9E9EC"/>
<stop offset="0.4312" stop-color="#CDCED3"/>
<stop offset="0.5614" stop-color="#DDDDE1"/>
<stop offset="0.7789" stop-color="white"/>
<stop offset="0.8521" stop-color="#E9E9EA"/>
<stop offset="1" stop-color="#B2B2B7"/>
</linearGradient>
</defs>
</svg>
