<svg width="45" height="45" viewBox="0 0 45 45" fill="none" xmlns="http://www.w3.org/2000/svg">
<path d="M22.2563 0.320639C10.1606 0.284355 0.306465 10.0796 0.270181 22.1752C0.233897 34.2709 10.0291 44.125 22.1248 44.1613C34.2204 44.1976 44.0745 34.4024 44.1108 22.3067C44.1471 10.2111 34.3519 0.356924 22.2563 0.320639ZM22.2505 2.22675C33.315 2.25995 42.2379 11.2366 42.2047 22.301C42.1715 33.3654 33.1949 42.2884 22.1305 42.2552C11.0661 42.222 2.14311 33.2453 2.1763 22.1809C2.20949 11.1165 11.1861 2.19356 22.2505 2.22675ZM19.2735 11.7187C19.2326 11.726 19.1916 11.7371 19.1543 11.7481C18.7967 11.8103 18.5093 12.0701 18.4077 12.416C18.3061 12.7657 18.4093 13.1383 18.6729 13.3848L27.4919 22.2569L18.6198 31.0759C18.2389 31.4545 18.2371 32.065 18.6157 32.4459C18.9943 32.8268 19.6048 32.8286 19.9857 32.45L29.5449 22.948C29.7315 22.7699 29.8365 22.5208 29.8373 22.2639C29.8381 22.007 29.7346 21.7573 29.549 21.578L20.047 12.0189C19.8503 11.8061 19.564 11.6972 19.2735 11.7187Z" fill="#F2C94C"/>
</svg>
