<svg width="49" height="49" viewBox="0 0 49 49" fill="none" xmlns="http://www.w3.org/2000/svg">
<path d="M24.1909 46.1611C36.2866 46.1611 46.1113 36.3364 46.1113 24.2407C46.1113 12.145 36.2866 2.32029 24.1909 2.32029C12.0952 2.32029 2.27048 12.145 2.27048 24.2407C2.27048 36.3364 12.0952 46.1611 24.1909 46.1611ZM24.1909 44.255C13.1264 44.255 4.17661 35.3052 4.17661 24.2407C4.17661 13.1763 13.1264 4.22641 24.1909 4.22641C35.2554 4.22641 44.2052 13.1763 44.2052 24.2407C44.2052 35.3052 35.2554 44.255 24.1909 44.255ZM27.1394 34.7542C27.1804 34.7467 27.2213 34.7356 27.2586 34.7244C27.616 34.6611 27.9026 34.4005 28.0032 34.0543C28.1037 33.7043 27.9994 33.332 27.7351 33.0863L18.8895 24.2407L27.7351 15.3951C28.1148 15.0154 28.1148 14.4048 27.7351 14.0251C27.3554 13.6453 26.7448 13.6453 26.3651 14.0251L16.8345 23.5557C16.6483 23.7344 16.5441 23.9838 16.5441 24.2407C16.5441 24.4976 16.6483 24.747 16.8345 24.9257L26.3651 34.4563C26.5624 34.6685 26.8491 34.7765 27.1394 34.7542Z" fill="#F2C94C"/>
</svg>
