<svg width="20" height="17" viewBox="0 0 20 17" fill="none" xmlns="http://www.w3.org/2000/svg">
<path d="M0.201729 5.64176L5.6418 0.201804C5.7764 0.0671991 5.93571 -0.00012207 6.11989 -0.00012207C6.30406 -0.00012207 6.46349 0.0671991 6.59799 0.201804C6.73259 0.336484 6.79999 0.495874 6.79999 0.680012V3.39999H9.17997C14.2306 3.39999 17.3294 4.82732 18.477 7.6819C18.8523 8.63095 19.04 9.81046 19.04 11.22C19.04 12.3958 18.5902 13.9931 17.6906 16.0119C17.6694 16.0616 17.6323 16.1464 17.5791 16.2668C17.5259 16.3871 17.4782 16.4933 17.4357 16.5855C17.393 16.6775 17.347 16.7554 17.2974 16.8191C17.2125 16.9395 17.1133 16.9999 16.9999 16.9999C16.8937 16.9999 16.8105 16.9645 16.7502 16.8937C16.6901 16.8229 16.66 16.7342 16.66 16.6283C16.66 16.5643 16.6689 16.4706 16.6866 16.3466C16.7043 16.2225 16.7132 16.1395 16.7132 16.0969C16.7487 15.6155 16.7664 15.1795 16.7664 14.7902C16.7664 14.0748 16.7043 13.4338 16.5805 12.8671C16.4564 12.3004 16.2847 11.81 16.065 11.3955C15.8454 10.981 15.5622 10.6235 15.215 10.3225C14.868 10.0214 14.4944 9.77533 14.0942 9.58405C13.6939 9.39273 13.2229 9.2422 12.681 9.13245C12.1392 9.02267 11.5938 8.94649 11.0448 8.90395C10.4957 8.86142 9.87417 8.84028 9.17997 8.84028H6.79999V11.5603C6.79999 11.7445 6.73274 11.9039 6.59825 12.0384C6.46353 12.1729 6.30421 12.2403 6.12015 12.2403C5.93601 12.2403 5.77659 12.1729 5.6418 12.0384L0.201839 6.59829C0.067234 6.46368 -1.33514e-05 6.30437 -1.33514e-05 6.12019C2.47955e-05 5.93605 0.067234 5.77662 0.201729 5.64176Z" fill="#828282"/>
</svg>
