<svg width="320" height="272" viewBox="0 0 320 272" fill="none" xmlns="http://www.w3.org/2000/svg">
<path d="M330.694 26.7637C331.097 26.6257 331.485 27.0014 331.343 27.3912L326.231 41.3596C326.174 41.5164 326.203 41.6908 326.307 41.8228L335.631 53.5798C335.891 53.9079 335.642 54.3812 335.214 54.3704L319.901 53.985C319.729 53.9806 319.566 54.0608 319.469 54.1979L310.79 66.408C310.548 66.7487 310.005 66.6656 309.884 66.2692L305.531 52.0626C305.482 51.903 305.353 51.7782 305.188 51.7309L290.501 47.5202C290.091 47.4027 290.005 46.878 290.357 46.6438L302.98 38.2491C303.122 38.1548 303.205 37.9975 303.201 37.8312L302.802 23.0187C302.791 22.6053 303.28 22.3642 303.62 22.6158L315.774 31.6342C315.911 31.7355 316.091 31.7631 316.253 31.7076L330.694 26.7637Z" fill="#B8964F"/>
<path d="M326.282 30.9394C326.685 30.8014 327.073 31.1771 326.931 31.5669L323.212 41.7302C323.154 41.8871 323.183 42.0614 323.288 42.1934L330.071 50.7478C330.332 51.0759 330.082 51.5492 329.655 51.5384L318.513 51.258C318.341 51.2536 318.178 51.3338 318.081 51.4709L311.766 60.3549C311.524 60.6957 310.982 60.6125 310.86 60.2161L307.693 49.8794C307.644 49.7199 307.515 49.5951 307.35 49.5478L296.664 46.4841C296.254 46.3666 296.168 45.8419 296.52 45.6076L305.705 39.4997C305.846 39.4054 305.929 39.2481 305.925 39.0818L305.635 28.3043C305.624 27.8909 306.113 27.6498 306.452 27.9014L315.296 34.4632C315.432 34.5645 315.613 34.5921 315.775 34.5365L326.282 30.9394Z" fill="#806027"/>
<path d="M335.701 22.5275L329.029 40.7011C328.914 41.015 328.971 41.3639 329.18 41.6283L341.286 56.9039L321.367 56.4279C321.024 56.4197 320.699 56.5797 320.505 56.8534L309.195 72.749L303.559 54.2818C303.462 53.9619 303.203 53.7116 302.872 53.6172L283.78 48.1658L300.214 37.2262C300.496 37.0379 300.662 36.7241 300.653 36.392L300.161 17.1253L315.954 28.8345C316.227 29.0371 316.588 29.0921 316.912 28.9807L335.701 22.5275Z" stroke="#B8964F"/>
<mask id="mask0" mask-type="alpha" maskUnits="userSpaceOnUse" x="283" y="16" width="59" height="58">
<path d="M330.694 26.7637C331.097 26.6257 331.485 27.0014 331.343 27.3912L326.232 41.3596C326.174 41.5164 326.203 41.6908 326.308 41.8228L335.631 53.5798C335.891 53.9079 335.642 54.3812 335.214 54.3704L319.901 53.985C319.729 53.9806 319.566 54.0608 319.469 54.1979L310.79 66.408C310.548 66.7487 310.006 66.6656 309.884 66.2692L305.531 52.0626C305.482 51.903 305.353 51.7782 305.188 51.7309L290.501 47.5202C290.091 47.4027 290.005 46.878 290.358 46.6438L302.981 38.2491C303.122 38.1548 303.205 37.9975 303.201 37.8312L302.802 23.0187C302.791 22.6053 303.28 22.3642 303.62 22.6158L315.774 31.6342C315.911 31.7355 316.091 31.7631 316.253 31.7076L330.694 26.7637Z" fill="url(#paint0_radial)"/>
<path d="M326.282 30.9394C326.685 30.8014 327.073 31.1771 326.931 31.5669L323.212 41.7302C323.155 41.8871 323.183 42.0614 323.288 42.1934L330.071 50.7478C330.332 51.0759 330.082 51.5492 329.655 51.5384L318.513 51.258C318.341 51.2536 318.178 51.3338 318.081 51.4709L311.766 60.3549C311.524 60.6957 310.982 60.6126 310.86 60.2161L307.693 49.8794C307.644 49.7199 307.515 49.5951 307.35 49.5478L296.664 46.4841C296.254 46.3666 296.168 45.8419 296.52 45.6076L305.705 39.4997C305.847 39.4054 305.929 39.2482 305.925 39.0818L305.635 28.3043C305.624 27.8909 306.113 27.6498 306.452 27.9014L315.296 34.4632C315.433 34.5645 315.613 34.5921 315.775 34.5366L326.282 30.9394Z" fill="#806027"/>
<path d="M335.701 22.5275L329.029 40.7011C328.914 41.015 328.971 41.3639 329.18 41.6283L341.286 56.9039L321.367 56.4279C321.024 56.4197 320.699 56.5797 320.505 56.8534L309.195 72.749L303.559 54.2818C303.462 53.9619 303.203 53.7116 302.872 53.6172L283.78 48.1658L300.214 37.2262C300.497 37.0379 300.662 36.7241 300.654 36.392L300.161 17.1253L315.954 28.8344C316.227 29.0371 316.588 29.0921 316.912 28.9806L335.701 22.5275Z" stroke="#B8964F"/>
</mask>
<g mask="url(#mask0)">
<rect width="47.3451" height="28.783" transform="matrix(0.718768 -0.69525 0.718768 0.69525 291.7 45.1133)" fill="url(#paint1_linear)"/>
</g>
<path d="M27.0616 205.129C27.4459 204.946 27.8751 205.274 27.7785 205.678L24.3187 220.143C24.2798 220.306 24.3284 220.476 24.4477 220.595L35.0692 231.193C35.3657 231.489 35.1728 231.988 34.7471 232.027L19.492 233.417C19.3207 233.432 19.1685 233.531 19.0875 233.678L11.8806 246.811C11.6795 247.177 11.1311 247.157 10.9646 246.778L4.99627 233.171C4.92924 233.018 4.78664 232.909 4.61732 232.881L-10.4584 230.399C-10.8791 230.329 -11.0252 229.818 -10.7024 229.545L0.864066 219.745C0.993973 219.635 1.05805 219.469 1.03435 219.305L-1.07604 204.638C-1.13494 204.229 -0.676804 203.933 -0.31075 204.143L12.806 211.694C12.9533 211.779 13.1355 211.785 13.2902 211.712L27.0616 205.129Z" fill="#B8964F"/>
<path d="M23.1623 209.788C23.5466 209.604 23.9758 209.932 23.8793 210.336L21.3619 220.861C21.3231 221.024 21.3716 221.194 21.4909 221.313L29.2191 229.024C29.5155 229.32 29.3227 229.819 28.8969 229.858L17.7974 230.869C17.6261 230.885 17.4739 230.983 17.3929 231.13L12.1492 240.686C11.9481 241.052 11.3997 241.032 11.2331 240.653L6.89065 230.752C6.82362 230.599 6.68101 230.49 6.51169 230.462L-4.4573 228.656C-4.87803 228.587 -5.0241 228.076 -4.70131 227.802L3.71438 220.672C3.84428 220.562 3.90836 220.396 3.88466 220.232L2.34915 209.56C2.29026 209.151 2.74839 208.855 3.11444 209.066L12.6581 214.56C12.8054 214.644 12.9876 214.651 13.1423 214.577L23.1623 209.788Z" fill="#806027"/>
<path d="M31.5442 200.342L27.0214 219.165C26.9433 219.49 27.0402 219.83 27.2789 220.069L41.0708 233.84L21.2314 235.673C20.8895 235.705 20.5857 235.901 20.424 236.196L11.0306 253.293L3.29513 235.603C3.16111 235.296 2.87518 235.078 2.53569 235.022L-17.0586 231.817L-2.00231 219.049C-1.74308 218.829 -1.61505 218.499 -1.66192 218.17L-4.38097 199.09L12.6604 208.892C12.9553 209.062 13.32 209.075 13.6294 208.926L31.5442 200.342Z" stroke="#B8964F"/>
<mask id="mask1" mask-type="alpha" maskUnits="userSpaceOnUse" x="-18" y="198" width="60" height="56">
<path d="M26.9941 205.19C27.3778 205.008 27.8086 205.338 27.7136 205.741L24.3103 220.188C24.272 220.35 24.3213 220.52 24.4411 220.64L35.1103 231.272C35.408 231.569 35.217 232.067 34.7913 232.104L19.5347 233.438C19.3633 233.453 19.2114 233.551 19.1311 233.698L11.9736 246.799C11.7738 247.164 11.2251 247.143 11.0569 246.762L5.03114 233.139C4.96346 232.986 4.82036 232.877 4.65085 232.848L-10.4419 230.312C-10.8631 230.241 -11.0113 229.73 -10.6894 229.458L0.843049 219.705C0.972571 219.595 1.03601 219.43 1.01164 219.265L-1.15869 204.597C-1.21925 204.187 -0.762104 203.893 -0.395038 204.105L12.7582 211.7C12.9059 211.786 13.0882 211.793 13.2427 211.719L26.9941 205.19Z" fill="url(#paint2_radial)"/>
<path d="M23.1121 209.832C23.4959 209.65 23.9266 209.98 23.8316 210.383L21.3554 220.895C21.3171 221.057 21.3664 221.227 21.4862 221.346L29.249 229.083C29.5468 229.379 29.3558 229.878 28.9301 229.915L17.8294 230.885C17.6581 230.9 17.5062 230.998 17.4258 231.145L12.218 240.677C12.0183 241.043 11.4696 241.021 11.3014 240.641L6.91707 230.729C6.84939 230.576 6.70629 230.466 6.53678 230.438L-4.44463 228.592C-4.86583 228.522 -5.01402 228.01 -4.69218 227.738L3.69881 220.642C3.82833 220.532 3.89177 220.367 3.86739 220.202L2.28828 209.529C2.22771 209.12 2.68486 208.826 3.05193 209.038L12.6222 214.564C12.7699 214.649 12.9522 214.656 13.1067 214.583L23.1121 209.832Z" fill="#806027"/>
<path d="M31.4596 200.421L27.0102 219.22C26.9334 219.545 27.0317 219.885 27.2714 220.124L41.1253 233.94L21.2838 235.7C20.9418 235.73 20.6388 235.926 20.4782 236.219L11.149 253.276L3.33875 235.564C3.20343 235.258 2.91649 235.038 2.57663 234.981L-17.0398 231.707L-2.02771 218.999C-1.76925 218.78 -1.64249 218.45 -1.69071 218.121L-4.48772 199.039L12.6011 208.899C12.8969 209.07 13.2618 209.084 13.5707 208.937L31.4596 200.421Z" stroke="#B8964F"/>
</mask>
<g mask="url(#mask1)">
<rect width="47.2115" height="28.9171" transform="matrix(0.63033 -0.771384 0.796976 0.610312 -9.53903 227.696)" fill="url(#paint3_linear)"/>
</g>
<g opacity="0.35">
<path d="M56.1607 30.9147C56.545 30.731 56.9742 31.0591 56.8776 31.4628L54.5887 41.0333C54.5498 41.1958 54.5983 41.3657 54.7176 41.4847L61.7447 48.4966C62.0411 48.7924 61.8483 49.2914 61.4225 49.3302L51.33 50.2496C51.1587 50.2652 51.0065 50.3636 50.9255 50.5111L46.1575 59.1994C45.9564 59.5659 45.408 59.5461 45.2414 59.1664L41.2929 50.1641C41.2259 50.0113 41.0833 49.9023 40.9139 49.8744L30.9401 48.2321C30.5193 48.1629 30.3733 47.6516 30.6961 47.3782L38.3483 40.895C38.4782 40.785 38.5422 40.6192 38.5185 40.4545L37.1223 30.7512C37.0634 30.3419 37.5216 30.0457 37.8876 30.2564L46.5655 35.2519C46.7128 35.3367 46.895 35.3433 47.0497 35.2693L56.1607 30.9147Z" fill="#B8964F"/>
<path d="M53.4747 34.1234C53.8591 33.9397 54.2883 34.2679 54.1917 34.6716L52.5519 41.5277C52.5131 41.6902 52.5616 41.86 52.6809 41.979L57.715 47.0022C58.0114 47.298 57.8185 47.797 57.3928 47.8358L50.1627 48.4945C49.9914 48.5101 49.8392 48.6085 49.7582 48.756L46.3425 54.9801C46.1414 55.3466 45.593 55.3268 45.4264 54.9471L42.5978 48.498C42.5308 48.3452 42.3882 48.2362 42.2188 48.2083L35.0737 47.0318C34.653 46.9625 34.507 46.4513 34.8297 46.1779L40.3116 41.5335C40.4415 41.4234 40.5056 41.2576 40.4819 41.0929L39.4817 34.1417C39.4228 33.7324 39.8809 33.4362 40.247 33.6469L46.4636 37.2256C46.611 37.3104 46.7932 37.3169 46.9478 37.243L53.4747 34.1234Z" fill="#806027"/>
<path d="M59.3171 27.7548L56.2965 40.3261C56.2184 40.6512 56.3153 40.9912 56.554 41.2295L65.7654 50.4274L52.5142 51.6515C52.1722 51.6831 51.8685 51.8796 51.7067 52.174L45.4328 63.5936L40.2668 51.7792C40.1327 51.4727 39.8468 51.2541 39.5073 51.1985L26.4215 49.0583L36.4776 40.5304C36.7369 40.3106 36.8649 39.9798 36.818 39.6509L35.0019 26.9068L46.3836 33.4537C46.6785 33.6233 47.0432 33.6362 47.3527 33.4879L59.3171 27.7548Z" stroke="#B8964F"/>
<mask id="mask2" mask-type="alpha" maskUnits="userSpaceOnUse" x="25" y="26" width="42" height="39">
<path d="M56.1146 30.9559C56.4984 30.7737 56.9291 31.1033 56.8342 31.5064L54.5825 41.0646C54.5443 41.2268 54.5936 41.3968 54.7134 41.5162L61.772 48.5507C62.0697 48.8474 61.8788 49.3455 61.453 49.3828L51.3594 50.2651C51.1881 50.2801 51.0362 50.3779 50.9558 50.525L46.2205 59.1923C46.0207 59.5579 45.472 59.5361 45.3038 59.156L41.3173 50.1431C41.2496 49.9901 41.1065 49.8806 40.937 49.8521L30.9518 48.1743C30.5306 48.1035 30.3824 47.592 30.7042 47.3198L38.334 40.8673C38.4635 40.7577 38.527 40.5922 38.5026 40.4275L37.0667 30.7233C37.0062 30.3139 37.4633 30.0195 37.8304 30.2315L46.5324 35.2564C46.6801 35.3417 46.8624 35.3489 47.0169 35.2756L56.1146 30.9559Z" fill="url(#paint4_radial)"/>
<path d="M53.4406 34.1535C53.8244 33.9713 54.2551 34.3009 54.1601 34.704L52.5471 41.5513C52.5089 41.7136 52.5581 41.8835 52.6779 42.0029L57.7346 47.0423C58.0323 47.339 57.8414 47.8371 57.4156 47.8743L50.1848 48.5064C50.0134 48.5214 49.8615 48.6192 49.7811 48.7664L46.3889 54.9754C46.1891 55.341 45.6404 55.3193 45.4722 54.9391L42.6163 48.4825C42.5486 48.3295 42.4055 48.22 42.236 48.1915L35.0828 46.9895C34.6616 46.9188 34.5134 46.4072 34.8353 46.1351L40.3011 41.5126C40.4306 41.403 40.4941 41.2375 40.4697 41.0728L39.4411 34.1209C39.3805 33.7115 39.8376 33.4171 40.2047 33.6291L46.4387 37.2289C46.5864 37.3142 46.7687 37.3214 46.9231 37.2481L53.4406 34.1535Z" fill="#806027"/>
<path d="M59.2598 27.8089L56.2883 40.3639C56.2115 40.6886 56.3098 41.0288 56.5495 41.2679L65.8023 50.4955L52.5497 51.6709C52.2077 51.7012 51.9046 51.8966 51.744 52.1902L45.513 63.5822L40.297 51.754C40.1617 51.4471 39.8747 51.2275 39.5349 51.1708L26.4342 48.9838L36.4609 40.4961C36.7193 40.2773 36.8461 39.9471 36.7979 39.6182L34.9297 26.8728L46.3431 33.4584C46.6388 33.629 47.0038 33.6432 47.3127 33.4961L59.2598 27.8089Z" stroke="#B8964F"/>
</mask>
<g mask="url(#mask2)">
<rect width="32.5206" height="19.9189" transform="matrix(0.630329 -0.771384 0.796976 0.610312 31.2471 46.3169)" fill="url(#paint5_linear)"/>
</g>
</g>
<g opacity="0.15">
<path d="M284.634 222.613C285.019 222.43 285.448 222.758 285.351 223.161L283.867 229.366C283.828 229.529 283.877 229.699 283.996 229.818L288.552 234.364C288.849 234.659 288.656 235.158 288.23 235.197L281.687 235.793C281.515 235.809 281.363 235.907 281.282 236.055L278.191 241.688C277.99 242.054 277.441 242.034 277.275 241.655L274.715 235.818C274.648 235.665 274.505 235.556 274.336 235.529L267.87 234.464C267.449 234.395 267.303 233.883 267.626 233.61L272.587 229.407C272.717 229.297 272.781 229.131 272.757 228.966L271.852 222.675C271.793 222.266 272.251 221.97 272.617 222.18L278.243 225.419C278.391 225.504 278.573 225.51 278.727 225.436L284.634 222.613Z" fill="#B8964F"/>
<path d="M282.783 224.826C283.167 224.642 283.596 224.97 283.5 225.374L282.463 229.707C282.424 229.87 282.473 230.04 282.592 230.159L285.774 233.334C286.07 233.629 285.878 234.128 285.452 234.167L280.882 234.583C280.711 234.599 280.558 234.697 280.477 234.845L278.319 238.779C278.117 239.146 277.569 239.126 277.402 238.746L275.615 234.67C275.548 234.517 275.405 234.408 275.236 234.38L270.719 233.636C270.299 233.567 270.153 233.056 270.475 232.783L273.94 229.847C274.07 229.737 274.134 229.571 274.111 229.406L273.478 225.013C273.42 224.603 273.878 224.307 274.244 224.518L278.173 226.78C278.32 226.865 278.503 226.871 278.657 226.797L282.783 224.826Z" fill="#806027"/>
<path d="M286.879 220.572L284.891 228.845C284.813 229.17 284.91 229.51 285.149 229.749L291.211 235.802L282.489 236.608C282.147 236.639 281.843 236.836 281.682 237.13L277.552 244.646L274.153 236.872C274.019 236.565 273.733 236.346 273.393 236.291L264.782 234.883L271.401 229.27C271.66 229.05 271.788 228.719 271.741 228.39L270.546 220.002L278.036 224.311C278.331 224.481 278.696 224.493 279.005 224.345L286.879 220.572Z" stroke="#B8964F"/>
<mask id="mask3" mask-type="alpha" maskUnits="userSpaceOnUse" x="264" y="219" width="28" height="27">
<path d="M284.603 222.64C284.987 222.458 285.418 222.788 285.323 223.191L283.863 229.388C283.825 229.55 283.874 229.72 283.994 229.839L288.57 234.4C288.868 234.697 288.677 235.195 288.251 235.232L281.707 235.804C281.536 235.819 281.384 235.917 281.303 236.064L278.233 241.683C278.034 242.049 277.485 242.027 277.317 241.647L274.732 235.804C274.664 235.651 274.521 235.541 274.352 235.513L267.878 234.425C267.457 234.354 267.309 233.842 267.63 233.57L272.577 229.387C272.707 229.277 272.77 229.112 272.746 228.947L271.815 222.656C271.754 222.246 272.211 221.952 272.578 222.164L278.22 225.422C278.368 225.507 278.55 225.514 278.705 225.441L284.603 222.64Z" fill="url(#paint6_radial)"/>
<path d="M282.76 224.845C283.143 224.663 283.574 224.992 283.479 225.395L282.459 229.723C282.421 229.886 282.471 230.056 282.59 230.175L285.786 233.36C286.084 233.657 285.893 234.155 285.467 234.192L280.897 234.592C280.726 234.607 280.574 234.704 280.494 234.852L278.349 238.776C278.15 239.142 277.601 239.12 277.433 238.74L275.628 234.659C275.56 234.506 275.417 234.396 275.247 234.368L270.726 233.608C270.305 233.537 270.157 233.026 270.478 232.754L273.933 229.832C274.063 229.722 274.126 229.557 274.102 229.392L273.452 224.998C273.391 224.589 273.848 224.294 274.215 224.506L278.156 226.782C278.303 226.867 278.486 226.874 278.64 226.801L282.76 224.845Z" fill="#806027"/>
<path d="M286.841 220.609L284.885 228.871C284.808 229.196 284.906 229.536 285.146 229.775L291.236 235.848L282.513 236.622C282.171 236.652 281.868 236.847 281.707 237.141L277.606 244.639L274.174 236.855C274.038 236.548 273.752 236.329 273.412 236.272L264.791 234.833L271.39 229.246C271.648 229.028 271.775 228.697 271.727 228.368L270.497 219.979L278.009 224.314C278.305 224.484 278.669 224.499 278.978 224.351L286.841 220.609Z" stroke="#B8964F"/>
</mask>
<g mask="url(#mask3)">
<rect width="22.4206" height="13.7326" transform="matrix(0.63033 -0.771384 0.796976 0.610312 267.756 233.09)" fill="url(#paint7_linear)"/>
</g>
</g>
<defs>
<radialGradient id="paint0_radial" cx="0" cy="0" r="1" gradientUnits="userSpaceOnUse" gradientTransform="translate(314.084 43.4581) rotate(135.953) scale(24.5065 24.4929)">
<stop stop-color="#B8964F"/>
<stop offset="1" stop-color="#B8964F" stop-opacity="0"/>
</radialGradient>
<linearGradient id="paint1_linear" x1="23.6726" y1="0" x2="23.6726" y2="28.783" gradientUnits="userSpaceOnUse">
<stop stop-color="#FBD67D" stop-opacity="0"/>
<stop offset="0.473958" stop-color="#FCD77E"/>
<stop offset="0.5" stop-color="#FCD77E"/>
<stop offset="1" stop-color="#FBD67D" stop-opacity="0"/>
</linearGradient>
<radialGradient id="paint2_radial" cx="0" cy="0" r="1" gradientUnits="userSpaceOnUse" gradientTransform="translate(12.4955 223.634) rotate(129.276) scale(24.4127 24.5873)">
<stop stop-color="#B8964F"/>
<stop offset="1" stop-color="#B8964F" stop-opacity="0"/>
</radialGradient>
<linearGradient id="paint3_linear" x1="23.6057" y1="0" x2="23.6057" y2="28.9171" gradientUnits="userSpaceOnUse">
<stop stop-color="#FBD67D" stop-opacity="0"/>
<stop offset="0.473958" stop-color="#FCD77E"/>
<stop offset="0.5" stop-color="#FCD77E"/>
<stop offset="1" stop-color="#FBD67D" stop-opacity="0"/>
</linearGradient>
<radialGradient id="paint4_radial" cx="0" cy="0" r="1" gradientUnits="userSpaceOnUse" gradientTransform="translate(46.4251 43.5193) rotate(129.276) scale(16.8161 16.9364)">
<stop stop-color="#B8964F"/>
<stop offset="1" stop-color="#B8964F" stop-opacity="0"/>
</radialGradient>
<linearGradient id="paint5_linear" x1="16.2603" y1="0" x2="16.2603" y2="19.9189" gradientUnits="userSpaceOnUse">
<stop stop-color="#FBD67D" stop-opacity="0"/>
<stop offset="0.473958" stop-color="#FCD77E"/>
<stop offset="0.5" stop-color="#FCD77E"/>
<stop offset="1" stop-color="#FBD67D" stop-opacity="0"/>
</linearGradient>
<radialGradient id="paint6_radial" cx="0" cy="0" r="1" gradientUnits="userSpaceOnUse" gradientTransform="translate(278.22 231.161) rotate(129.276) scale(11.5935 11.6764)">
<stop stop-color="#B8964F"/>
<stop offset="1" stop-color="#B8964F" stop-opacity="0"/>
</radialGradient>
<linearGradient id="paint7_linear" x1="11.2103" y1="0" x2="11.2103" y2="13.7326" gradientUnits="userSpaceOnUse">
<stop stop-color="#FBD67D" stop-opacity="0"/>
<stop offset="0.473958" stop-color="#FCD77E"/>
<stop offset="0.5" stop-color="#FCD77E"/>
<stop offset="1" stop-color="#FBD67D" stop-opacity="0"/>
</linearGradient>
</defs>
</svg>
