<svg width="320" height="436" viewBox="0 0 320 436" fill="none" xmlns="http://www.w3.org/2000/svg">
<path d="M316.694 26.7637C317.097 26.6257 317.485 27.0014 317.343 27.3912L312.232 41.3596C312.174 41.5164 312.203 41.6908 312.307 41.8228L321.631 53.5798C321.891 53.9079 321.642 54.3812 321.214 54.3704L305.901 53.985C305.729 53.9806 305.566 54.0608 305.469 54.1979L296.79 66.408C296.548 66.7487 296.006 66.6656 295.884 66.2692L291.531 52.0626C291.482 51.903 291.353 51.7782 291.188 51.7309L276.501 47.5202C276.091 47.4027 276.005 46.878 276.357 46.6438L288.981 38.2491C289.122 38.1548 289.205 37.9975 289.201 37.8312L288.802 23.0187C288.791 22.6053 289.28 22.3642 289.62 22.6158L301.774 31.6342C301.911 31.7355 302.091 31.7631 302.253 31.7076L316.694 26.7637Z" fill="#B8964F"/>
<path d="M312.282 30.9394C312.685 30.8014 313.073 31.1771 312.931 31.5669L309.212 41.7302C309.154 41.8871 309.183 42.0614 309.288 42.1934L316.071 50.7478C316.332 51.0759 316.082 51.5492 315.655 51.5384L304.513 51.258C304.341 51.2536 304.178 51.3338 304.081 51.4709L297.766 60.3549C297.524 60.6957 296.982 60.6125 296.86 60.2161L293.693 49.8794C293.644 49.7199 293.515 49.5951 293.35 49.5478L282.664 46.4841C282.254 46.3666 282.168 45.8419 282.52 45.6076L291.705 39.4997C291.847 39.4054 291.929 39.2481 291.925 39.0818L291.635 28.3043C291.624 27.8909 292.113 27.6498 292.452 27.9014L301.296 34.4632C301.433 34.5645 301.613 34.5921 301.775 34.5365L312.282 30.9394Z" fill="#806027"/>
<path d="M321.701 22.5275L315.029 40.7011C314.914 41.015 314.971 41.3639 315.18 41.6283L327.286 56.9039L307.367 56.4279C307.024 56.4197 306.699 56.5797 306.505 56.8534L295.195 72.749L289.559 54.2818C289.462 53.9619 289.203 53.7116 288.872 53.6172L269.78 48.1658L286.214 37.2262C286.497 37.0379 286.662 36.7241 286.654 36.392L286.161 17.1253L301.954 28.8345C302.227 29.0371 302.588 29.0921 302.912 28.9807L321.701 22.5275Z" stroke="#B8964F"/>
<mask id="mask0" mask-type="alpha" maskUnits="userSpaceOnUse" x="269" y="16" width="59" height="58">
<path d="M316.694 26.7637C317.097 26.6257 317.485 27.0014 317.343 27.3912L312.232 41.3596C312.174 41.5164 312.203 41.6908 312.308 41.8228L321.631 53.5798C321.891 53.9079 321.642 54.3812 321.214 54.3704L305.901 53.985C305.729 53.9806 305.566 54.0608 305.469 54.1979L296.79 66.408C296.548 66.7487 296.006 66.6656 295.884 66.2692L291.531 52.0626C291.482 51.903 291.353 51.7782 291.188 51.7309L276.501 47.5202C276.091 47.4027 276.005 46.878 276.358 46.6438L288.981 38.2491C289.122 38.1548 289.205 37.9975 289.201 37.8312L288.802 23.0187C288.791 22.6053 289.28 22.3642 289.62 22.6158L301.774 31.6342C301.911 31.7355 302.091 31.7631 302.253 31.7076L316.694 26.7637Z" fill="url(#paint0_radial)"/>
<path d="M312.282 30.9394C312.685 30.8014 313.073 31.1771 312.931 31.5669L309.212 41.7302C309.155 41.8871 309.183 42.0614 309.288 42.1934L316.071 50.7478C316.332 51.0759 316.082 51.5492 315.655 51.5384L304.513 51.258C304.341 51.2536 304.178 51.3338 304.081 51.4709L297.766 60.3549C297.524 60.6957 296.982 60.6126 296.86 60.2161L293.693 49.8794C293.644 49.7199 293.515 49.5951 293.35 49.5478L282.664 46.4841C282.254 46.3666 282.168 45.8419 282.52 45.6076L291.705 39.4997C291.847 39.4054 291.929 39.2482 291.925 39.0818L291.635 28.3043C291.624 27.8909 292.113 27.6498 292.452 27.9014L301.296 34.4632C301.433 34.5645 301.613 34.5921 301.775 34.5366L312.282 30.9394Z" fill="#806027"/>
<path d="M321.701 22.5275L315.029 40.7011C314.914 41.015 314.971 41.3639 315.18 41.6283L327.286 56.9039L307.367 56.4279C307.024 56.4197 306.699 56.5797 306.505 56.8534L295.195 72.749L289.559 54.2818C289.462 53.9619 289.203 53.7116 288.872 53.6172L269.78 48.1658L286.214 37.2262C286.497 37.0379 286.662 36.7241 286.654 36.392L286.161 17.1253L301.954 28.8344C302.227 29.0371 302.588 29.0921 302.912 28.9806L321.701 22.5275Z" stroke="#B8964F"/>
</mask>
<g mask="url(#mask0)">
<rect width="47.3451" height="28.783" transform="matrix(0.718768 -0.69525 0.718768 0.69525 277.7 45.1133)" fill="url(#paint1_linear)"/>
</g>
<g opacity="0.35">
<path d="M42.1607 30.9147C42.545 30.731 42.9742 31.0591 42.8776 31.4628L40.5887 41.0333C40.5498 41.1958 40.5983 41.3657 40.7176 41.4847L47.7447 48.4966C48.0411 48.7924 47.8483 49.2914 47.4225 49.3302L37.33 50.2496C37.1587 50.2652 37.0065 50.3636 36.9255 50.5111L32.1575 59.1994C31.9564 59.5659 31.408 59.5461 31.2414 59.1664L27.2929 50.1641C27.2259 50.0113 27.0833 49.9023 26.9139 49.8744L16.9401 48.2321C16.5193 48.1629 16.3733 47.6516 16.6961 47.3782L24.3483 40.895C24.4782 40.785 24.5422 40.6192 24.5185 40.4545L23.1223 30.7512C23.0634 30.3419 23.5216 30.0457 23.8876 30.2564L32.5655 35.2519C32.7128 35.3367 32.895 35.3433 33.0497 35.2693L42.1607 30.9147Z" fill="#B8964F"/>
<path d="M39.4747 34.1234C39.8591 33.9397 40.2883 34.2679 40.1917 34.6716L38.5519 41.5277C38.5131 41.6902 38.5616 41.86 38.6809 41.979L43.715 47.0022C44.0114 47.298 43.8185 47.797 43.3928 47.8358L36.1627 48.4945C35.9914 48.5101 35.8392 48.6085 35.7582 48.756L32.3425 54.9801C32.1414 55.3466 31.593 55.3268 31.4264 54.9471L28.5978 48.498C28.5308 48.3452 28.3882 48.2362 28.2188 48.2083L21.0737 47.0318C20.653 46.9625 20.507 46.4513 20.8297 46.1779L26.3116 41.5335C26.4415 41.4234 26.5056 41.2576 26.4819 41.0929L25.4817 34.1417C25.4228 33.7324 25.8809 33.4362 26.247 33.6469L32.4636 37.2256C32.611 37.3104 32.7932 37.3169 32.9478 37.243L39.4747 34.1234Z" fill="#806027"/>
<path d="M45.3171 27.7548L42.2965 40.3261C42.2184 40.6512 42.3153 40.9912 42.554 41.2295L51.7654 50.4274L38.5142 51.6515C38.1722 51.6831 37.8685 51.8796 37.7067 52.174L31.4328 63.5936L26.2668 51.7792C26.1327 51.4727 25.8468 51.2541 25.5073 51.1985L12.4215 49.0583L22.4776 40.5304C22.7369 40.3106 22.8649 39.9798 22.818 39.6509L21.0019 26.9068L32.3836 33.4537C32.6785 33.6233 33.0432 33.6362 33.3527 33.4879L45.3171 27.7548Z" stroke="#B8964F"/>
<mask id="mask1" mask-type="alpha" maskUnits="userSpaceOnUse" x="11" y="26" width="42" height="39">
<path d="M42.1146 30.9559C42.4984 30.7737 42.9291 31.1033 42.8342 31.5064L40.5825 41.0646C40.5443 41.2268 40.5936 41.3968 40.7134 41.5162L47.772 48.5507C48.0697 48.8474 47.8788 49.3455 47.453 49.3828L37.3594 50.2651C37.1881 50.2801 37.0362 50.3779 36.9558 50.525L32.2205 59.1923C32.0207 59.5579 31.472 59.5361 31.3038 59.156L27.3173 50.1431C27.2496 49.9901 27.1065 49.8806 26.937 49.8521L16.9518 48.1743C16.5306 48.1035 16.3824 47.592 16.7042 47.3198L24.334 40.8673C24.4635 40.7577 24.527 40.5922 24.5026 40.4275L23.0667 30.7233C23.0062 30.3139 23.4633 30.0195 23.8304 30.2315L32.5324 35.2564C32.6801 35.3417 32.8624 35.3489 33.0169 35.2756L42.1146 30.9559Z" fill="url(#paint2_radial)"/>
<path d="M39.4406 34.1535C39.8244 33.9713 40.2551 34.3009 40.1601 34.704L38.5471 41.5513C38.5089 41.7136 38.5581 41.8835 38.6779 42.0029L43.7346 47.0423C44.0323 47.339 43.8414 47.8371 43.4156 47.8743L36.1848 48.5064C36.0134 48.5214 35.8615 48.6192 35.7811 48.7664L32.3889 54.9754C32.1891 55.341 31.6404 55.3193 31.4722 54.9391L28.6163 48.4825C28.5486 48.3295 28.4055 48.22 28.236 48.1915L21.0828 46.9895C20.6616 46.9188 20.5134 46.4072 20.8353 46.1351L26.3011 41.5126C26.4306 41.403 26.4941 41.2375 26.4697 41.0728L25.4411 34.1209C25.3805 33.7115 25.8376 33.4171 26.2047 33.6291L32.4387 37.2289C32.5864 37.3142 32.7687 37.3214 32.9231 37.2481L39.4406 34.1535Z" fill="#806027"/>
<path d="M45.2598 27.8089L42.2883 40.3639C42.2115 40.6886 42.3098 41.0288 42.5495 41.2679L51.8023 50.4955L38.5497 51.6709C38.2077 51.7012 37.9046 51.8966 37.744 52.1902L31.513 63.5822L26.297 51.754C26.1617 51.4471 25.8747 51.2275 25.5349 51.1708L12.4342 48.9838L22.4609 40.4961C22.7193 40.2773 22.8461 39.9471 22.7979 39.6182L20.9297 26.8728L32.3431 33.4584C32.6388 33.629 33.0038 33.6432 33.3127 33.4961L45.2598 27.8089Z" stroke="#B8964F"/>
</mask>
<g mask="url(#mask1)">
<rect width="32.5206" height="19.9189" transform="matrix(0.630329 -0.771384 0.796976 0.610312 17.2471 46.3169)" fill="url(#paint3_linear)"/>
</g>
</g>
<path d="M22.4959 368.73C22.8803 368.546 23.3095 368.874 23.2129 369.278L19.7531 383.744C19.7142 383.907 19.7628 384.076 19.882 384.195L30.5036 394.794C30.8 395.09 30.6072 395.589 30.1814 395.628L14.9264 397.017C14.7551 397.033 14.6029 397.131 14.5219 397.279L7.31504 410.411C7.11391 410.778 6.5655 410.758 6.39894 410.378L0.430656 396.771C0.363625 396.618 0.221023 396.509 0.0517038 396.481L-15.024 393.999C-15.4447 393.93 -15.5908 393.419 -15.268 393.145L-3.70155 383.346C-3.57164 383.236 -3.50756 383.07 -3.53127 382.905L-5.64165 368.239C-5.70055 367.829 -5.24242 367.533 -4.87636 367.744L8.24037 375.295C8.38769 375.379 8.56989 375.386 8.72456 375.312L22.4959 368.73Z" fill="#B8964F"/>
<path d="M18.5967 373.388C18.981 373.205 19.4102 373.533 19.3137 373.937L16.7963 384.462C16.7575 384.624 16.806 384.794 16.9253 384.913L24.6535 392.625C24.9499 392.921 24.757 393.42 24.3313 393.458L13.2318 394.47C13.0605 394.485 12.9083 394.584 12.8273 394.731L7.58362 404.286C7.3825 404.653 6.83409 404.633 6.66753 404.253L2.32503 394.353C2.258 394.2 2.1154 394.091 1.94608 394.063L-9.02292 392.257C-9.44364 392.188 -9.58971 391.676 -9.26692 391.403L-0.851234 384.273C-0.721328 384.163 -0.657251 383.997 -0.680953 383.832L-2.21646 373.161C-2.27536 372.752 -1.81722 372.455 -1.45117 372.666L8.09251 378.16C8.23982 378.245 8.42203 378.251 8.5767 378.178L18.5967 373.388Z" fill="#806027"/>
<path d="M26.9786 363.942L22.4558 382.766C22.3777 383.091 22.4746 383.431 22.7133 383.669L36.5052 397.441L16.6658 399.274C16.3238 399.305 16.0201 399.502 15.8584 399.796L6.46497 416.894L-1.27048 399.203C-1.4045 398.897 -1.69043 398.678 -2.02992 398.623L-21.6242 395.418L-6.56792 382.65C-6.3087 382.43 -6.18066 382.099 -6.22753 381.77L-8.94658 362.69L8.09479 372.493C8.3897 372.662 8.7544 372.675 9.06381 372.527L26.9786 363.942Z" stroke="#B8964F"/>
<mask id="mask2" mask-type="alpha" maskUnits="userSpaceOnUse" x="-23" y="362" width="61" height="56">
<path d="M22.4285 368.791C22.8122 368.609 23.243 368.938 23.148 369.341L19.7446 383.789C19.7064 383.951 19.7557 384.121 19.8755 384.24L30.5446 394.873C30.8424 395.17 30.6514 395.668 30.2257 395.705L14.9691 397.039C14.7977 397.054 14.6458 397.151 14.5654 397.299L7.40794 410.399C7.2082 410.765 6.65946 410.743 6.4913 410.363L0.465526 396.74C0.39785 396.587 0.254746 396.477 0.0852379 396.449L-15.0075 393.913C-15.4287 393.842 -15.5769 393.331 -15.255 393.058L-3.72256 383.305C-3.59304 383.196 -3.5296 383.03 -3.55398 382.865L-5.7243 368.197C-5.78487 367.788 -5.32772 367.494 -4.96065 367.706L8.19259 375.301C8.34032 375.386 8.52263 375.393 8.67707 375.32L22.4285 368.791Z" fill="url(#paint4_radial)"/>
<path d="M18.5465 373.433C18.9303 373.251 19.361 373.58 19.266 373.984L16.7898 384.495C16.7515 384.658 16.8008 384.828 16.9206 384.947L24.6834 392.683C24.9812 392.98 24.7902 393.478 24.3645 393.515L13.2638 394.486C13.0925 394.501 12.9406 394.599 12.8602 394.746L7.65242 404.278C7.45268 404.643 6.90394 404.622 6.73578 404.241L2.35145 394.329C2.28378 394.176 2.14067 394.067 1.97116 394.038L-9.01025 392.193C-9.43144 392.122 -9.57963 391.611 -9.25779 391.339L-0.866806 384.242C-0.737283 384.133 -0.673843 383.967 -0.698218 383.802L-2.27734 373.13C-2.3379 372.721 -1.88075 372.426 -1.51369 372.638L8.05656 378.165C8.20428 378.25 8.38659 378.257 8.54104 378.184L18.5465 373.433Z" fill="#806027"/>
<path d="M26.8939 364.022L22.4446 382.821C22.3678 383.146 22.4661 383.486 22.7058 383.725L36.5596 397.541L16.7182 399.301C16.3762 399.331 16.0732 399.526 15.9125 399.82L6.58335 416.876L-1.22687 399.165C-1.36218 398.858 -1.64912 398.639 -1.98899 398.582L-21.6054 395.307L-6.59332 382.599C-6.33487 382.38 -6.20811 382.05 -6.25632 381.721L-9.05334 362.639L8.03553 372.5C8.33125 372.67 8.69617 372.684 9.00512 372.537L26.8939 364.022Z" stroke="#B8964F"/>
</mask>
<g mask="url(#mask2)">
<rect width="47.2115" height="28.9171" transform="matrix(0.63033 -0.771384 0.796976 0.610312 -14.1046 391.297)" fill="url(#paint5_linear)"/>
</g>
<g opacity="0.15">
<path d="M270.634 415.214C271.019 415.03 271.448 415.358 271.351 415.762L269.867 421.967C269.828 422.129 269.877 422.299 269.996 422.418L274.552 426.964C274.849 427.26 274.656 427.759 274.23 427.798L267.687 428.394C267.515 428.41 267.363 428.508 267.282 428.655L264.191 434.288C263.99 434.655 263.441 434.635 263.275 434.255L260.715 428.419C260.648 428.266 260.505 428.157 260.336 428.129L253.87 427.064C253.449 426.995 253.303 426.484 253.626 426.21L258.587 422.007C258.717 421.897 258.781 421.731 258.757 421.567L257.852 415.276C257.793 414.866 258.251 414.57 258.617 414.781L264.243 418.02C264.391 418.104 264.573 418.111 264.727 418.037L270.634 415.214Z" fill="#B8964F"/>
<path d="M268.783 417.426C269.167 417.242 269.596 417.571 269.5 417.974L268.463 422.308C268.424 422.47 268.473 422.64 268.592 422.759L271.774 425.934C272.07 426.23 271.878 426.729 271.452 426.768L266.882 427.184C266.711 427.2 266.558 427.298 266.477 427.446L264.319 431.38C264.117 431.746 263.569 431.726 263.402 431.347L261.615 427.27C261.548 427.118 261.405 427.009 261.236 426.981L256.719 426.237C256.299 426.168 256.153 425.657 256.475 425.383L259.94 422.448C260.07 422.337 260.134 422.172 260.111 422.007L259.478 417.613C259.42 417.204 259.878 416.908 260.244 417.119L264.173 419.381C264.32 419.465 264.503 419.472 264.657 419.398L268.783 417.426Z" fill="#806027"/>
<path d="M272.879 413.173L270.891 421.446C270.813 421.771 270.91 422.111 271.149 422.349L277.211 428.403L268.489 429.208C268.147 429.24 267.843 429.436 267.682 429.731L263.552 437.247L260.153 429.472C260.019 429.166 259.733 428.947 259.393 428.892L250.782 427.483L257.401 421.87C257.66 421.651 257.788 421.32 257.741 420.991L256.546 412.603L264.036 416.911C264.331 417.081 264.696 417.094 265.005 416.946L272.879 413.173Z" stroke="#B8964F"/>
<mask id="mask3" mask-type="alpha" maskUnits="userSpaceOnUse" x="250" y="412" width="28" height="26">
<path d="M270.603 415.241C270.987 415.059 271.418 415.388 271.323 415.791L269.863 421.988C269.825 422.15 269.874 422.32 269.994 422.44L274.57 427C274.868 427.297 274.677 427.795 274.251 427.833L267.707 428.405C267.536 428.42 267.384 428.517 267.303 428.664L264.233 434.284C264.034 434.649 263.485 434.628 263.317 434.247L260.732 428.404C260.664 428.251 260.521 428.142 260.352 428.113L253.878 427.025C253.457 426.955 253.309 426.443 253.63 426.171L258.577 421.987C258.707 421.878 258.77 421.712 258.746 421.548L257.815 415.256C257.754 414.847 258.211 414.552 258.578 414.764L264.22 418.022C264.368 418.107 264.55 418.115 264.705 418.041L270.603 415.241Z" fill="url(#paint6_radial)"/>
<path d="M268.76 417.445C269.143 417.263 269.574 417.593 269.479 417.996L268.459 422.324C268.421 422.486 268.471 422.656 268.59 422.776L271.786 425.961C272.084 426.257 271.893 426.756 271.467 426.793L266.897 427.192C266.726 427.207 266.574 427.305 266.494 427.452L264.349 431.377C264.15 431.742 263.601 431.721 263.433 431.34L261.628 427.259C261.56 427.106 261.417 426.997 261.247 426.968L256.726 426.209C256.305 426.138 256.157 425.626 256.478 425.354L259.933 422.433C260.063 422.323 260.126 422.158 260.102 421.993L259.452 417.599C259.391 417.189 259.848 416.895 260.215 417.107L264.156 419.382C264.303 419.468 264.486 419.475 264.64 419.401L268.76 417.445Z" fill="#806027"/>
<path d="M272.841 413.209L270.885 421.472C270.808 421.796 270.906 422.136 271.146 422.376L277.236 428.449L268.513 429.222C268.171 429.253 267.868 429.448 267.707 429.742L263.606 437.239L260.174 429.456C260.038 429.149 259.752 428.929 259.412 428.872L250.791 427.433L257.39 421.847C257.648 421.628 257.775 421.298 257.727 420.969L256.497 412.58L264.009 416.914C264.305 417.085 264.669 417.099 264.978 416.952L272.841 413.209Z" stroke="#B8964F"/>
</mask>
<g mask="url(#mask3)">
<rect width="22.4206" height="13.7326" transform="matrix(0.63033 -0.771384 0.796976 0.610312 253.756 425.691)" fill="url(#paint7_linear)"/>
</g>
</g>
<defs>
<radialGradient id="paint0_radial" cx="0" cy="0" r="1" gradientUnits="userSpaceOnUse" gradientTransform="translate(300.084 43.4581) rotate(135.953) scale(24.5065 24.4929)">
<stop stop-color="#B8964F"/>
<stop offset="1" stop-color="#B8964F" stop-opacity="0"/>
</radialGradient>
<linearGradient id="paint1_linear" x1="23.6726" y1="0" x2="23.6726" y2="28.783" gradientUnits="userSpaceOnUse">
<stop stop-color="#FBD67D" stop-opacity="0"/>
<stop offset="0.473958" stop-color="#FCD77E"/>
<stop offset="0.5" stop-color="#FCD77E"/>
<stop offset="1" stop-color="#FBD67D" stop-opacity="0"/>
</linearGradient>
<radialGradient id="paint2_radial" cx="0" cy="0" r="1" gradientUnits="userSpaceOnUse" gradientTransform="translate(32.4251 43.5193) rotate(129.276) scale(16.8161 16.9364)">
<stop stop-color="#B8964F"/>
<stop offset="1" stop-color="#B8964F" stop-opacity="0"/>
</radialGradient>
<linearGradient id="paint3_linear" x1="16.2603" y1="0" x2="16.2603" y2="19.9189" gradientUnits="userSpaceOnUse">
<stop stop-color="#FBD67D" stop-opacity="0"/>
<stop offset="0.473958" stop-color="#FCD77E"/>
<stop offset="0.5" stop-color="#FCD77E"/>
<stop offset="1" stop-color="#FBD67D" stop-opacity="0"/>
</linearGradient>
<radialGradient id="paint4_radial" cx="0" cy="0" r="1" gradientUnits="userSpaceOnUse" gradientTransform="translate(7.92985 387.235) rotate(129.276) scale(24.4127 24.5873)">
<stop stop-color="#B8964F"/>
<stop offset="1" stop-color="#B8964F" stop-opacity="0"/>
</radialGradient>
<linearGradient id="paint5_linear" x1="23.6057" y1="0" x2="23.6057" y2="28.9171" gradientUnits="userSpaceOnUse">
<stop stop-color="#FBD67D" stop-opacity="0"/>
<stop offset="0.473958" stop-color="#FCD77E"/>
<stop offset="0.5" stop-color="#FCD77E"/>
<stop offset="1" stop-color="#FBD67D" stop-opacity="0"/>
</linearGradient>
<radialGradient id="paint6_radial" cx="0" cy="0" r="1" gradientUnits="userSpaceOnUse" gradientTransform="translate(264.22 423.761) rotate(129.276) scale(11.5935 11.6764)">
<stop stop-color="#B8964F"/>
<stop offset="1" stop-color="#B8964F" stop-opacity="0"/>
</radialGradient>
<linearGradient id="paint7_linear" x1="11.2103" y1="0" x2="11.2103" y2="13.7326" gradientUnits="userSpaceOnUse">
<stop stop-color="#FBD67D" stop-opacity="0"/>
<stop offset="0.473958" stop-color="#FCD77E"/>
<stop offset="0.5" stop-color="#FCD77E"/>
<stop offset="1" stop-color="#FBD67D" stop-opacity="0"/>
</linearGradient>
</defs>
</svg>
