<svg width="749" height="532" viewBox="0 0 749 532" fill="none" xmlns="http://www.w3.org/2000/svg">
<path d="M759.808 75.4684C760.18 75.3198 760.538 75.7244 760.406 76.1443L747.326 117.904C747.273 118.073 747.299 118.261 747.396 118.403L771.256 153.551C771.496 153.905 771.266 154.414 770.872 154.403L731.682 153.25C731.524 153.246 731.374 153.332 731.284 153.48L709.074 189.983C708.85 190.35 708.35 190.26 708.238 189.833L697.098 147.362C697.053 147.19 696.934 147.055 696.782 147.004L659.195 134.416C658.817 134.29 658.738 133.724 659.062 133.472L691.367 108.375C691.498 108.274 691.574 108.105 691.57 107.925L690.55 63.6423C690.54 63.1971 690.991 62.9373 691.304 63.2084L722.41 90.1696C722.536 90.2786 722.702 90.3084 722.851 90.2486L759.808 75.4684Z" fill="#B8964F"/>
<path d="M749.099 87.3092C749.47 87.1606 749.828 87.5652 749.697 87.9851L739.996 118.955C739.943 119.124 739.969 119.312 740.066 119.454L757.761 145.521C758.001 145.874 757.771 146.384 757.377 146.372L728.313 145.518C728.155 145.513 728.005 145.599 727.915 145.747L711.443 172.818C711.22 173.186 710.72 173.096 710.608 172.669L702.346 141.171C702.301 140.999 702.182 140.865 702.03 140.814L674.154 131.478C673.776 131.351 673.697 130.786 674.022 130.534L697.98 111.922C698.111 111.82 698.187 111.651 698.183 111.472L697.427 78.6304C697.416 78.1851 697.867 77.9254 698.18 78.1965L721.249 98.1915C721.375 98.3006 721.541 98.3303 721.691 98.2705L749.099 87.3092Z" fill="#806027"/>
<path d="M724.822 83.7085L768.618 66.1315L753.067 115.632C752.748 116.647 752.905 117.774 753.485 118.629L781.707 160.242L735.268 158.945C734.318 158.919 733.421 159.436 732.882 160.321L706.517 203.62L693.379 153.318C693.109 152.284 692.393 151.475 691.479 151.17L646.973 136.321L685.283 106.522C686.065 105.913 686.523 104.899 686.499 103.826L685.352 51.3379L722.171 83.236C722.926 83.8908 723.924 84.0686 724.822 83.7085Z" stroke="#D6A642" stroke-width="5"/>
<mask id="mask0" mask-type="alpha" maskUnits="userSpaceOnUse" x="642" y="46" width="145" height="163">
<path d="M759.808 75.4684C760.18 75.3198 760.538 75.7244 760.406 76.1443L747.326 117.904C747.273 118.073 747.299 118.261 747.396 118.403L771.256 153.551C771.496 153.905 771.266 154.414 770.872 154.403L731.682 153.25C731.524 153.246 731.374 153.332 731.284 153.48L709.074 189.983C708.85 190.35 708.35 190.26 708.238 189.833L697.098 147.362C697.053 147.19 696.934 147.055 696.782 147.004L659.195 134.416C658.817 134.29 658.737 133.724 659.062 133.472L691.367 108.375C691.498 108.274 691.574 108.105 691.57 107.925L690.55 63.6423C690.54 63.1971 690.991 62.9373 691.304 63.2084L722.41 90.1696C722.536 90.2787 722.702 90.3084 722.851 90.2486L759.808 75.4684Z" fill="url(#paint0_radial)"/>
<path d="M749.098 87.3112C749.47 87.1626 749.828 87.5672 749.696 87.987L739.996 118.957C739.943 119.126 739.969 119.314 740.066 119.456L757.761 145.523C758.001 145.876 757.771 146.386 757.377 146.374L728.313 145.52C728.154 145.515 728.004 145.601 727.915 145.749L711.443 172.821C711.22 173.188 710.72 173.098 710.608 172.671L702.346 141.173C702.3 141.001 702.181 140.867 702.029 140.816L674.154 131.48C673.776 131.353 673.697 130.788 674.022 130.536L697.98 111.924C698.11 111.822 698.187 111.653 698.183 111.474L697.426 78.6324C697.416 78.1871 697.867 77.9274 698.18 78.1984L721.249 98.1935C721.375 98.3025 721.541 98.3323 721.69 98.2725L749.098 87.3112Z" fill="#806027"/>
<path d="M724.822 83.7031L768.621 66.1274L753.069 115.625C752.75 116.639 752.907 117.767 753.487 118.621L781.711 160.232L735.269 158.935C734.319 158.909 733.422 159.426 732.883 160.31L706.516 203.607L693.377 153.308C693.107 152.274 692.392 151.466 691.477 151.16L646.968 136.312L685.281 106.515C686.063 105.906 686.521 104.892 686.498 103.819L685.35 51.3347L722.171 83.2307C722.927 83.8855 723.924 84.0633 724.822 83.7031Z" stroke="#D6A642" stroke-width="5"/>
</mask>
<g mask="url(#mask0)">
<rect width="124.643" height="75.7757" transform="matrix(0.662731 -0.748858 0.662731 0.748858 663.643 128.105)" fill="url(#paint1_linear)"/>
</g>
<g opacity="0.35">
<path d="M92.8145 87.6178C93.1666 87.4274 93.5689 87.7883 93.4865 88.2206L87.9232 117.405C87.8901 117.579 87.9378 117.763 88.0501 117.893L106.885 139.737C107.164 140.06 106.994 140.593 106.601 140.627L80.0803 142.907C79.9222 142.921 79.7832 143.024 79.7109 143.181L67.5798 169.533C67.4001 169.923 66.8929 169.891 66.7326 169.48L55.9049 141.705C55.8404 141.539 55.7067 141.419 55.5498 141.386L29.2175 135.829C28.8274 135.747 28.6838 135.194 28.9775 134.906L48.8067 115.46C48.9249 115.344 48.9813 115.167 48.9566 114.989L44.8134 85.2027C44.752 84.7615 45.1704 84.4516 45.5123 84.685L68.5951 100.442C68.7327 100.536 68.9012 100.546 69.0429 100.469L92.8145 87.6178Z" fill="#B8964F"/>
<path d="M86.426 96.5666C86.7781 96.3762 87.1804 96.737 87.098 97.1693L82.9929 118.704C82.9598 118.878 83.0075 119.062 83.1198 119.192L97.0177 135.31C97.2967 135.634 97.1269 136.167 96.7341 136.2L77.1646 137.883C77.0065 137.897 76.8675 138 76.7952 138.157L67.8439 157.601C67.6642 157.992 67.157 157.96 66.9967 157.549L59.0071 137.054C58.9426 136.888 58.8089 136.768 58.652 136.735L39.2218 132.634C38.8318 132.552 38.6881 132 38.9818 131.712L53.6134 117.362C53.7316 117.247 53.7881 117.069 53.7634 116.892L50.7061 94.9129C50.6448 94.4717 51.0632 94.1618 51.4051 94.3952L68.4375 106.022C68.5751 106.116 68.7436 106.126 68.8853 106.05L86.426 96.5666Z" fill="#806027"/>
<path d="M70.2036 96.5769L97.3425 81.8653L90.9572 115.193C90.7571 116.237 91.043 117.34 91.7169 118.122L113.187 143.038L82.9055 145.688C81.9589 145.77 81.1268 146.387 80.6933 147.328L66.8128 177.444L54.4949 145.752C54.1077 144.756 53.3038 144.035 52.3596 143.837L22.3225 137.536L44.9807 115.294C45.6883 114.599 46.0265 113.539 45.8798 112.475L41.1882 78.4548L67.5149 96.4123C68.3413 96.9759 69.3532 97.0379 70.2036 96.5769Z" stroke="#D6A642" stroke-width="5"/>
<mask id="mask1" mask-type="alpha" maskUnits="userSpaceOnUse" x="17" y="74" width="101" height="110">
<path d="M93.1722 87.107C93.5258 86.9101 93.9235 87.2644 93.8366 87.6989L87.9653 117.043C87.9304 117.218 87.976 117.401 88.0867 117.529L106.663 139.083C106.938 139.402 106.763 139.939 106.37 139.98L79.857 142.737C79.6991 142.753 79.5591 142.859 79.4853 143.018L67.0849 169.64C66.9013 170.034 66.3952 170.011 66.2395 169.602L55.7249 141.962C55.6622 141.797 55.5301 141.679 55.3737 141.649L29.1338 136.548C28.7453 136.473 28.6078 135.922 28.9041 135.628L48.9187 115.789C49.0379 115.671 49.0962 115.492 49.0734 115.315L45.2566 85.5404C45.2001 85.0995 45.6212 84.7816 45.96 85.0093L68.8444 100.388C68.9807 100.48 69.1489 100.487 69.2912 100.408L93.1722 87.107Z" fill="url(#paint2_radial)"/>
<path d="M86.693 96.1878C87.0466 95.9909 87.4443 96.3452 87.3574 96.7797L83.0251 118.432C82.9901 118.607 83.0358 118.79 83.1465 118.919L96.8535 134.823C97.1286 135.142 96.9533 135.679 96.5607 135.72L76.9971 137.754C76.8391 137.771 76.6992 137.876 76.6253 138.035L67.4753 157.679C67.2917 158.073 66.7856 158.051 66.6299 157.641L58.8713 137.246C58.8086 137.081 58.6765 136.964 58.5201 136.933L39.158 133.169C38.7695 133.094 38.632 132.543 38.9283 132.249L53.6968 117.61C53.8161 117.492 53.8743 117.313 53.8516 117.136L51.0352 95.1658C50.9786 94.7249 51.3997 94.407 51.7386 94.6347L68.6247 105.983C68.761 106.074 68.9292 106.082 69.0715 106.002L86.693 96.1878Z" fill="#806027"/>
<path d="M70.4929 96.4849L97.7575 81.2599L91.0205 114.771C90.8094 115.82 91.083 116.919 91.7475 117.691L112.923 142.278L82.6494 145.471C81.7033 145.571 80.8659 146.204 80.4229 147.154L66.2344 177.58L54.2734 146.041C53.8975 145.05 53.1026 144.342 52.162 144.16L22.2294 138.38L45.1 115.688C45.8139 114.98 46.163 113.912 46.0281 112.849L41.7092 78.8411L67.8102 96.3678C68.6292 96.9177 69.6388 96.9618 70.4929 96.4849Z" stroke="#D6A642" stroke-width="5"/>
</mask>
<g mask="url(#mask1)">
<rect width="86.745" height="51.2989" transform="matrix(0.581796 -0.830565 0.737352 0.65419 31.4185 132.432)" fill="url(#paint3_linear)"/>
</g>
</g>
<path d="M44.8426 280.188C45.1947 279.997 45.597 280.358 45.5146 280.791L37.3213 323.772C37.2882 323.946 37.3359 324.129 37.4482 324.259L65.1869 356.429C65.4659 356.753 65.2961 357.286 64.9033 357.319L25.8449 360.678C25.6868 360.692 25.5478 360.794 25.4755 360.952L7.60974 399.761C7.43005 400.151 6.92284 400.119 6.76246 399.708L-9.1837 358.803C-9.24825 358.637 -9.3819 358.517 -9.53887 358.484L-48.3193 350.299C-48.7093 350.217 -48.853 349.665 -48.5593 349.377L-19.3562 320.737C-19.238 320.621 -19.1816 320.444 -19.2062 320.267L-25.3081 276.399C-25.3695 275.958 -24.9511 275.648 -24.6091 275.882L9.38552 299.087C9.52312 299.181 9.69164 299.191 9.83334 299.115L44.8426 280.188Z" fill="#B8964F"/>
<path d="M35.568 293.18C35.9201 292.989 36.3224 293.35 36.24 293.782L30.1638 325.658C30.1306 325.832 30.1783 326.015 30.2906 326.146L50.8622 350.004C51.1412 350.327 50.9714 350.86 50.5785 350.894L21.6121 353.385C21.454 353.398 21.315 353.501 21.2427 353.658L7.99312 382.44C7.81343 382.83 7.30622 382.799 7.14584 382.387L-4.68015 352.051C-4.74469 351.885 -4.87834 351.765 -5.03531 351.732L-33.7956 345.662C-34.1856 345.58 -34.3293 345.028 -34.0356 344.74L-12.378 323.5C-12.2598 323.384 -12.2034 323.207 -12.2281 323.03L-16.7534 290.497C-16.8147 290.055 -16.3963 289.745 -16.0544 289.979L9.1567 307.188C9.29429 307.282 9.46281 307.293 9.60452 307.216L35.568 293.18Z" fill="#806027"/>
<path d="M11.0369 292.384L52.5239 269.894L42.7628 320.842C42.5627 321.886 42.8486 322.988 43.5226 323.771L76.3393 361.855L30.0582 365.904C29.1116 365.987 28.2795 366.604 27.846 367.544L6.62983 413.577L-12.2004 365.13C-12.5876 364.134 -13.3915 363.413 -14.3357 363.215L-60.2529 353.583L-25.6202 319.585C-24.9126 318.89 -24.5744 317.83 -24.7211 316.767L-31.8915 264.771L8.34822 292.219C9.17456 292.783 10.1865 292.845 11.0369 292.384Z" stroke="#D6A642" stroke-width="5"/>
<mask id="mask2" mask-type="alpha" maskUnits="userSpaceOnUse" x="-66" y="260" width="147" height="160">
<path d="M45.3564 279.447C45.71 279.251 46.1078 279.605 46.021 280.039L37.3806 323.252C37.3457 323.427 37.3914 323.61 37.5021 323.739L64.8649 355.487C65.14 355.806 64.9648 356.343 64.5722 356.383L25.5258 360.435C25.3678 360.452 25.2279 360.557 25.154 360.716L6.89736 399.918C6.71381 400.313 6.20771 400.29 6.05195 399.881L-9.43975 359.172C-9.50243 359.007 -9.6346 358.89 -9.79098 358.859L-48.437 351.34C-48.8256 351.264 -48.9632 350.713 -48.6668 350.419L-19.1948 321.208C-19.0756 321.09 -19.0173 320.912 -19.0401 320.734L-24.668 276.884C-24.7246 276.444 -24.3035 276.126 -23.9646 276.353L9.74178 299.009C9.87816 299.1 10.0463 299.108 10.1886 299.029L45.3564 279.447Z" fill="url(#paint4_radial)"/>
<path d="M35.9521 292.63C36.3057 292.433 36.7035 292.787 36.6167 293.222L30.2088 325.269C30.1739 325.444 30.2196 325.627 30.3303 325.756L50.6231 349.301C50.8983 349.62 50.7231 350.157 50.3305 350.198L21.3728 353.203C21.2148 353.219 21.0749 353.325 21.001 353.483L7.46149 382.557C7.27794 382.951 6.77184 382.928 6.61608 382.519L-4.87291 352.328C-4.93559 352.164 -5.06776 352.046 -5.22414 352.016L-33.8849 346.439C-34.2734 346.363 -34.411 345.812 -34.1147 345.519L-12.2576 323.855C-12.1384 323.737 -12.0801 323.558 -12.1029 323.381L-16.2767 290.861C-16.3333 290.42 -15.9122 290.102 -15.5733 290.33L9.42409 307.132C9.56048 307.223 9.72863 307.231 9.87093 307.151L35.9521 292.63Z" fill="#806027"/>
<path d="M11.463 292.26L53.1389 268.995L42.8477 320.219C42.6368 321.268 42.9106 322.368 43.5752 323.139L75.947 360.725L29.6791 365.596C28.733 365.695 27.8956 366.328 27.4528 367.278L5.77287 413.777L-12.5192 365.562C-12.8952 364.571 -13.6903 363.863 -14.6309 363.681L-60.39 354.837L-25.4377 320.161C-24.7238 319.452 -24.3749 318.385 -24.51 317.322L-31.1187 265.346L8.78022 292.142C9.59929 292.692 10.609 292.737 11.463 292.26Z" stroke="#D6A642" stroke-width="5"/>
</mask>
<g mask="url(#mask2)">
<rect width="125.937" height="74.4757" transform="matrix(0.581684 -0.830432 0.737469 0.654327 -44.6851 345.447)" fill="url(#paint5_linear)"/>
</g>
<g opacity="0.15">
<path d="M647.575 411.544C647.927 411.354 648.33 411.715 648.247 412.147L644.492 431.846C644.459 432.02 644.507 432.204 644.619 432.334L657.332 447.079C657.611 447.402 657.442 447.935 657.049 447.969L639.147 449.508C638.989 449.522 638.85 449.625 638.778 449.782L630.589 467.569C630.41 467.959 629.902 467.928 629.742 467.517L622.433 448.768C622.369 448.603 622.235 448.483 622.078 448.45L604.304 444.699C603.914 444.616 603.77 444.064 604.064 443.776L617.449 430.649C617.567 430.534 617.623 430.356 617.599 430.179L614.802 410.073C614.741 409.632 615.159 409.322 615.501 409.555L631.082 420.191C631.219 420.285 631.388 420.296 631.53 420.219L647.575 411.544Z" fill="#B8964F"/>
<path d="M643.171 417.714C643.523 417.524 643.925 417.885 643.843 418.317L641.093 432.743C641.06 432.917 641.107 433.1 641.22 433.23L650.53 444.027C650.809 444.351 650.639 444.884 650.246 444.918L637.137 446.045C636.979 446.058 636.84 446.161 636.767 446.318L630.771 459.344C630.592 459.734 630.084 459.703 629.924 459.291L624.572 445.562C624.507 445.397 624.374 445.277 624.217 445.244L611.201 442.497C610.811 442.414 610.667 441.862 610.961 441.574L620.762 431.962C620.881 431.846 620.937 431.669 620.912 431.491L618.864 416.768C618.803 416.327 619.221 416.017 619.563 416.25L630.973 424.039C631.11 424.133 631.279 424.143 631.421 424.067L643.171 417.714Z" fill="#806027"/>
<path d="M632.661 418.277L649.935 408.912L645.871 430.126C645.671 431.171 645.957 432.273 646.631 433.055L660.3 448.919L641.018 450.606C640.072 450.688 639.239 451.305 638.806 452.246L629.969 471.42L622.128 451.247C621.741 450.251 620.937 449.53 619.993 449.332L600.873 445.321L615.299 431.16C616.007 430.465 616.345 429.405 616.198 428.342L613.211 406.679L629.972 418.112C630.799 418.676 631.81 418.738 632.661 418.277Z" stroke="#D6A642" stroke-width="5"/>
<mask id="mask3" mask-type="alpha" maskUnits="userSpaceOnUse" x="596" y="402" width="69" height="75">
<path d="M647.821 411.197C648.175 411 648.572 411.354 648.485 411.789L644.522 431.596C644.487 431.771 644.533 431.954 644.644 432.082L657.183 446.631C657.458 446.951 657.282 447.488 656.89 447.528L638.994 449.389C638.836 449.406 638.696 449.511 638.622 449.67L630.252 467.64C630.068 468.034 629.562 468.012 629.406 467.602L622.309 448.945C622.246 448.78 622.114 448.663 621.958 448.632L604.246 445.189C603.857 445.114 603.72 444.563 604.016 444.269L617.526 430.878C617.645 430.759 617.703 430.581 617.68 430.404L615.104 410.306C615.048 409.865 615.469 409.547 615.808 409.775L631.255 420.155C631.391 420.247 631.559 420.255 631.701 420.175L647.821 411.197Z" fill="url(#paint6_radial)"/>
<path d="M643.354 417.458C643.708 417.261 644.105 417.616 644.018 418.05L641.116 432.555C641.081 432.73 641.127 432.913 641.238 433.041L650.42 443.695C650.695 444.014 650.52 444.551 650.127 444.592L637.022 445.955C636.864 445.971 636.724 446.077 636.65 446.235L630.521 459.394C630.337 459.789 629.831 459.766 629.675 459.357L624.478 445.694C624.415 445.53 624.283 445.412 624.127 445.382L611.156 442.86C610.768 442.785 610.63 442.234 610.927 441.94L620.82 432.134C620.939 432.016 620.997 431.837 620.975 431.66L619.088 416.942C619.031 416.501 619.453 416.184 619.791 416.411L631.103 424.013C631.239 424.105 631.407 424.112 631.55 424.033L643.354 417.458Z" fill="#806027"/>
<path d="M632.852 418.208L650.207 408.517L645.919 429.848C645.708 430.898 645.981 431.997 646.646 432.768L660.128 448.422L640.851 450.456C639.905 450.556 639.067 451.189 638.624 452.138L629.591 471.51L621.977 451.434C621.601 450.443 620.806 449.735 619.866 449.553L600.812 445.874L615.373 431.427C616.087 430.718 616.436 429.65 616.301 428.588L613.551 406.932L630.17 418.091C630.989 418.641 631.998 418.685 632.852 418.208Z" stroke="#D6A642" stroke-width="5"/>
</mask>
<g mask="url(#mask3)">
<rect width="59.8044" height="35.3668" transform="matrix(0.581796 -0.830565 0.737352 0.65419 605.52 442.294)" fill="url(#paint7_linear)"/>
</g>
</g>
<defs>
<radialGradient id="paint0_radial" cx="0" cy="0" r="1" gradientUnits="userSpaceOnUse" gradientTransform="translate(717.977 123.412) rotate(131.508) scale(64.517 64.0384)">
<stop stop-color="#B8964F"/>
<stop offset="1" stop-color="#B8964F" stop-opacity="0"/>
</radialGradient>
<linearGradient id="paint1_linear" x1="62.3216" y1="0" x2="62.3216" y2="75.7757" gradientUnits="userSpaceOnUse">
<stop stop-color="#FBD67D" stop-opacity="0"/>
<stop offset="0.473958" stop-color="#FCD77E"/>
<stop offset="0.5" stop-color="#FCD77E"/>
<stop offset="1" stop-color="#FBD67D" stop-opacity="0"/>
</linearGradient>
<radialGradient id="paint2_radial" cx="0" cy="0" r="1" gradientUnits="userSpaceOnUse" gradientTransform="translate(68.2621 123.584) rotate(124.902) scale(45.0752 43.5085)">
<stop stop-color="#B8964F"/>
<stop offset="1" stop-color="#B8964F" stop-opacity="0"/>
</radialGradient>
<linearGradient id="paint3_linear" x1="43.3725" y1="0" x2="43.3725" y2="51.2989" gradientUnits="userSpaceOnUse">
<stop stop-color="#FBD67D" stop-opacity="0"/>
<stop offset="0.473958" stop-color="#FCD77E"/>
<stop offset="0.5" stop-color="#FCD77E"/>
<stop offset="1" stop-color="#FBD67D" stop-opacity="0"/>
</linearGradient>
<radialGradient id="paint4_radial" cx="0" cy="0" r="1" gradientUnits="userSpaceOnUse" gradientTransform="translate(8.80273 332.615) rotate(124.901) scale(65.4261 63.174)">
<stop stop-color="#B8964F"/>
<stop offset="1" stop-color="#B8964F" stop-opacity="0"/>
</radialGradient>
<linearGradient id="paint5_linear" x1="62.9685" y1="0" x2="62.9685" y2="74.4757" gradientUnits="userSpaceOnUse">
<stop stop-color="#FBD67D" stop-opacity="0"/>
<stop offset="0.473958" stop-color="#FCD77E"/>
<stop offset="0.5" stop-color="#FCD77E"/>
<stop offset="1" stop-color="#FBD67D" stop-opacity="0"/>
</linearGradient>
<radialGradient id="paint6_radial" cx="0" cy="0" r="1" gradientUnits="userSpaceOnUse" gradientTransform="translate(630.921 436.193) rotate(124.902) scale(31.076 29.9959)">
<stop stop-color="#B8964F"/>
<stop offset="1" stop-color="#B8964F" stop-opacity="0"/>
</radialGradient>
<linearGradient id="paint7_linear" x1="29.9022" y1="0" x2="29.9022" y2="35.3668" gradientUnits="userSpaceOnUse">
<stop stop-color="#FBD67D" stop-opacity="0"/>
<stop offset="0.473958" stop-color="#FCD77E"/>
<stop offset="0.5" stop-color="#FCD77E"/>
<stop offset="1" stop-color="#FBD67D" stop-opacity="0"/>
</linearGradient>
</defs>
</svg>
