<svg width="745" height="202" viewBox="0 0 745 202" fill="none" xmlns="http://www.w3.org/2000/svg">
<g opacity="0.25">
<path d="M87.084 65.9752C87.4464 65.7898 87.8554 66.1369 87.7706 66.5577L85.2106 79.2608C85.1764 79.4305 85.2248 79.6085 85.3395 79.7343L93.9993 89.2341C94.2863 89.549 94.1064 90.0731 93.6998 90.1062L81.5172 91.097C81.3528 91.1104 81.2075 91.2126 81.1319 91.368L75.5565 102.824C75.3705 103.206 74.8497 103.181 74.6853 102.782L69.7016 90.6895C69.6361 90.5304 69.5008 90.4157 69.3414 90.3839L57.2214 87.9643C56.8215 87.8845 56.6789 87.3467 56.9829 87.0647L66.0963 78.6108C66.22 78.4961 66.2793 78.3209 66.2537 78.1463L64.3504 65.204C64.2869 64.7721 64.7212 64.4637 65.073 64.6909L75.6858 71.5434C75.8263 71.6341 75.999 71.6437 76.1451 71.569L87.084 65.9752Z" fill="white"/>
<path d="M83.9844 70.0829C84.3468 69.8976 84.7558 70.2446 84.671 70.6655L82.8185 79.8578C82.7843 80.0276 82.8328 80.2056 82.9474 80.3313L89.2119 87.2035C89.499 87.5184 89.319 88.0425 88.9125 88.0756L80.1026 88.7921C79.9382 88.8055 79.7929 88.9077 79.7173 89.0631L75.6847 97.3491C75.4987 97.7312 74.9779 97.7062 74.8134 97.3071L71.2068 88.5558C71.1412 88.3967 71.006 88.282 70.8466 88.2502L62.0754 86.4992C61.6754 86.4193 61.5328 85.8816 61.8369 85.5995L68.4285 79.4849C68.5522 79.3702 68.6115 79.195 68.5858 79.0204L67.2095 69.6612C67.146 69.2293 67.5802 68.9209 67.9321 69.1481L75.6094 74.1052C75.7499 74.1959 75.9226 74.2055 76.0687 74.1308L83.9844 70.0829Z" fill="white"/>
<path d="M90.4682 61.3652C90.8308 61.1793 91.2405 61.5269 91.1552 61.9481L87.7956 78.533C87.7612 78.7027 87.8096 78.881 87.9242 79.0068L99.2089 91.3949C99.4956 91.7097 99.3161 92.2332 98.91 92.2668L83.0061 93.5826C82.842 93.5962 82.6971 93.6983 82.6215 93.8534L75.327 108.823C75.1408 109.205 74.6197 109.18 74.4556 108.78L67.9747 93.0073C67.9092 92.8477 67.7736 92.7327 67.6138 92.701L51.8094 89.5648C51.4093 89.4854 51.2662 88.9475 51.5703 88.6652L63.4773 77.6094C63.6007 77.4948 63.66 77.3201 63.6346 77.1457L61.1709 60.2448C61.108 59.8133 61.5418 59.5055 61.8934 59.7323L75.7308 68.6606C75.8714 68.7513 76.0442 68.7608 76.1904 68.6858L90.4682 61.3652Z" fill="white"/>
<mask id="mask0" mask-type="alpha" maskUnits="userSpaceOnUse" x="51" y="59" width="49" height="51">
<path d="M87.2474 65.7488C87.6119 65.5568 88.0218 65.9022 87.9322 66.3258L85.2323 79.0894C85.1963 79.2599 85.2433 79.4383 85.3574 79.5635L93.8994 88.9386C94.183 89.2498 94.0022 89.7734 93.5975 89.8132L81.406 91.0123C81.2431 91.0283 81.0989 91.1313 81.0227 91.286L75.3205 102.865C75.1313 103.25 74.6096 103.228 74.4491 102.829L69.614 90.8064C69.5494 90.6459 69.4133 90.5311 69.2521 90.5015L57.1858 88.2829C56.7853 88.2092 56.6437 87.6722 56.9492 87.3858L66.1526 78.7565C66.2756 78.6412 66.3356 78.4672 66.3122 78.2942L64.557 65.3437C64.4988 64.9138 64.9329 64.6037 65.2822 64.8258L75.8053 71.5149C75.9459 71.6043 76.1192 71.6115 76.2659 71.5342L87.2474 65.7488Z" fill="white"/>
<path d="M84.1041 69.9171C84.4686 69.7251 84.8785 70.0705 84.7889 70.4941L82.8357 79.7279C82.7996 79.8984 82.8467 80.0768 82.9608 80.2021L89.1404 86.9844C89.424 87.2956 89.2432 87.8192 88.8385 87.859L80.0187 88.7264C79.8558 88.7424 79.7116 88.8454 79.6354 89.0002L75.5102 97.3772C75.321 97.7616 74.7993 97.7398 74.6388 97.3407L71.1409 88.643C71.0763 88.4825 70.9401 88.3677 70.779 88.3381L62.0496 86.733C61.6492 86.6594 61.5075 86.1224 61.813 85.8359L68.4711 79.5932C68.5941 79.4779 68.6541 79.3039 68.6307 79.1309L67.361 69.762C67.3027 69.3321 67.7368 69.022 68.0861 69.244L75.699 74.0833C75.8395 74.1726 76.0128 74.1799 76.1595 74.1026L84.1041 69.9171Z" fill="white"/>
<path d="M90.6724 61.0862C91.0369 60.8935 91.4473 61.2397 91.3572 61.6639L87.819 78.3393C87.7828 78.51 87.8298 78.6887 87.9439 78.8141L99.0699 91.0473C99.3529 91.3585 99.1728 91.8818 98.7687 91.9221L82.8663 93.5083C82.7039 93.5245 82.5601 93.6274 82.484 93.7819L75.0314 108.919C74.842 109.303 74.3204 109.281 74.1604 108.881L67.8732 93.1864C67.8086 93.0253 67.6721 92.9101 67.5107 92.8806L51.7815 90.0023C51.381 89.929 51.2389 89.3915 51.5442 89.1047L63.5588 77.8166C63.6814 77.7014 63.7414 77.5277 63.7182 77.3549L61.4473 60.4377C61.3896 60.0079 61.8231 59.6983 62.1719 59.9202L75.8852 68.6414C76.0258 68.7308 76.1991 68.738 76.3458 68.6605L90.6724 61.0862Z" fill="white"/>
</mask>
<g mask="url(#mask0)">
<rect width="40.8262" height="24.1481" transform="matrix(0.599766 -0.809891 0.759985 0.637788 57.7666 86.2988)" fill="white"/>
</g>
</g>
<g opacity="0.85">
<path d="M17.8899 51.8602C18.2523 51.6749 18.6614 52.022 18.5766 52.4428L17.8396 56.0998C17.8054 56.2695 17.8538 56.4475 17.9685 56.5732L20.4562 59.3023C20.7433 59.6172 20.5633 60.1414 20.1568 60.1744L16.6649 60.4584C16.5005 60.4718 16.3552 60.574 16.2795 60.7295L14.6794 64.0173C14.4934 64.3995 13.9726 64.3744 13.8082 63.9753L12.3726 60.4922C12.3071 60.3331 12.1719 60.2184 12.0124 60.1865L8.52129 59.4896C8.12133 59.4097 7.97877 58.872 8.2828 58.59L10.8984 56.1637C11.022 56.0489 11.0814 55.8738 11.0557 55.6992L10.5102 51.9895C10.4466 51.5576 10.8809 51.2492 11.2327 51.4764L14.2815 53.445C14.422 53.5357 14.5947 53.5453 14.7408 53.4706L17.8899 51.8602Z" fill="white"/>
<path d="M16.7909 53.3163C17.1533 53.131 17.5623 53.478 17.4775 53.8989L16.9914 56.311C16.9572 56.4807 17.0057 56.6587 17.1203 56.7845L18.7587 58.5818C19.0458 58.8967 18.8658 59.4209 18.4593 59.4539L16.1633 59.6407C15.999 59.654 15.8537 59.7562 15.778 59.9117L14.7249 62.0755C14.5389 62.4577 14.0181 62.4326 13.8536 62.0336L12.9064 59.7351C12.8408 59.576 12.7056 59.4613 12.5462 59.4295L10.2425 58.9696C9.84253 58.8897 9.69998 58.352 10.004 58.07L11.7254 56.4731C11.849 56.3584 11.9084 56.1833 11.8827 56.0087L11.524 53.5695C11.4605 53.1376 11.8947 52.8292 12.2465 53.0564L14.2545 54.3529C14.3949 54.4436 14.5676 54.4532 14.7138 54.3785L16.7909 53.3163Z" fill="white"/>
<path d="M19.0887 50.2276C19.4513 50.0417 19.861 50.3893 19.7757 50.8105L18.7564 55.8422C18.722 56.012 18.7704 56.1902 18.885 56.3161L22.3047 60.0701C22.5914 60.3848 22.4119 60.9084 22.0058 60.942L17.1924 61.3402C17.0284 61.3538 16.8834 61.4559 16.8078 61.611L14.5986 66.1448C14.4123 66.5271 13.8913 66.5015 13.7272 66.1021L11.7603 61.3152C11.6948 61.1556 11.5592 61.0406 11.3994 61.0089L6.60289 60.0571C6.20272 59.9777 6.05971 59.4398 6.36373 59.1575L9.97001 55.809C10.0934 55.6945 10.1527 55.5197 10.1273 55.3454L9.38162 50.2303C9.31871 49.7987 9.75257 49.491 10.1041 49.7178L14.2973 52.4234C14.4379 52.5141 14.6108 52.5236 14.7569 52.4486L19.0887 50.2276Z" fill="white"/>
<mask id="mask1" mask-type="alpha" maskUnits="userSpaceOnUse" x="6" y="49" width="17" height="18">
<path d="M17.9402 51.7934C18.3047 51.6014 18.7146 51.9468 18.625 52.3704L17.849 56.0387C17.813 56.2092 17.86 56.3876 17.9741 56.5128L20.429 59.2071C20.7125 59.5183 20.5318 60.0418 20.1271 60.0817L16.6235 60.4262C16.4606 60.4423 16.3164 60.5453 16.2402 60.7L14.6015 64.0278C14.4122 64.4121 13.8905 64.3903 13.7301 63.9913L12.3404 60.536C12.2759 60.3754 12.1397 60.2607 11.9785 60.231L8.51067 59.5934C8.1102 59.5198 7.96855 58.9827 8.27406 58.6963L10.919 56.2164C11.042 56.1011 11.102 55.9271 11.0786 55.7541L10.5742 52.0324C10.5159 51.6025 10.95 51.2924 11.2993 51.5144L14.3235 53.4368C14.4641 53.5262 14.6374 53.5334 14.7841 53.4561L17.9402 51.7934Z" fill="white"/>
<path d="M16.8255 53.272C17.19 53.0799 17.5999 53.4253 17.5103 53.849L16.9991 56.2656C16.963 56.4361 17.0101 56.6145 17.1242 56.7397L18.7414 58.5147C19.0249 58.8258 18.8442 59.3494 18.4395 59.3892L16.1314 59.6162C15.9686 59.6322 15.8243 59.7352 15.7481 59.89L14.6686 62.0822C14.4793 62.4666 13.9577 62.4447 13.7972 62.0457L12.8817 59.7694C12.8172 59.6088 12.681 59.4941 12.5198 59.4644L10.2352 59.0444C9.83474 58.9707 9.6931 58.4337 9.9986 58.1472L11.741 56.5135C11.864 56.3982 11.924 56.2243 11.9006 56.0513L11.5683 53.5995C11.51 53.1697 11.9442 52.8596 12.2934 53.0816L14.2857 54.348C14.4263 54.4374 14.5996 54.4446 14.7463 54.3674L16.8255 53.272Z" fill="white"/>
<path d="M19.1538 50.1421C19.5183 49.9494 19.9286 50.2956 19.8386 50.7198L18.7664 55.7729C18.7302 55.9436 18.7772 56.1223 18.8913 56.2478L22.2638 59.9558C22.5468 60.267 22.3667 60.7903 21.9626 60.8306L17.1409 61.3116C16.9784 61.3278 16.8346 61.4307 16.7586 61.5851L14.4992 66.1739C14.3099 66.5585 13.7883 66.5361 13.6282 66.1365L11.7232 61.3809C11.6586 61.2198 11.5222 61.1047 11.3607 61.0752L6.59472 60.203C6.19424 60.1297 6.05215 59.5923 6.35743 59.3054L9.99972 55.8834C10.1223 55.7682 10.1823 55.5945 10.1591 55.4217L9.47052 50.2923C9.41283 49.8624 9.84628 49.5528 10.1951 49.7747L14.3518 52.4182C14.4924 52.5077 14.6658 52.5149 14.8124 52.4373L19.1538 50.1421Z" fill="white"/>
</mask>
<g mask="url(#mask1)">
<rect width="14.4765" height="8.56266" transform="matrix(0.599766 -0.809891 0.759985 0.637788 8.07275 58.7715)" fill="white"/>
</g>
</g>
<g opacity="0.85">
<path d="M713.89 62.8602C714.252 62.6749 714.661 63.022 714.577 63.4428L713.84 67.0998C713.805 67.2695 713.854 67.4475 713.968 67.5732L716.456 70.3023C716.743 70.6172 716.563 71.1414 716.157 71.1744L712.665 71.4584C712.501 71.4718 712.355 71.574 712.28 71.7295L710.679 75.0173C710.493 75.3995 709.973 75.3744 709.808 74.9753L708.373 71.4922C708.307 71.3331 708.172 71.2184 708.012 71.1865L704.521 70.4896C704.121 70.4097 703.979 69.872 704.283 69.59L706.898 67.1637C707.022 67.0489 707.081 66.8738 707.056 66.6992L706.51 62.9895C706.447 62.5576 706.881 62.2492 707.233 62.4764L710.282 64.445C710.422 64.5357 710.595 64.5453 710.741 64.4706L713.89 62.8602Z" fill="white"/>
<path d="M712.791 64.3163C713.153 64.131 713.562 64.478 713.478 64.8989L712.991 67.311C712.957 67.4807 713.006 67.6587 713.12 67.7845L714.759 69.5818C715.046 69.8967 714.866 70.4209 714.459 70.4539L712.163 70.6407C711.999 70.654 711.854 70.7562 711.778 70.9117L710.725 73.0755C710.539 73.4577 710.018 73.4326 709.854 73.0336L708.906 70.7351C708.841 70.576 708.706 70.4613 708.546 70.4295L706.242 69.9696C705.843 69.8897 705.7 69.352 706.004 69.07L707.725 67.4731C707.849 67.3584 707.908 67.1833 707.883 67.0087L707.524 64.5695C707.46 64.1376 707.895 63.8292 708.247 64.0564L710.254 65.3529C710.395 65.4436 710.568 65.4532 710.714 65.3785L712.791 64.3163Z" fill="white"/>
<path d="M715.089 61.2276C715.451 61.0417 715.861 61.3893 715.776 61.8105L714.756 66.8422C714.722 67.012 714.77 67.1902 714.885 67.3161L718.305 71.0701C718.591 71.3848 718.412 71.9084 718.006 71.942L713.192 72.3402C713.028 72.3538 712.883 72.4559 712.808 72.611L710.599 77.1448C710.412 77.5271 709.891 77.5015 709.727 77.1021L707.76 72.3152C707.695 72.1556 707.559 72.0406 707.399 72.0089L702.603 71.0571C702.203 70.9777 702.06 70.4398 702.364 70.1575L705.97 66.809C706.093 66.6945 706.153 66.5197 706.127 66.3454L705.382 61.2303C705.319 60.7987 705.753 60.491 706.104 60.7178L710.297 63.4234C710.438 63.5141 710.611 63.5236 710.757 63.4486L715.089 61.2276Z" fill="white"/>
<mask id="mask2" mask-type="alpha" maskUnits="userSpaceOnUse" x="702" y="60" width="17" height="18">
<path d="M713.94 62.7934C714.305 62.6014 714.715 62.9468 714.625 63.3704L713.849 67.0387C713.813 67.2092 713.86 67.3876 713.974 67.5128L716.429 70.2071C716.713 70.5183 716.532 71.0418 716.127 71.0817L712.623 71.4262C712.461 71.4423 712.316 71.5453 712.24 71.7L710.601 75.0278C710.412 75.4121 709.891 75.3903 709.73 74.9913L708.34 71.536C708.276 71.3754 708.14 71.2607 707.979 71.231L704.511 70.5934C704.11 70.5198 703.969 69.9827 704.274 69.6963L706.919 67.2164C707.042 67.1011 707.102 66.9271 707.079 66.7541L706.574 63.0324C706.516 62.6025 706.95 62.2924 707.299 62.5144L710.324 64.4368C710.464 64.5262 710.637 64.5334 710.784 64.4561L713.94 62.7934Z" fill="white"/>
<path d="M712.825 64.272C713.19 64.0799 713.6 64.4253 713.51 64.849L712.999 67.2656C712.963 67.4361 713.01 67.6145 713.124 67.7397L714.741 69.5147C715.025 69.8258 714.844 70.3494 714.439 70.3892L712.131 70.6162C711.969 70.6322 711.824 70.7352 711.748 70.89L710.669 73.0822C710.479 73.4666 709.958 73.4447 709.797 73.0457L708.882 70.7694C708.817 70.6088 708.681 70.4941 708.52 70.4644L706.235 70.0444C705.835 69.9707 705.693 69.4337 705.999 69.1472L707.741 67.5135C707.864 67.3982 707.924 67.2243 707.901 67.0513L707.568 64.5995C707.51 64.1697 707.944 63.8596 708.293 64.0816L710.286 65.348C710.426 65.4374 710.6 65.4446 710.746 65.3674L712.825 64.272Z" fill="white"/>
<path d="M715.154 61.1421C715.518 60.9494 715.929 61.2956 715.839 61.7198L714.766 66.7729C714.73 66.9436 714.777 67.1223 714.891 67.2478L718.264 70.9558C718.547 71.267 718.367 71.7903 717.963 71.8306L713.141 72.3116C712.978 72.3278 712.835 72.4307 712.759 72.5851L710.499 77.1739C710.31 77.5585 709.788 77.5361 709.628 77.1365L707.723 72.3809C707.659 72.2198 707.522 72.1047 707.361 72.0752L702.595 71.203C702.194 71.1297 702.052 70.5923 702.357 70.3054L706 66.8834C706.122 66.7682 706.182 66.5945 706.159 66.4217L705.471 61.2923C705.413 60.8624 705.846 60.5528 706.195 60.7747L710.352 63.4182C710.492 63.5077 710.666 63.5149 710.812 63.4373L715.154 61.1421Z" fill="white"/>
</mask>
<g mask="url(#mask2)">
<rect width="14.4765" height="8.56266" transform="matrix(0.599766 -0.809891 0.759985 0.637788 704.073 69.7715)" fill="white"/>
</g>
</g>
<g opacity="0.85">
<path d="M570.468 55.6593C570.83 55.474 571.239 55.821 571.154 56.2419L569.373 65.0782C569.339 65.2479 569.388 65.4259 569.502 65.5516L575.524 72.1573C575.811 72.4722 575.631 72.9963 575.224 73.0294L566.757 73.7181C566.592 73.7314 566.447 73.8336 566.371 73.9891L562.495 81.9535C562.309 82.3357 561.788 82.3106 561.624 81.9116L558.157 73.4992C558.091 73.3401 557.956 73.2254 557.797 73.1935L549.365 71.5103C548.965 71.4305 548.823 70.8927 549.127 70.6107L555.463 64.7333C555.586 64.6186 555.646 64.4434 555.62 64.2688L554.297 55.273C554.234 54.8411 554.668 54.5328 555.02 54.7599L562.399 59.5248C562.54 59.6155 562.712 59.6251 562.858 59.5504L570.468 55.6593Z" fill="white"/>
<path d="M568.223 58.6333C568.586 58.448 568.995 58.795 568.91 59.2159L567.641 65.51C567.607 65.6797 567.656 65.8578 567.77 65.9835L572.057 70.6864C572.344 71.0013 572.164 71.5254 571.758 71.5585L565.732 72.0486C565.568 72.0619 565.423 72.1641 565.347 72.3196L562.588 77.9886C562.402 78.3708 561.881 78.3457 561.717 77.9467L559.247 71.9537C559.181 71.7946 559.046 71.6799 558.887 71.648L552.88 70.4489C552.48 70.3691 552.337 69.8313 552.642 69.5493L557.151 65.3658C557.275 65.2511 557.334 65.0759 557.309 64.9013L556.367 58.5001C556.304 58.0682 556.738 57.7598 557.09 57.987L562.344 61.3794C562.484 61.4701 562.657 61.4797 562.803 61.405L568.223 58.6333Z" fill="white"/>
<path d="M572.918 52.3218C573.28 52.1359 573.69 52.4835 573.605 52.9047L571.245 64.5512C571.211 64.721 571.259 64.8992 571.374 65.025L579.297 73.7225C579.584 74.0372 579.404 74.5608 578.998 74.5944L567.835 75.518C567.671 75.5315 567.526 75.6336 567.45 75.7887L562.329 86.2976C562.143 86.6798 561.622 86.6542 561.458 86.2548L556.907 75.1778C556.841 75.0183 556.706 74.9033 556.546 74.8716L545.447 72.6691C545.046 72.5897 544.903 72.0518 545.208 71.7695L553.566 64.0082C553.69 63.8936 553.749 63.7189 553.724 63.5445L551.994 51.6815C551.931 51.25 552.365 50.9422 552.717 51.169L562.432 57.4374C562.572 57.5281 562.745 57.5376 562.891 57.4626L572.918 52.3218Z" fill="white"/>
<mask id="mask3" mask-type="alpha" maskUnits="userSpaceOnUse" x="545" y="51" width="35" height="36">
<path d="M570.583 55.5016C570.947 55.3096 571.357 55.655 571.267 56.0786L569.39 64.9544C569.354 65.1249 569.401 65.3033 569.515 65.4285L575.455 71.9479C575.739 72.2591 575.558 72.7827 575.153 72.8225L566.675 73.6563C566.512 73.6723 566.368 73.7753 566.292 73.93L562.327 81.9823C562.138 82.3667 561.616 82.3448 561.455 81.9458L558.093 73.5853C558.029 73.4248 557.892 73.31 557.731 73.2804L549.34 71.7376C548.94 71.664 548.798 71.1269 549.104 70.8405L555.504 64.8398C555.627 64.7245 555.687 64.5505 555.663 64.3775L554.443 55.3718C554.384 54.9419 554.819 54.6319 555.168 54.8539L562.486 59.5055C562.626 59.5948 562.799 59.6021 562.946 59.5248L570.583 55.5016Z" fill="white"/>
<path d="M568.307 58.5195C568.671 58.3275 569.081 58.6729 568.991 59.0965L567.655 65.4163C567.618 65.5868 567.666 65.7652 567.78 65.8904L572.009 70.5324C572.293 70.8435 572.112 71.3671 571.707 71.4069L565.671 72.0006C565.508 72.0166 565.364 72.1196 565.287 72.2743L562.464 78.0077C562.275 78.3921 561.753 78.3702 561.593 77.9712L559.199 72.0183C559.134 71.8578 558.998 71.743 558.837 71.7134L552.862 70.6149C552.462 70.5412 552.32 70.0042 552.626 69.7177L557.183 65.4451C557.306 65.3298 557.366 65.1559 557.342 64.9828L556.473 58.5707C556.415 58.1408 556.849 57.8307 557.198 58.0528L562.409 61.3648C562.549 61.4541 562.722 61.4614 562.869 61.3841L568.307 58.5195Z" fill="white"/>
<path d="M573.062 52.1257C573.427 51.933 573.837 52.2792 573.747 52.7034L571.263 64.4108C571.227 64.5815 571.274 64.7602 571.388 64.8857L579.2 73.4747C579.483 73.7859 579.303 74.3092 578.899 74.3495L567.733 75.4633C567.57 75.4795 567.426 75.5824 567.35 75.7369L562.118 86.3648C561.928 86.7494 561.407 86.727 561.247 86.3274L556.832 75.3086C556.768 75.1475 556.631 75.0324 556.47 75.0028L545.427 72.9821C545.027 72.9088 544.884 72.3713 545.19 72.0845L553.626 64.1588C553.748 64.0436 553.808 63.8699 553.785 63.6971L552.19 51.8186C552.133 51.3888 552.566 51.0792 552.915 51.301L562.543 57.4244C562.684 57.5138 562.857 57.521 563.004 57.4434L573.062 52.1257Z" fill="white"/>
</mask>
<g mask="url(#mask3)">
<rect width="29.563" height="17.4861" transform="matrix(0.599766 -0.809891 0.759985 0.637788 549.486 70.2495)" fill="white"/>
</g>
</g>
<g opacity="0.85">
<path d="M160.468 57.6593C160.83 57.474 161.239 57.821 161.154 58.2419L159.373 67.0782C159.339 67.2479 159.388 67.4259 159.502 67.5516L165.524 74.1573C165.811 74.4722 165.631 74.9963 165.224 75.0294L156.757 75.7181C156.592 75.7314 156.447 75.8336 156.371 75.9891L152.495 83.9535C152.309 84.3357 151.788 84.3106 151.624 83.9116L148.157 75.4992C148.091 75.3401 147.956 75.2254 147.797 75.1935L139.365 73.5103C138.965 73.4305 138.823 72.8927 139.127 72.6107L145.463 66.7333C145.586 66.6186 145.646 66.4434 145.62 66.2688L144.297 57.273C144.234 56.8411 144.668 56.5328 145.02 56.7599L152.399 61.5248C152.54 61.6155 152.712 61.6251 152.858 61.5504L160.468 57.6593Z" fill="white"/>
<path d="M158.223 60.6333C158.586 60.448 158.995 60.795 158.91 61.2159L157.641 67.51C157.607 67.6797 157.656 67.8578 157.77 67.9835L162.057 72.6864C162.344 73.0013 162.164 73.5254 161.758 73.5585L155.732 74.0486C155.568 74.0619 155.423 74.1641 155.347 74.3196L152.588 79.9886C152.402 80.3708 151.881 80.3457 151.717 79.9467L149.247 73.9537C149.181 73.7946 149.046 73.6799 148.887 73.648L142.88 72.4489C142.48 72.3691 142.337 71.8313 142.642 71.5493L147.151 67.3658C147.275 67.2511 147.334 67.0759 147.309 66.9013L146.367 60.5001C146.304 60.0682 146.738 59.7598 147.09 59.987L152.344 63.3794C152.484 63.4701 152.657 63.4797 152.803 63.405L158.223 60.6333Z" fill="white"/>
<path d="M162.918 54.3218C163.28 54.1359 163.69 54.4835 163.605 54.9047L161.245 66.5512C161.211 66.721 161.259 66.8992 161.374 67.025L169.297 75.7225C169.584 76.0372 169.404 76.5608 168.998 76.5944L157.835 77.518C157.671 77.5315 157.526 77.6336 157.45 77.7887L152.329 88.2976C152.143 88.6798 151.622 88.6542 151.458 88.2548L146.907 77.1778C146.841 77.0183 146.706 76.9033 146.546 76.8716L135.447 74.6691C135.046 74.5897 134.903 74.0518 135.208 73.7695L143.566 66.0082C143.69 65.8936 143.749 65.7189 143.724 65.5445L141.994 53.6815C141.931 53.25 142.365 52.9422 142.717 53.169L152.432 59.4374C152.572 59.5281 152.745 59.5376 152.891 59.4626L162.918 54.3218Z" fill="white"/>
<mask id="mask4" mask-type="alpha" maskUnits="userSpaceOnUse" x="135" y="53" width="35" height="36">
<path d="M160.583 57.5016C160.947 57.3096 161.357 57.655 161.267 58.0786L159.39 66.9544C159.354 67.1249 159.401 67.3033 159.515 67.4285L165.455 73.9479C165.739 74.2591 165.558 74.7827 165.153 74.8225L156.675 75.6563C156.512 75.6723 156.368 75.7753 156.292 75.93L152.327 83.9823C152.138 84.3667 151.616 84.3448 151.455 83.9458L148.093 75.5853C148.029 75.4248 147.892 75.31 147.731 75.2804L139.34 73.7376C138.94 73.664 138.798 73.1269 139.104 72.8405L145.504 66.8398C145.627 66.7245 145.687 66.5505 145.663 66.3775L144.443 57.3718C144.384 56.9419 144.819 56.6319 145.168 56.8539L152.486 61.5055C152.626 61.5948 152.799 61.6021 152.946 61.5248L160.583 57.5016Z" fill="white"/>
<path d="M158.307 60.5195C158.671 60.3275 159.081 60.6729 158.991 61.0965L157.655 67.4163C157.618 67.5868 157.666 67.7652 157.78 67.8904L162.009 72.5324C162.293 72.8435 162.112 73.3671 161.707 73.4069L155.671 74.0006C155.508 74.0166 155.364 74.1196 155.287 74.2743L152.464 80.0077C152.275 80.3921 151.753 80.3702 151.593 79.9712L149.199 74.0183C149.134 73.8578 148.998 73.743 148.837 73.7134L142.862 72.6149C142.462 72.5412 142.32 72.0042 142.626 71.7177L147.183 67.4451C147.306 67.3298 147.366 67.1559 147.342 66.9828L146.473 60.5707C146.415 60.1408 146.849 59.8307 147.198 60.0528L152.409 63.3648C152.549 63.4541 152.722 63.4614 152.869 63.3841L158.307 60.5195Z" fill="white"/>
<path d="M163.062 54.1257C163.427 53.933 163.837 54.2792 163.747 54.7034L161.263 66.4108C161.227 66.5815 161.274 66.7602 161.388 66.8857L169.2 75.4747C169.483 75.7859 169.303 76.3092 168.899 76.3495L157.733 77.4633C157.57 77.4795 157.426 77.5824 157.35 77.7369L152.118 88.3648C151.928 88.7494 151.407 88.727 151.247 88.3274L146.832 77.3086C146.768 77.1475 146.631 77.0324 146.47 77.0028L135.427 74.9821C135.027 74.9088 134.884 74.3713 135.19 74.0845L143.626 66.1588C143.748 66.0436 143.808 65.8699 143.785 65.6971L142.19 53.8186C142.133 53.3888 142.566 53.0792 142.915 53.301L152.543 59.4244C152.684 59.5138 152.857 59.521 153.004 59.4434L163.062 54.1257Z" fill="white"/>
</mask>
<g mask="url(#mask4)">
<rect width="29.563" height="17.4861" transform="matrix(0.599766 -0.809891 0.759985 0.637788 139.486 72.2495)" fill="white"/>
</g>
</g>
<g opacity="0.35">
<path d="M613.851 82.7398C613.445 82.7204 613.215 83.2052 613.466 83.5536L627.701 103.336C627.802 103.477 627.831 103.659 627.779 103.821L620.302 126.822C620.17 127.227 620.55 127.631 620.934 127.493L642.596 119.74C642.751 119.684 642.925 119.717 643.058 119.828L661.504 135.144C661.831 135.416 662.296 135.178 662.281 134.747L661.446 110.165C661.44 109.993 661.516 109.833 661.648 109.738L680.538 96.197C680.87 95.9594 680.778 95.4107 680.385 95.2791L658.201 87.854C658.041 87.8005 657.915 87.6654 657.866 87.4957L651.088 63.8234C650.968 63.4037 650.445 63.3017 650.218 63.6537L637.34 83.6318C637.25 83.7724 637.096 83.8523 636.932 83.8445L613.851 82.7398Z" fill="white"/>
<path d="M621.974 87.1712C621.567 87.1517 621.337 87.6366 621.588 87.985L632.062 102.54C632.163 102.681 632.192 102.863 632.14 103.025L626.639 119.945C626.508 120.351 626.888 120.754 627.272 120.617L643.204 114.914C643.359 114.858 643.534 114.891 643.667 115.002L657.235 126.269C657.562 126.54 658.026 126.303 658.012 125.871L657.397 107.784C657.391 107.612 657.467 107.452 657.599 107.357L671.499 97.3936C671.83 97.156 671.738 96.6073 671.345 96.4757L655.027 91.0139C654.867 90.9604 654.741 90.8252 654.693 90.6555L649.707 73.2443C649.587 72.8246 649.064 72.7226 648.837 73.0746L639.364 87.7713C639.273 87.9118 639.12 87.9918 638.956 87.984L621.974 87.1712Z" fill="white"/>
<path d="M604.887 77.6969C604.48 77.677 604.25 78.1626 604.502 78.5112L622.927 104.062C623.028 104.203 623.057 104.385 623.005 104.547L613.369 134.225C613.238 134.63 613.617 135.033 614.001 134.896L641.999 124.919C642.154 124.863 642.328 124.897 642.461 125.007L666.328 144.806C666.655 145.077 667.12 144.839 667.104 144.407L665.993 112.684C665.987 112.512 666.063 112.351 666.195 112.256L690.593 94.8101C690.924 94.5728 690.833 94.0238 690.44 93.8919L661.75 84.2743C661.591 84.2207 661.465 84.086 661.416 83.9167L652.621 53.3458C652.5 52.9267 651.978 52.8251 651.751 53.1767L635.129 78.9443C635.039 79.0849 634.885 79.1648 634.721 79.1568L604.887 77.6969Z" fill="white"/>
<mask id="mask5" mask-type="alpha" maskUnits="userSpaceOnUse" x="603" y="53" width="89" height="92">
<path d="M613.404 82.4855C612.993 82.4608 612.762 82.9444 613.018 83.2935L627.544 103.077C627.647 103.217 627.678 103.399 627.625 103.561L620.255 126.254C620.125 126.655 620.505 127.057 620.89 126.927L642.717 119.527C642.872 119.475 643.046 119.509 643.179 119.619L661.933 135.044C662.264 135.317 662.73 135.082 662.712 134.652L661.676 110.295C661.668 110.122 661.745 109.962 661.88 109.868L680.841 96.7079C681.176 96.4758 681.084 95.9281 680.687 95.793L658.22 88.1394C658.06 88.085 657.934 87.9513 657.884 87.784L650.849 64.225C650.725 63.8093 650.202 63.7057 649.975 64.052L637.125 83.6783C637.034 83.8176 636.879 83.8957 636.714 83.8857L613.404 82.4855Z" fill="white"/>
<path d="M621.642 86.9816C621.231 86.9569 621 87.4405 621.256 87.7896L631.942 102.344C632.045 102.484 632.076 102.666 632.024 102.827L626.601 119.522C626.471 119.922 626.852 120.325 627.237 120.194L643.294 114.751C643.449 114.698 643.623 114.733 643.756 114.842L657.552 126.19C657.883 126.463 658.35 126.228 658.331 125.798L657.569 107.88C657.562 107.707 657.639 107.546 657.773 107.453L671.722 97.7711C672.057 97.539 671.965 96.9913 671.568 96.8562L655.04 91.2257C654.88 91.1714 654.754 91.0376 654.704 90.8703L649.529 73.5389C649.405 73.1233 648.881 73.0197 648.655 73.366L639.202 87.8042C639.11 87.9436 638.956 88.0216 638.79 88.0117L621.642 86.9816Z" fill="white"/>
<path d="M604.309 77.3696C603.898 77.3444 603.666 77.8288 603.923 78.178L622.725 103.734C622.829 103.874 622.86 104.056 622.807 104.217L613.308 133.498C613.178 133.898 613.558 134.3 613.943 134.171L642.152 124.652C642.307 124.6 642.48 124.634 642.613 124.743L666.877 144.683C667.208 144.955 667.675 144.72 667.656 144.29L666.286 112.853C666.278 112.68 666.355 112.519 666.49 112.425L690.983 95.4688C691.318 95.237 691.226 94.689 690.829 94.5537L661.774 84.6405C661.615 84.5861 661.489 84.4527 661.439 84.2858L652.314 53.864C652.189 53.4489 651.666 53.3457 651.44 53.6916L634.854 79.0047C634.763 79.1441 634.607 79.2222 634.442 79.212L604.309 77.3696Z" fill="white"/>
</mask>
<g mask="url(#mask5)">
<rect width="73.4167" height="43.4249" transform="matrix(-0.880288 -0.490649 -0.429506 0.894357 677.755 94.3491)" fill="white"/>
</g>
</g>
</svg>
